<?xml version="1.0" standalone="no"?>
<!DOCTYPE svg PUBLIC "-//W3C//DTD SVG 1.1//EN" "http://www.w3.org/Graphics/SVG/1.1/DTD/svg11.dtd" >
<svg xmlns="http://www.w3.org/2000/svg" xmlns:xlink="http://www.w3.org/1999/xlink" version="1.1">
<metadata></metadata>
<defs>
<font id="font37bold" horiz-adv-x="0" >
<font-face units-per-em="2048" ascent="1638" descent="-410" />
<missing-glyph horiz-adv-x="430" />
<glyph unicode="fi" horiz-adv-x="1138" d="M18 14q3 16 17 19q132 15 155 45q23 38 23 108v613h-82q-71 0 -111 43q-6 6 -2 16q3 10 13 10h182q0 122 27 183q35 87 133 149q109 68 245 68q151 0 234 -86q55 -58 55 -95q0 -35 -26 -57t-64 -22q-30 0 -49 14.5t-47 64.5q-47 121 -141 121q-75 0 -131 -59 q-62 -65 -62 -166v-115h213q96 2 213 2q135 0 135 -145v-569q0 -46 8 -54q11 -20 54 -20q32 0 53 12q8 8 22 8q17 0 17 -16q0 -14 -15 -29q-23 -29 -55 -49q-58 -37 -135 -37q-125 0 -125 158v563q0 107 -127 107h-256v-613q0 -99 37 -120q20 -16 143 -31q21 -3 21 -19 t-21 -16h-534q-17 0 -17 14z" />
<glyph unicode="fl" horiz-adv-x="974" d="M-2 858q3 10 12 10h164q0 138 27 203q77 197 297 197q121 0 184 -84q70 55 125 55v-1083q0 -46 8 -54q11 -20 53 -20q36 0 54 12q8 8 22 8q17 0 17 -16q0 -14 -15 -29q-23 -29 -55 -49q-58 -37 -135 -37q-125 0 -125 158v670h-281v-613q0 -99 35 -120q23 -16 135 -31 q19 -3 19 -19t-19 -16h-495q-17 0 -17 14q3 16 17 19q95 12 122 42t27 111v613h-61q-73 0 -113 43q-4 11 -2 16zM348 868h283v146q-41 21 -62 73q-7 20 -14 39.5t-10 27.5t-4 9q-26 45 -82 45q-41 0 -76 -59q-35 -65 -35 -166v-115z" />
<glyph />
<glyph unicode="&#xd;" horiz-adv-x="512" />
<glyph unicode=" "  horiz-adv-x="430" />
<glyph unicode="&#x09;" horiz-adv-x="430" />
<glyph unicode="&#xa0;" horiz-adv-x="430" />
<glyph unicode="!" horiz-adv-x="366" d="M61 287v880q0 14 9.5 22.5t21.5 8.5h119q13 0 23 -8.5t10 -22.5v-880q0 -14 -10 -21.5t-23 -7.5h-119q-12 0 -21.5 7.5t-9.5 21.5zM66 31q0 -31 30 -31h115q29 0 29 31v114q0 29 -29 29h-115q-30 0 -30 -29v-114z" />
<glyph unicode="&#x22;" horiz-adv-x="542" d="M33 1044l37 379q3 29 32 29h385q12 0 19 -9t4 -20l-90 -383q-5 -26 -37 -26h-74q-16 0 -24.5 8t-5.5 22l30 254q2 20 -10.5 29.5t-28 2t-22.5 -31.5l-74 -258q-8 -26 -37 -26h-74q-33 0 -30 30z" />
<glyph unicode="#" horiz-adv-x="811" d="M41 410q0 26 15 43t37 27.5t43.5 22.5t36.5 35t15 58q0 25 -16 47t-35 35t-35 32.5t-16 41.5q0 23 16.5 40t37.5 25t44.5 21.5t32.5 29.5q16 25 23.5 69t10 77.5t22 59.5t59.5 26q36 0 47.5 -27t7.5 -66t-7 -78t13 -66t58 -27q38 0 58 27t26 66t11.5 78t23.5 66t53 27 q29 0 43 -17.5t13.5 -44.5t-3 -58t-5.5 -58t5 -45q11 -23 35.5 -43t41.5 -37.5t17 -40.5q0 -26 -15 -43t-36 -26.5t-42.5 -20.5t-36.5 -33t-15 -55q0 -32 15.5 -54.5t34.5 -33t34.5 -29t15.5 -43.5q0 -34 -16.5 -45.5t-48.5 -24.5t-56 -43q-20 -24 -30 -68t-13.5 -80 t-21.5 -63.5t-52 -27.5q-31 0 -45.5 18t-14 45.5t2.5 60.5q2 36 3 68t-14 54t-48 22q-40 0 -61.5 -27.5t-28.5 -67t-13 -79t-24.5 -67t-53.5 -27.5t-48 27.5t-8 64t6 74t-7 57.5q-13 26 -31 44.5t-30.5 26t-21.5 20t-9 30.5zM332 578q0 -34 19 -56t48 -22q32 0 56 23.5 t24 60.5t-17.5 61.5t-49.5 24.5q-31 0 -55.5 -27t-24.5 -65z" />
<glyph unicode="$" horiz-adv-x="630" d="M61 252q0 33 48 33h90q37 0 37 -33t22 -53.5t55 -20.5t55.5 20.5t22.5 53.5v104q0 30 -57 90q-55 59 -209 213q-64 64 -64 179v102q1 81 47.5 147.5t118.5 92.5v104q0 35 35 35h109q32 0 32 -35v-104q74 -26 120 -92.5t46 -145.5v-37q0 -31 -34 -31h-107q-37 0 -37 39v23 q0 36 -22.5 58t-55.5 22q-31 0 -53 -22t-22 -58v-100q0 -42 30 -68q102 -102 234 -231q67 -67 67 -183v-104q0 -77 -46 -144t-120 -94v-104q0 -37 -32 -37h-109q-35 0 -35 37v104q-74 25 -120 90t-46 150z" />
<glyph unicode="%" horiz-adv-x="1130" d="M102 612v432q0 60 45 107t115 47q79 0 121 -57q39 -45 39 -97v-432q0 -58 -39 -100q-48 -57 -121 -57q-66 0 -113 47t-47 110zM211 612q3 -45 51 -45q47 0 47 45v432q0 48 -47 48q-48 0 -51 -48q-6 -218 0 -432zM309 35l367 1128q5 14 18.5 24.5t28.5 10.5h76 q13 0 20 -10.5t4 -24.5l-366 -1128q-4 -13 -18.5 -24t-28.5 -11h-76q-15 0 -22.5 10.5t-2.5 24.5zM709 156v434q0 59 44.5 106t114.5 47q79 0 121 -57q39 -48 39 -96v-434q0 -54 -41 -101q-46 -55 -119 -55q-67 0 -113 47t-46 109zM817 156q0 -43 51 -43q47 0 47 43v434 q0 45 -47 45q-51 0 -51 -45q-6 -217 0 -434z" />
<glyph unicode="&#x26;" horiz-adv-x="1310" d="M51 264q0 160 185 289q15 9 36 22.5t53.5 35.5t57.5 38q-57 146 -57 252q0 83 32 129q89 135 242 135q101 0 160 -67t59 -172q0 -163 -250 -277l211 -346l131 199q31 48 31 100q0 83 -108 98v27h356v-27q-48 -16 -78 -28q-39 -15 -68 -64l-210 -344q-5 -10 -5 -12 q0 -26 72 -80q81 -63 172 -63q100 0 156 90l41 -27q-132 -197 -285 -197q-130 0 -258 158q-163 -147 -387 -147q-289 0 -289 278zM227 307q0 -36 11 -69q13 -71 71 -114.5t133 -43.5q121 0 234 104l-266 398q-183 -118 -183 -275zM463 926q0 -64 22 -125q7 -15 17.5 -35.5 t16 -32.5t9.5 -20q91 54 125 84q59 56 74 141q4 32 4 43q0 115 -110 115q-68 0 -113 -50t-45 -120z" />
<glyph unicode="'" horiz-adv-x="296" d="M33 1044l37 379q3 29 32 29h140q11 0 17.5 -9t4.5 -20l-90 -383q-5 -26 -37 -26h-74q-33 0 -30 30z" />
<glyph unicode="(" horiz-adv-x="552" d="M41 580q0 200 84 364q47 89 127 178.5t123 96.5q22 3 34.5 -6.5t12.5 -28.5q0 -35 -57 -121q-132 -199 -132 -477q0 -104 19 -195.5t47 -151t56 -104.5t50 -78t25 -49q9 -51 -39 -51q-52 0 -123 75t-137 185q-90 164 -90 363z" />
<glyph unicode=")" horiz-adv-x="552" d="M123 8q3 16 25 49t49.5 78t55.5 104.5t47 151t19 195.5q0 279 -131 477q-57 86 -57 121q0 19 12.5 28.5t34.5 6.5q43 -7 123 -96.5t127 -178.5q84 -164 84 -364q0 -199 -90 -363q-66 -110 -137 -185t-123 -75q-48 0 -39 51z" />
<glyph unicode="*" horiz-adv-x="575" d="M84 1284.5q-2 8.5 6 15.5l31 58q10 20 35 6l39 -21q13 -8 25.5 -3.5t12.5 20.5v57q0 19 21 19h68q20 0 20 -23v-49q0 -15 12 -23t25 -2l45 27q18 11 31 -8l30 -58q7 -8 5 -15.5t-13 -12.5l-43 -25q-12 -4 -12 -22t10 -21l51 -28q19 -10 2 -27l-30 -59q-16 -19 -31 -7 l-43 23q-12 9 -25.5 5t-13.5 -21v-56q0 -20 -20 -20h-68q-21 0 -21 22v47q0 15 -11.5 24t-24.5 3l-45 -27q-8 -6 -17 -3.5t-14 10.5l-31 59q-16 16 6 29l45 24q12 4 12 21t-12 22l-45 27q-10 4 -12 12.5z" />
<glyph unicode="+" horiz-adv-x="632" d="M82 618v87q0 26 29 26h106q29 0 29 31v106q0 29 28 29h86q29 0 29 -29v-108q0 -29 29 -29h104q29 0 29 -26v-87q0 -28 -29 -28h-104q-29 0 -29 -29v-104q0 -29 -29 -29h-86q-28 0 -28 29v104q0 29 -29 29h-106q-29 0 -29 28z" />
<glyph unicode="," horiz-adv-x="348" d="M43 -197l37 379q3 29 33 29h139q11 0 17.5 -9t4.5 -20l-90 -383q-5 -26 -37 -26h-73q-34 0 -31 30z" />
<glyph unicode="-" horiz-adv-x="661" d="M61 608v115q0 13 8 22t21 9h479q13 0 22 -9.5t9 -21.5v-115q0 -30 -31 -30h-479q-29 0 -29 30z" />
<glyph unicode="." horiz-adv-x="333" d="M41 37v139q0 35 37 35h139q35 0 35 -35v-139q0 -37 -35 -37h-139q-37 0 -37 37z" />
<glyph unicode="/" horiz-adv-x="661" d="M55 35l367 1128q5 14 18.5 24.5t28.5 10.5h113q13 0 20 -10.5t4 -24.5l-366 -1128q-4 -13 -18.5 -24t-28.5 -11h-113q-15 0 -22.5 10.5t-2.5 24.5z" />
<glyph unicode="0" horiz-adv-x="634" d="M61 254v694q0 88 64 164q71 86 194 86q121 0 197 -94q57 -72 57 -156v-694q0 -91 -59 -164q-78 -90 -195 -90q-108 0 -184 76q-74 77 -74 178zM238 254q0 -27 23 -51.5t58 -24.5q33 0 56.5 24.5t23.5 51.5v694q0 27 -23.5 50.5t-56.5 23.5q-35 0 -58 -23.5t-23 -50.5 v-694z" />
<glyph unicode="1" horiz-adv-x="421" d="M61 901v119q0 14 37 63q42 56 62 97q9 18 33 18h118q39 0 39 -39v-1118q0 -41 -39 -41h-98q-43 0 -43 41v790q0 39 -29 39q-5 0 -21.5 -5t-21.5 -5q-20 0 -28.5 9.5t-8.5 31.5z" />
<glyph unicode="2" horiz-adv-x="634" d="M61 907v35q0 99 74 176q74 80 182 80q103 0 181 -78q75 -75 75 -188v-172q0 -62 -22 -101l-250 -436q-4 -4 -4 -16q0 -27 29 -27h215q32 0 32 -45v-94q0 -41 -36 -41h-435q-39 0 -39 49v88q0 39 39 109l265 454q26 45 26 109v115q0 88 -76 88q-77 0 -77 -88v-13 q0 -41 -33 -41h-107q-39 0 -39 37z" />
<glyph unicode="3" horiz-adv-x="643" d="M61 270v11q0 45 48 45h88q45 0 45 -45v-21q0 -34 22.5 -56t54.5 -22q33 0 55.5 22.5t22.5 55.5v252q0 53 -37 88t-92 35h-14q-35 0 -35 37v51q0 24 21 57l108 178q8 13 8 29q0 27 -32 27h-218q-45 0 -45 45v92q0 47 48 47h426q47 0 47 -47v-127q0 -12 -5.5 -27.5 t-19 -39.5t-24.5 -42t-35 -55.5t-37 -58.5q-10 -15 -10 -29q0 -19 18 -29q48 -37 79.5 -95.5t31.5 -119.5v-272q0 -94 -72 -172q-75 -84 -189 -84q-108 0 -184 76q-74 77 -74 194z" />
<glyph unicode="4" horiz-adv-x="624" d="M61 221v137q0 14 7 45l131 752q9 43 51 43h92q42 0 37 -39l-127 -770q-9 -37 27 -37h18q33 0 33 29v96q0 49 45 49h76q33 0 45 -9.5t12 -39.5v-96q0 -29 31 -29q34 0 34 -43v-100q0 -18 -7 -24.5t-21 -6.5q-37 0 -37 -43v-96q0 -39 -41 -39h-96q-41 0 -41 39v96 q0 39 -33 39h-186q-50 0 -50 47z" />
<glyph unicode="5" horiz-adv-x="643" d="M61 672v487q0 39 41 39h441q39 0 39 -49v-92q0 -43 -37 -43h-262q-37 0 -37 -33v-201q0 -17 10 -26t27 -6q138 15 225 -72q74 -77 74 -174v-256q0 -92 -66 -164q-79 -82 -192 -82q-105 0 -177 66q-84 81 -84 221q0 37 39 37h109q35 0 35 -37v-39q0 -21 22.5 -43.5 t55.5 -22.5q31 0 53 23t22 63v224q0 86 -65 86q-22 0 -49 -17.5t-45 -17.5q-14 0 -29 10l-131 76q-19 9 -19 43z" />
<glyph unicode="6" horiz-adv-x="645" d="M72 246v704q0 94 73 170q78 78 185 78q111 0 186 -84q68 -77 68 -170q0 -43 -43 -43h-86q-49 0 -49 43q0 29 -22.5 52.5t-53.5 23.5q-36 0 -57 -22t-21 -58v-235q3 -44 51 -35q1 0 17 3t24 3q93 0 166 -64q74 -74 74 -196v-174q0 -87 -60 -156q-80 -89 -194 -86t-187 82 q-71 77 -71 164zM252 256q0 -36 22 -58t54 -22t55 22t23 58v156q0 36 -23 58t-55 22t-54 -22t-22 -58v-156z" />
<glyph unicode="7" horiz-adv-x="612" d="M51 1059v100q0 39 47 39h424q21 0 30 -9t9 -30v-125q0 -16 -8 -43l-281 -950q-12 -41 -49 -41h-102q-19 0 -29.5 11t-7.5 28l276 934q9 41 -28 41h-240q-41 0 -41 45z" />
<glyph unicode="8" horiz-adv-x="655" d="M72 250v223q0 60 39 119q16 26 16 37q0 9 -16 35q-39 48 -39 129v157q0 94 69 166q73 82 187 82q109 0 184 -78q72 -72 72 -170v-157q0 -84 -37 -129q-19 -25 -19 -35q0 -12 19 -37q37 -56 37 -119v-223q0 -98 -72 -170q-74 -80 -184 -80q-116 0 -187 80q-69 69 -69 170z M250 256q0 -36 22 -58t54 -22t56 22.5t24 57.5v205q0 35 -24 57.5t-56 22.5t-54 -22t-22 -58v-205zM250 795q0 -34 22 -56t54 -22t54.5 22t22.5 56v139q0 36 -22.5 58t-54.5 22t-54.5 -22.5t-21.5 -57.5v-139z" />
<glyph unicode="9" horiz-adv-x="645" d="M72 256q0 39 47 39h82q53 0 53 -41q0 -31 20 -53.5t54 -22.5q35 0 56.5 23t21.5 57v238q0 19 -14 27.5t-40 2.5q-6 0 -19 -1t-20 -1q-99 0 -166 64q-73 64 -73 192v176q0 82 59 156q74 89 195 86q111 0 184 -82q72 -75 72 -164v-702q0 -97 -74 -174q-73 -76 -182 -76 t-187 84q-69 78 -69 172zM252 788q0 -38 21.5 -58.5t54.5 -20.5t55.5 20.5t22.5 58.5v152q0 37 -23 58.5t-55 21.5t-54 -21.5t-22 -58.5v-152z" />
<glyph unicode=":" horiz-adv-x="382" d="M61 37v139q0 35 37 35h140q34 0 34 -35v-139q0 -37 -34 -37h-140q-37 0 -37 37zM61 649v139q0 35 37 35h140q34 0 34 -35v-139q0 -37 -34 -37h-140q-37 0 -37 37z" />
<glyph unicode=";" horiz-adv-x="352" d="M23 -197l36 379q3 29 33 29h139q12 0 18.5 -9t4.5 -20l-90 -383q-5 -26 -37 -26h-74q-33 0 -30 30zM59 649v139q0 35 37 35h140q34 0 34 -35v-139q0 -37 -34 -37h-140q-37 0 -37 37z" />
<glyph unicode="&#x3c;" horiz-adv-x="1531" d="M104 628.5q0 15.5 11 22.5l364 324q2 2 8 7.5t8.5 8t8 6.5t9 6t8 4.5t8.5 3.5t8 1h184q16 0 21 -11t-11 -26l-205 -184q-27 -23 -16 -47.5t55 -24.5h828q15 0 26 -12t11 -27v-105q0 -15 -14.5 -29t-29.5 -14h-827q-44 0 -52.5 -22t19.5 -45l205 -182q16 -12 11 -23.5 t-21 -11.5h-184q-6 0 -11.5 2t-12 6t-11 7.5t-12 10t-11.5 9.5l-364 321q-11 9 -11 24.5z" />
<glyph unicode="=" horiz-adv-x="702" d="M102 455v114q0 12 9 21.5t22 9.5h436q13 0 22 -9.5t9 -21.5v-114q0 -31 -31 -31h-436q-31 0 -31 31zM102 748v114q0 12 9 21.5t22 9.5h436q13 0 22 -9.5t9 -21.5v-114q0 -31 -31 -31h-436q-31 0 -31 31z" />
<glyph unicode="&#x3e;" horiz-adv-x="1531" d="M102 575v105q0 15 11 27t26 12h828q44 0 55 24.5t-16 47.5l-205 184q-16 15 -11 26t21 11h184q4 0 8 -1t8.5 -3.5t8 -4.5t9 -6t8 -6.5t8.5 -8t8 -7.5l364 -324q11 -7 11 -22.5t-11 -24.5l-364 -321q-4 -3 -11.5 -9.5t-12 -10t-11 -7.5t-12 -6t-11.5 -2h-184 q-16 0 -21 11.5t11 23.5l205 182q28 23 19.5 45t-52.5 22h-828q-15 0 -29 14t-14 29z" />
<glyph unicode="?" horiz-adv-x="675" d="M61 907v35q0 99 74 176q74 80 182 80q103 0 181 -78q75 -75 75 -188v-154q0 -85 -38 -143l-119 -170q-27 -39 -27 -86v-82q0 -39 -39 -39h-98q-43 0 -43 39v123q0 54 27 92l131 188q26 38 26 109v115q0 88 -76 88q-77 0 -77 -88v-13q0 -41 -33 -41h-107q-39 0 -39 37z M211 31v114q0 29 31 29h114q29 0 29 -29v-114q0 -31 -29 -31h-114q-31 0 -31 31z" />
<glyph unicode="@" horiz-adv-x="1546" d="M82 420q0 238 156 426q260 315 659 315q295 0 455 -219q127 -177 127 -395v-29q-4 -28 -4 -29q0 -78 -95 -223q-119 -186 -270 -186q-58 0 -82 8q-77 23 -131 111q-85 -123 -233 -123q-196 0 -205 217q-2 14 -2 33q0 122 53 231q27 59 96 143q86 105 219 105 q111 0 179 -105l14 80h143l-133 -569q39 -57 92 -57q119 0 201 168q68 142 68 272q-27 203 -172 336t-349 133q-33 0 -47 -2q-457 -46 -571 -533q-19 -84 -19 -151q0 -246 185 -402q177 -145 426 -145q204 0 375 104l24 -67q-231 -117 -455 -117q-319 0 -536 236 q-168 180 -168 434zM618 328q0 -58 19 -107q23 -63 76 -63q185 35 237 305q17 80 17 119q0 130 -95 145q-61 0 -137 -88q-62 -75 -86 -141q-31 -98 -31 -170z" />
<glyph unicode="A" horiz-adv-x="1478" d="M16 0v37q84 15 111 39q47 45 113 194l477 1116h35l471 -1128q46 -110 82 -152q54 -63 151 -69v-37h-534v37q137 6 137 84q0 46 -39 137l-82 197h-526l-93 -215q-32 -71 -32 -117q0 -77 155 -86v-37h-426zM442 528h467l-229 547z" />
<glyph unicode="B" horiz-adv-x="1366" d="M35 0v37h51q83 0 121 53q22 36 22 150v876q0 124 -28 160q-40 43 -115 43h-51v37h586q340 0 479 -139q92 -89 92 -224q0 -225 -248 -301q309 -64 309 -321q0 -108 -66.5 -198.5t-170.5 -129.5q-116 -43 -342 -43h-639zM422 98q113 -26 227 -26q155 0 252 63 q121 77 121 219q0 165 -137 244q-117 66 -287 66q-119 0 -176 -11v-555zM422 745q69 -14 186 -14q256 0 332 129q41 65 41 141q0 147 -123 224q-100 63 -258 63q-102 0 -178 -20v-523z" />
<glyph unicode="C" horiz-adv-x="1366" d="M74 657q0 198 86 365q86 171 256 272q160 92 348 92q146 0 291 -71q48 -23 57 -23q63 0 84 94h37l31 -460h-31q-120 389 -453 389q-294 0 -415 -287q-66 -153 -66 -373q0 -382 240 -526q123 -72 270 -72q155 0 262 76q88 61 193 205l30 -21q-197 -348 -563 -348 q-333 0 -518 250q-139 189 -139 438z" />
<glyph unicode="D" horiz-adv-x="1478" d="M35 0v37h51q83 0 123 55q20 33 20 148v876q0 127 -26 160q-40 43 -117 43h-51v37h553q260 0 403 -49q200 -65 309 -242q101 -162 101 -381q0 -332 -215 -514q-206 -170 -545 -170h-606zM422 98q131 -28 213 -28q256 0 399 180q140 169 140 426q0 263 -142 428 q-144 176 -405 176q-83 0 -205 -29v-1153z" />
<glyph unicode="E" horiz-adv-x="1251" d="M43 0v37h47q123 0 141 102q5 35 5 101v880q0 129 -25 160q-36 39 -121 39h-47v37h1044l15 -297h-39q-14 83 -35 123q-27 61 -88 86q-35 14 -139 14h-373v-537h297q115 0 156 35q54 48 57 162h39v-471h-39q-12 100 -27 127q-40 76 -186 76h-297v-524q6 -49 37 -64 q21 -12 76 -12h229q95 0 143 10q129 29 250 256h41l-117 -340h-1044z" />
<glyph unicode="F" horiz-adv-x="1138" d="M33 0v37h49q84 0 121 49q24 30 24 154v876q0 103 -14 135q-27 68 -131 68h-49v37h1009l13 -297h-35q-46 163 -146 203q-47 20 -155 20h-299v-532h246q92 0 133 47q33 39 45 139h37v-461h-37q-3 132 -76 172q-36 19 -102 19h-246v-426q0 -87 2 -101q7 -52 46.5 -77 t94.5 -25h51v-37h-581z" />
<glyph unicode="G" horiz-adv-x="1478" d="M72 657q0 178 86 342q202 387 633 387q134 0 305 -63q64 -23 75 -23q44 0 50 86h36l35 -428h-35q-120 359 -448 359q-250 0 -385 -191q-125 -168 -125 -426q0 -178 68 -329q70 -175 206 -258q122 -76 250 -76q150 0 281 76v391q0 78 -6 102q-15 62 -66 82q-32 14 -106 14 v37h524v-37h-25q-79 0 -106 -53q-21 -35 -21 -145v-416q-223 -119 -477 -119q-397 0 -596 252q-153 188 -153 436z" />
<glyph unicode="H" horiz-adv-x="1478" d="M35 0v37h49q84 0 121 49q24 30 24 154v874q0 82 -6 100q-10 53 -49.5 79t-89.5 26h-49v37h581v-37h-51q-124 0 -139 -102q-4 -32 -4 -103v-387h629v387q0 100 -13 137q-27 68 -135 68h-49v37h584v-37h-49q-123 0 -144 -102q-4 -28 -4 -103v-874q0 -75 4 -99 q10 -53 50 -78.5t94 -25.5h49v-37h-584v37h49q81 0 121 49q27 35 27 154v413h-629v-413q0 -98 10 -136q27 -67 133 -67h51v-37h-581z" />
<glyph unicode="I" horiz-adv-x="681" d="M51 0v37h47q83 0 123 49q25 31 25 154v876q0 73 -4 101q-10 52 -50 77t-94 25h-47v37h582v-37h-49q-84 0 -121 -49q-27 -34 -27 -154v-876q0 -102 15 -136q27 -67 133 -67h49v-37h-582z" />
<glyph unicode="J" horiz-adv-x="796" d="M43 123q0 104 100 104q45 0 80 -47q17 -24 43 -86q21 -53 60 -53q73 0 73 149v926q0 103 -14 135q-27 68 -131 68h-49v37h579v-37h-49q-81 0 -121 -49q-22 -31 -22 -154v-663q0 -286 -150 -412q-84 -72 -198 -72q-77 0 -135 37q-66 45 -66 117z" />
<glyph unicode="K" horiz-adv-x="1478" d="M35 0v37h47q83 0 123 49q22 31 22 154v876q0 77 -4 101q-10 52 -49.5 77t-91.5 25h-47v37h577v-37h-49q-121 0 -139 -102q-4 -32 -4 -101v-416l135 127q292 267 360 365q25 42 25 70q0 57 -88 57h-35v37h502v-37q-90 -3 -168 -53q-55 -35 -129 -103l-205 -205l-205 -206 l498 -496q210 -207 383 -219v-37h-641v37q109 0 109 63q0 41 -72 113l-469 465v-438q0 -98 10 -136q30 -67 133 -67h49v-37h-577z" />
<glyph unicode="L" horiz-adv-x="1251" d="M41 0v37h49q86 0 123 55q23 38 23 150v874q0 126 -27 160q-40 43 -119 43h-49v37h612v-37h-13q-162 0 -198 -74q-16 -32 -16 -151v-852q0 -82 12 -109q21 -41 94 -47h201q127 0 185 12q154 37 256 277l30 -6l-112 -369h-1051z" />
<glyph unicode="M" horiz-adv-x="1820" d="M35 0v37h47q87 0 123 51q18 35 18 148v884q0 88 -16 131q-38 68 -172 68v37h383l489 -1061l488 1061h383v-37h-47q-87 0 -123 -51q-25 -36 -25 -148v-884q0 -125 31 -156q37 -43 117 -43h47v-37h-578v37h47q89 0 123 51q25 36 25 148v905l-525 -1141h-32l-525 1141v-905 q0 -124 29 -156q34 -43 117 -43h47v-37h-471z" />
<glyph unicode="N" horiz-adv-x="1478" d="M-27 1319v37h369l827 -1016v780q0 125 -26 158q-41 41 -119 41h-43v37h469v-37h-45q-89 0 -125 -51q-23 -38 -23 -148v-1143h-34l-895 1092v-833q0 -130 26 -156q40 -43 117 -43h49v-37h-473v37h47q89 0 123 51q23 38 23 148v942q-54 63 -78 82q-38 31 -101 51 q-24 8 -88 8z" />
<glyph unicode="O" horiz-adv-x="1478" d="M72 682q0 322 221 528q191 176 457 176q285 0 471 -210q180 -201 180 -490q0 -299 -184 -504q-195 -213 -484 -213q-302 0 -483 211q-178 199 -178 502zM299 686q0 -333 143 -510q108 -135 287 -135q237 0 352 201q90 162 90 417q0 267 -84 437q-115 219 -360 219 q-226 0 -340 -211q-88 -163 -88 -418z" />
<glyph unicode="P" horiz-adv-x="1138" d="M35 0v37h51q83 0 123 55q18 30 18 148v876q0 131 -26 160q-40 43 -115 43h-51v37h495q160 0 254 -27q131 -38 211 -137q72 -90 72 -211q0 -182 -123 -281q-110 -94 -299 -94q-83 0 -225 29v-395q0 -126 29 -158q39 -45 112 -45h53v-37h-579zM420 692q103 -20 164 -20 q116 0 186 88q70 82 70 201q0 198 -140 276q-62 39 -149 39q-52 0 -131 -21v-563z" />
<glyph unicode="Q" horiz-adv-x="1478" d="M72 682q0 297 188 500q189 204 485 204q288 0 476 -212q180 -204 180 -496q0 -246 -135 -434q-132 -187 -367 -258q195 -331 494 -355v-32q-302 12 -592 194q-134 84 -246 193q-141 57 -225 123q-258 199 -258 573zM299 682q0 -256 88 -428q117 -217 346 -217 q233 0 348 201q90 162 90 413q0 455 -227 598q-89 62 -211 62q-234 0 -348 -209q-86 -164 -86 -420z" />
<glyph unicode="R" horiz-adv-x="1366" d="M35 0v37h51q83 0 123 55q20 33 20 148v876q0 127 -26 160q-40 43 -117 43h-51v37h493q180 0 267 -19q133 -27 213 -110q86 -89 86 -219q0 -276 -334 -349l278 -389q78 -107 146 -161q79 -60 200 -72v-37h-362l-461 635q-33 -2 -84 -2q-35 0 -55 2v-395q0 -128 27 -158 q39 -45 112 -45h55v-37h-581zM422 696h53q164 0 268 66q125 76 125 231q0 130 -79.5 208.5t-210.5 78.5q-62 0 -156 -18v-566z" />
<glyph unicode="S" horiz-adv-x="1138" d="M129 1030q0 157 121 260q116 96 274 96q109 0 230 -53q58 -24 80 -24q52 0 67 77h37v-468h-37q-34 255 -196 342q-86 47 -179 47t-164 -56q-75 -57 -75 -151q0 -63 43 -115q64 -73 295 -199q92 -50 206 -116q197 -135 197 -324q0 -170 -129 -278q-123 -99 -297 -99 q-63 0 -110 8q-49 11 -132 39q-92 29 -120 29q-53 0 -62 -76h-37v465h37q20 -124 60 -196q49 -93 145 -144q89 -47 199 -47q108 0 184 55q86 62 86 166q0 111 -115 197q-77 57 -229 139q-163 90 -229 144q-150 120 -150 282z" />
<glyph unicode="T" horiz-adv-x="1251" d="M61 1038l17 318h1108l14 -318h-39q-9 83 -28 119q-62 115 -220 115h-190v-1036q0 -129 27 -156q37 -43 116 -43h47v-37h-573v37h47q87 0 123 51q20 33 20 148v1036h-161q-95 0 -136 -15q-121 -44 -133 -219h-39z" />
<glyph unicode="U" horiz-adv-x="1478" d="M10 1319v37h588v-37h-53q-84 0 -119 -53q-27 -38 -27 -150v-592q0 -237 68 -340q88 -131 285 -131q124 0 223 51q117 56 160 156q36 85 36 307v549q0 127 -26 160q-40 43 -117 43h-51v37h479v-37h-49q-78 0 -125 -68q-20 -29 -20 -143v-551q0 -183 -29 -285 q-95 -305 -494 -305q-394 0 -499 285q-31 91 -31 334v530q0 102 -23 146q-34 57 -125 57h-51z" />
<glyph unicode="V" horiz-adv-x="1478" d="M18 1319v37h553v-37q-149 -15 -149 -90q0 -49 47 -158l344 -795l320 787q47 115 47 160q0 73 -127 94l-17 2v37h418v-37q-75 -12 -108 -45q-55 -49 -95 -152l-473 -1153h-37l-508 1170q-43 93 -55 108q-51 63 -160 72z" />
<glyph unicode="W" horiz-adv-x="1933" d="M27 1319v37h501v-37h-22q-111 0 -111 -82q0 -40 45 -162l267 -760l225 648l-72 204q-40 119 -129 146q-18 6 -59 6v37h524v-37h-33q-108 0 -108 -88q0 -56 45 -178l260 -738l258 748q45 122 45 172q0 84 -152 84v37h406v-37q-97 0 -150 -90q-10 -17 -61 -166l-381 -1094 h-39l-307 867l-307 -867h-37l-404 1127q-49 133 -59 147q-37 76 -145 76z" />
<glyph unicode="X" horiz-adv-x="1478" d="M14 0v37q53 6 88 20q123 51 246 205l322 406l-269 391q-88 128 -147 178q-95 79 -211 82v37h627v-37q-140 -3 -140 -78q0 -33 48 -106l208 -312l240 305q61 76 61 115q0 50 -49 68q-19 8 -96 8v37h481v-37q-55 -3 -92 -19q-99 -40 -225 -204l-270 -344l290 -435 q96 -143 134 -184q90 -90 194 -96v-37h-582v37q47 3 68 6q36 9 53 35q15 15 15 37q0 19 -11 45q-3 12 -55 88l-229 348l-285 -365q-61 -79 -61 -116q0 -72 129 -78v-37h-482z" />
<glyph unicode="Y" horiz-adv-x="1478" d="M18 1319v37h580v-37h-29q-47 0 -84 -21q-43 -21 -43 -67q0 -34 62 -129l282 -438l267 417q59 95 59 142q0 60 -55 84q-27 12 -80 12v37h473v-37h-27q-83 0 -168 -88q-42 -49 -100 -141l-328 -515v-339q0 -124 29 -156q40 -43 121 -43h43v-37h-576v37h48q86 0 122 51 q23 38 23 148v319l-373 569q-71 104 -78 111q-33 36 -108 74q-23 10 -60 10z" />
<glyph unicode="Z" horiz-adv-x="1251" d="M27 0v37l870 1239h-434q-179 0 -232 -92q-27 -53 -47 -166h-37l25 338h1006l-891 -1274h557q139 0 213 74q54 57 104 209l33 -7l-64 -358h-1103z" />
<glyph unicode="[" horiz-adv-x="516" d="M123 -20v1239q0 35 24 62.5t56 27.5h149q41 0 41 -43v-103q0 -39 -41 -39h-24q-22 0 -25 -12.5t4 -39.5t6 -42v-862q0 -11 -3 -26.5t-5.5 -26t-3 -21t6 -15.5t20.5 -5h24q41 0 41 -37v-105q0 -43 -41 -43h-149q-32 0 -56 27.5t-24 63.5z" />
<glyph unicode="\" horiz-adv-x="565" d="M0 1194h160l381 -1194h-146z" />
<glyph unicode="]" horiz-adv-x="516" d="M123 37q0 37 41 37h24q14 0 20.5 5t6 15.5t-3 21t-5.5 26t-3 26.5v862q-1 15 6 42t4 39.5t-25 12.5h-24q-41 0 -41 39v103q0 43 41 43h149q32 0 56 -27.5t24 -62.5v-1239q0 -36 -24 -63.5t-56 -27.5h-149q-41 0 -41 43v105z" />
<glyph unicode="^" horiz-adv-x="788" d="M27 436l315 701h109l317 -701h-119l-252 568l-252 -568h-118z" />
<glyph unicode="_" horiz-adv-x="890" d="M102 31v114q0 12 8.5 21.5t20.5 9.5h627q13 0 21.5 -9.5t8.5 -21.5v-114q0 -31 -30 -31h-627q-13 0 -21 8t-8 23z" />
<glyph unicode="`" horiz-adv-x="681" d="M119 1391h223l104 -347h-34z" />
<glyph unicode="a" horiz-adv-x="909" d="M74 217q0 142 172 244q107 65 338 145v37q0 106 -29 166q-44 74 -141 74q-53 0 -95 -31q-45 -29 -45 -76v-6l2 -57v-6q0 -91 -83 -91q-84 0 -84 97q0 114 116 178q92 51 217 51q230 0 285 -137q21 -43 21 -176v-312q0 -181 20 -198q17 -10 29 -10q14 0 26 6q23 13 80 73 v-57q-110 -149 -215 -149q-101 0 -104 149q-147 -113 -178 -125q-52 -24 -115 -24q-99 0 -158 65.5t-59 169.5zM242 264q0 -68 40 -118t101 -50q76 0 201 101v350q-145 -57 -199 -86q-143 -82 -143 -197z" />
<glyph unicode="b" horiz-adv-x="1024" d="M-4 1311l274 110h45v-663q132 184 287 184q166 0 266 -145q84 -128 84 -303q0 -246 -161 -394q-138 -129 -310 -129q-158 0 -331 117v948q0 217 -31 242q-15 12 -39 12q-31 0 -72 -14zM315 145q100 -100 217 -100q126 0 193 141q55 110 55 250q0 143 -57 242 q-71 123 -201 123q-97 0 -207 -107v-549z" />
<glyph unicode="c" horiz-adv-x="909" d="M70 457q0 203 118 342q119 143 320 143q108 0 199 -55q106 -63 106 -164q0 -84 -90 -84q-61 0 -88 37q-13 17 -25 82q-12 63 -43.5 91t-95.5 28q-119 0 -184 -111q-56 -92 -56 -223q0 -154 68 -275q86 -139 231 -139q96 0 177 66q54 45 104 167l31 -14 q-35 -160 -125 -260q-108 -117 -258 -117q-185 0 -293 156q-96 140 -96 330z" />
<glyph unicode="d" horiz-adv-x="1024" d="M68 420q0 206 118 356q128 168 326 168q121 0 199 -78v170q0 217 -31 242q-15 12 -39 12q-29 0 -70 -14l-16 35l276 110h46v-1059q0 -218 30 -245q15 -15 39 -15q23 0 72 19l10 -35l-270 -115h-47v131q-125 -131 -269 -131q-170 0 -278 144q-96 131 -96 305zM252 500 q0 -159 63 -273q77 -145 220 -145q92 0 176 90v473q0 93 -62 164q-59 74 -149 74q-128 0 -195 -138q-53 -109 -53 -245z" />
<glyph unicode="e" horiz-adv-x="909" d="M76 446q0 212 102 347q118 151 322 151q163 0 256 -106q96 -107 96 -267h-637q0 -173 82 -295q89 -141 256 -141q184 0 264 219l35 -20q-24 -148 -125 -252q-108 -111 -254 -111q-184 0 -299 148q-98 131 -98 327zM215 629h426q-3 82 -20 125q-52 118 -179 118 q-100 0 -157 -75q-58 -67 -70 -168z" />
<glyph unicode="f" horiz-adv-x="681" d="M80 844v71h176v62q0 271 178 385q86 57 205 57q104 0 192 -67q60 -48 60 -101q0 -31 -26.5 -57.5t-55.5 -26.5q-43 0 -115 90q-69 91 -137 91q-96 0 -123 -101q-12 -53 -12 -266v-66h235v-71h-235v-602q0 -125 29 -162q37 -43 98 -43h84v-37h-547v37h41q89 0 119 74 q10 38 10 131v602h-176z" />
<glyph unicode="g" horiz-adv-x="1024" d="M61 -252q0 49 80 152q3 3 14 14.5t37.5 39t51.5 54.5q-94 58 -94 111q0 83 159 215q-174 85 -174 276q0 150 111 244q104 88 254 88q135 0 227 -63h195q43 0 49 -2q16 -10 16 -41q0 -35 -10 -41.5t-55 -6.5h-119q55 -70 55 -184q0 -146 -110 -231q-104 -78 -250 -78 q-73 0 -140 20q-75 -63 -75 -114q0 -46 82 -58q27 -3 139 -6q216 -6 266 -14q93 -12 149 -66.5t56 -140.5q0 -112 -107 -213q-157 -145 -405 -145q-197 0 -328 88q-74 50 -74 102zM205 -176q0 -47 57 -84q103 -62 289 -62q128 0 219 39q131 52 131 160q0 69 -102 90 q-41 7 -154 10q-201 5 -346 23q-94 -101 -94 -176zM309 655q0 -118 41 -202q53 -109 160 -109q172 0 172 236q0 117 -41 204q-53 111 -158 111q-90 0 -137 -78q-37 -64 -37 -162z" />
<glyph unicode="h" horiz-adv-x="1024" d="M12 1311l275 110h47v-669q82 92 135 129q82 61 170 61q164 0 217 -176q18 -64 18 -236v-323q0 -85 15 -119q20 -51 123 -51v-37h-451v37h21q104 0 125 76q2 8 2 94v323q0 108 -4 144q-21 147 -144 147q-105 0 -227 -131v-483q0 -78 2 -88q15 -82 145 -82v-37h-454v37 q90 0 116 39q25 36 25 131v829q0 217 -31 242q-15 12 -43 12q-24 0 -67 -14z" />
<glyph unicode="i" horiz-adv-x="569" d="M59 831l277 111h45v-735q0 -131 49 -158q24 -12 88 -12v-37h-444v37q103 0 127 55q12 27 12 115v352q0 156 -8 195q-12 57 -64 57q-24 0 -67 -16zM195 1321q0 43 29.5 71.5t72.5 28.5t71.5 -28.5t28.5 -71.5t-28.5 -72.5t-71.5 -29.5t-72.5 29.5t-29.5 72.5z" />
<glyph unicode="j" horiz-adv-x="569" d="M-158 -342q0 35 25.5 60.5t56.5 25.5q29 0 56 -12q18 -11 69 -56q44 -38 78 -38q61 0 82 79q8 39 8 189v651q0 151 -6 195q-15 59 -66 59q-25 0 -65 -16l-17 36l279 111h43v-922q0 -198 -80 -319q-91 -143 -282 -143q-64 0 -111 20q-70 27 -70 80zM195 1321q0 43 30 72.5 t74 29.5q43 0 71.5 -29.5t28.5 -72.5q0 -44 -28.5 -73t-71.5 -29t-73.5 29.5t-30.5 72.5z" />
<glyph unicode="k" horiz-adv-x="1024" d="M16 0v37q114 0 138 49q16 37 16 115v833q0 218 -31 246q-15 12 -43 12q-18 0 -61 -16l-19 35l273 110h47v-1214q0 -134 47 -158q21 -12 100 -12v-37h-467zM336 510l231 213q74 68 86 86q9 12 9 25q0 48 -70 51v30h397v-30q-144 -3 -256 -109l-235 -217l235 -297 q93 -118 131 -156q49 -46 84 -61q24 -8 88 -8v-37h-444v37q63 3 63 41q0 23 -39 74z" />
<glyph unicode="l" horiz-adv-x="569" d="M61 1311l273 110h45v-1214q0 -130 51 -156q25 -14 96 -14v-37h-448v37q99 0 123 55q12 30 12 115v831q0 214 -29 240q-15 12 -41 12q-27 0 -65 -14z" />
<glyph unicode="m" horiz-adv-x="1593" d="M16 831l277 111h43v-194q92 95 119 114q95 80 198 80q188 0 232 -194q86 98 139 135q83 59 180 59q157 0 219 -160q23 -61 23 -182v-393q0 -89 12 -119q20 -51 125 -51v-37h-450v37h18q104 0 125 74q4 20 4 96v393q0 114 -27 160q-40 63 -125 63q-104 0 -235 -125l-2 -12 l2 -43v-436q0 -78 2 -88q15 -82 145 -82v-37h-462v37q124 0 145 72q4 20 4 98v393q0 225 -156 225q-52 0 -106 -28q-83 -47 -129 -99v-491q0 -131 49 -158q27 -12 100 -12v-37h-452v37q101 0 125 55q12 30 12 115v350q0 156 -8 195q-12 59 -64 59q-22 0 -65 -16z" />
<glyph unicode="n" horiz-adv-x="1024" d="M12 831l277 111h43v-192q158 192 307 192q153 0 215 -160q20 -56 20 -184v-391q0 -131 52 -158q24 -12 90 -12v-37h-455v37h21q104 0 125 76q4 20 4 94v375q0 237 -144 237q-118 0 -235 -129v-483q0 -92 10 -115q27 -55 137 -55v-37h-452v37h20q79 0 103 49q16 37 16 121 v340q0 225 -31 250q-14 14 -41 14q-24 0 -67 -16z" />
<glyph unicode="o" horiz-adv-x="1024" d="M70 449q0 124 59 245q61 124 161.5 186t221.5 62q206 0 334 -158q106 -130 106 -309q0 -131 -57 -248q-61 -127 -162 -191.5t-231 -64.5q-206 0 -332 166q-100 135 -100 312zM256 532q0 -170 59 -309q79 -180 230 -180q223 0 223 354q0 247 -106 385q-72 97 -181 97 q-124 0 -182 -119q-43 -87 -43 -228z" />
<glyph unicode="p" horiz-adv-x="1024" d="M-6 -401h24q88 0 115 47q19 36 19 135v864q0 130 -33 150q-15 12 -47 12q-27 0 -62 -14l-10 32l281 113h36v-213q129 217 293 217q168 0 262 -147q82 -128 82 -303q0 -239 -137 -394q-112 -127 -280 -127q-132 0 -220 82v-278q0 -65 5 -90q15 -86 151 -86v-37h-479v37z M317 324q0 -104 11 -146q17 -66 74 -105.5t130 -39.5q129 0 193 125q51 92 51 239q0 209 -92 324q-66 78 -152 78q-44 0 -96 -25q-36 -19 -119 -108v-342z" />
<glyph unicode="q" horiz-adv-x="1024" d="M68 418q0 217 125 366q134 158 346 158q115 0 190 -63q58 27 113 63h32v-1178q0 -48 5 -83q9 -47 47 -68q22 -14 98 -14v-37h-463v37h21q95 0 116 55q13 29 13 110v396q-157 -189 -301 -189q-163 0 -258 148q-84 131 -84 299zM236 489q0 -149 61 -253q76 -123 215 -123 q114 0 199 108v430q0 104 -53 162.5t-150 58.5q-144 0 -215 -127q-57 -99 -57 -256z" />
<glyph unicode="r" horiz-adv-x="681" d="M12 831l279 111h41v-205q114 205 235 205q52 0 89.5 -31.5t37.5 -79.5q0 -39 -25 -65.5t-63 -26.5q-28 0 -78 35t-63 35q-57 0 -133 -156v-440q0 -96 35 -136t125 -40v-37h-469v37q118 0 139 72q6 18 6 98v475q-6 129 -76 129q-26 0 -69 -16z" />
<glyph unicode="s" horiz-adv-x="796" d="M100 678q0 117 79.5 190.5t199.5 73.5q51 0 131 -22q49 -15 68 -15q27 0 45 37h32v-311h-32q-29 117 -78 178q-61 76 -170 76q-57 0 -105 -31q-53 -35 -53 -88q0 -107 160 -184l145 -70q203 -102 203 -262q0 -124 -92 -201q-90 -78 -213 -78q-84 0 -193 31q-38 10 -55 10 q-23 0 -35 -26h-33v327h33q24 -119 92 -196q77 -86 193 -86q64 0 110 39t46 100q0 80 -86 145q-40 34 -164 93q-107 52 -158 100q-70 67 -70 170z" />
<glyph unicode="t" horiz-adv-x="569" d="M20 846v33q126 51 216 198q16 26 63 140h31v-302h215v-69h-215v-594q0 -152 92 -152q76 0 110 82h39q-70 -196 -229 -196q-113 0 -156 98q-20 44 -20 145v617h-146z" />
<glyph unicode="u" horiz-adv-x="1024" d="M2 879v36h322v-612q0 -209 151 -209q99 0 227 131v518q0 84 -34 111q-28 22 -113 25v36h311v-555q0 -217 33 -243q15 -15 39 -15q27 0 70 19l14 -35l-274 -115h-46v195q-90 -96 -137 -131q-82 -64 -174 -64q-160 0 -213 160q-20 67 -20 199v407q0 102 -56 129 q-24 13 -79 13h-21z" />
<glyph unicode="v" horiz-adv-x="1024" d="M16 879v36h433v-36h-29q-80 0 -80 -70q0 -34 20 -84l213 -506l215 526q23 61 23 84q0 17 -8 25q-19 25 -96 25v36h299v-36q-50 -3 -72 -21q-37 -29 -64 -100l-325 -787h-41l-328 774q-39 91 -92 117q-12 7 -68 17z" />
<glyph unicode="w" horiz-adv-x="1478" d="M12 879v36h385v-36q-86 -6 -86 -62q0 -23 17 -76l196 -526l197 428l-51 135q-21 59 -64 84q-19 14 -82 17v36h437v-36q-123 -3 -123 -76q0 -25 8 -41l209 -526l192 505q21 53 21 86q0 49 -97 52v36h289v-36q-88 -12 -129 -117l-305 -791h-41l-229 586l-267 -586h-36 l-295 770q-25 68 -54.5 96.5t-91.5 41.5z" />
<glyph unicode="x" horiz-adv-x="1024" d="M27 879v36h432v-36q-74 0 -74 -52q0 -13 68 -122l61 -105l78 105q72 104 72 124q0 50 -72 50v36h307v-36q-48 -3 -82 -27q-52 -36 -135 -147l-127 -168l231 -328q67 -98 86 -117q52 -52 127 -55v-37h-432v37q88 0 88 55q0 25 -63 117l-133 197l-148 -197 q-67 -88 -67 -109q0 -60 90 -63v-37h-299v37q37 3 61 24q39 26 129 148l193 256l-174 252q-61 86 -88 112q-56 50 -129 50z" />
<glyph unicode="y" horiz-adv-x="1024" d="M12 879v36h426v-36h-20q-90 0 -90 -68q0 -44 32 -109l224 -460l204 506q19 43 19 79q0 34 -33 45q-18 7 -59 7v36h297v-36q-63 -6 -101 -62q-9 -14 -34 -76l-373 -913q-44 -110 -119 -182q-88 -88 -190 -88q-56 0 -96 31t-40 81q0 92 103 92q34 0 90 -20q43 -16 49 -16 q75 0 137 151l66 160l-330 690q-46 94 -88 125q-21 15 -74 27z" />
<glyph unicode="z" horiz-adv-x="909" d="M41 0v37l606 809h-301q-68 0 -96 -4q-99 -21 -111 -180h-39l9 253h768v-36l-617 -811h336q86 0 117 8q58 15 86 69q15 30 24 136h35l-8 -281h-809z" />
<glyph unicode="{" horiz-adv-x="573" d="M82 539v114q0 14 10 23.5t25 9.5h28q33 0 33 31l2 504q0 35 25 62.5t57 27.5h148q41 0 41 -43v-103q0 -39 -41 -39h-23q-15 0 -21 -5t-6 -15t2.5 -21t6 -26t2.5 -27v-862q0 -11 -3.5 -26.5t-6 -26t-2.5 -21t6.5 -15.5t21.5 -5h23q41 0 41 -37v-105q0 -43 -41 -43h-148 q-32 0 -57 28t-25 63l-2 491q0 31 -33 31h-28q-35 0 -35 35z" />
<glyph unicode="|" horiz-adv-x="507" d="M164 31v1249q0 14 9 22.5t20 8.5h120q13 0 22 -8.5t9 -22.5v-1249q0 -14 -9 -22.5t-22 -8.5h-120q-11 0 -20 8.5t-9 22.5z" />
<glyph unicode="}" horiz-adv-x="571" d="M123 39q0 37 41 37h22q15 0 21.5 5t6.5 15.5t-2.5 21t-5.5 26t-3 26.5v862q-1 11 2 26.5t5.5 26.5t3 21t-6 15t-21.5 5h-22q-41 0 -41 39v103q0 43 41 43h147q32 0 57 -27.5t25 -62.5l2 -504q0 -31 33 -31h29q15 0 25 -9.5t10 -23.5v-114q0 -35 -35 -35h-29 q-33 0 -33 -31l-2 -491q0 -35 -25 -63t-57 -28h-147q-41 0 -41 43v105z" />
<glyph unicode="~" horiz-adv-x="1112" d="M20 471q123 217 310 217q63 0 121 -22q11 -5 48.5 -23t65.5 -31q171 -59 209 -59q118 0 209 156l98 -64q-135 -237 -311 -237q-103 0 -238 75q-125 70 -202 70q-70 0 -127 -51q-43 -37 -107 -131z" />
<glyph unicode="&#xa2;" horiz-adv-x="874" d="M111 387q0 213 133 334q101 88 231 88q30 0 53 -2l119 328h64l-123 -344q155 -70 155 -175q0 -71 -77 -71q-51 0 -74 33q-15 18 -23 59q-7 45 -14 65l-197 -538q77 -53 142 -53q110 0 174 73q18 26 67 125l27 -10q-79 -319 -330 -319q-66 0 -137 30l-121 -334h-59 l133 365q-143 134 -143 346zM248 457q0 -117 65 -244l195 526q-33 11 -51 11q-110 0 -164 -97q-45 -77 -45 -196z" />
<glyph unicode="&#xa3;" horiz-adv-x="874" d="M51 90q0 59 40 96t102 37q28 0 71 -6q1 4 2 17.5t2 19.5v29q0 75 -18 280h-166v82h166q-12 126 -12 170q0 225 159 324q68 45 158 45q83 0 145 -45q72 -51 72 -129q0 -27 -20.5 -49.5t-46.5 -22.5q-34 0 -54 33q-11 19 -14 69q-5 50 -29 73.5t-73 23.5q-156 0 -156 -240 q0 -47 10 -160q1 -6 8 -92h221v-82h-221q2 -27 2 -57q0 -150 -53 -307q178 -57 191 -60q52 -10 88 -10q140 0 180 137l31 -8q-15 -113 -72 -188q-69 -90 -174 -90q-76 0 -150 45q-26 16 -129 92q-67 -137 -159 -137q-44 0 -72.5 31.5t-28.5 78.5zM100 96q0 -67 56 -67 q71 0 98 118q-41 23 -72 23q-82 0 -82 -74z" />
<glyph unicode="&#xa5;" horiz-adv-x="874" d="M2 301v61h363v125l-13 31h-350v62h322l-183 424q-26 61 -49 88q-34 34 -90 34v33h377v-33q-103 -6 -103 -53q0 -11 15 -49l184 -444l182 430q17 49 17 65q0 46 -72 49q-12 0 -22 2v33h294v-33q-52 0 -73 -18q-40 -34 -74 -113l-182 -415h329v-62h-358l-6 -14v-142h364 v-61h-364v-92q0 -78 2 -84q11 -90 111 -90h34v-35h-440v35h27q101 0 116 71q5 25 5 103v92h-363z" />
<glyph unicode="&#xa8;" horiz-adv-x="583" d="M49 1051q0 37 27 64.5t65 27.5t65 -27t27 -65t-27 -65.5t-65 -27.5q-37 0 -64.5 27.5t-27.5 65.5zM350 1051q0 38 27 65t65 27t65.5 -27t27.5 -65t-27.5 -65.5t-65.5 -27.5q-37 0 -64.5 27.5t-27.5 65.5z" />
<glyph unicode="&#xa9;" horiz-adv-x="1335" d="M61 580q0 160 84 307q83 143 224 221t299 78q162 0 305 -82q144 -79 221 -219q80 -145 80 -305q0 -163 -82 -306q-80 -140 -223 -220.5t-301 -80.5q-163 0 -306 82q-141 81 -221 223t-80 302zM115 580q0 -148 73 -279q74 -128 204.5 -201t275.5 -73q147 -5 278 73.5 t206.5 208.5t70.5 271q4 110 -42.5 215t-124.5 180.5t-181.5 119.5t-206.5 40q-148 0 -278 -75t-202 -202q-73 -131 -73 -278zM276 575q0 172 127 287q121 109 299 109q63 0 158 -33q21 -6 31 -6q28 0 43 37h35l16 -238h-33q-62 201 -260 201q-139 0 -215 -107 q-59 -83 -59 -225q0 -354 282 -354q166 0 269 139l30 -16q-119 -174 -327 -174q-169 0 -281 106q-115 109 -115 274z" />
<glyph unicode="&#xaa;" horiz-adv-x="565" d="M-6 911q0 93 129 170q61 37 217 99q0 86 -14 118q-21 58 -93 58q-94 0 -94 -88q0 -86 -57 -86q-55 0 -55 59q0 74 84 115q67 28 149 28q164 0 205 -96q12 -30 12 -108v-217q0 -56 2 -62q6 -27 25 -27q12 0 57 31v-49q-103 -74 -147 -74q-59 0 -74 97q-128 -93 -215 -93 q-52 0 -91.5 37.5t-39.5 87.5zM133 958q0 -36 26 -61t62 -25q46 0 119 43v228q-207 -71 -207 -185z" />
<glyph unicode="&#xab;" horiz-adv-x="1024" d="M63 465l388 469h57l-244 -469l244 -473h-57zM508 465l393 469h60l-244 -469l244 -473h-60z" />
<glyph unicode="&#xad;" horiz-adv-x="661" d="M61 608v115q0 13 8 22t21 9h479q13 0 22 -9.5t9 -21.5v-115q0 -30 -31 -30h-479q-29 0 -29 30z" />
<glyph unicode="&#xae;" horiz-adv-x="1331" d="M59 580q0 251 177 428q178 178 430 178t428 -176q178 -175 178 -430q0 -252 -178 -430q-177 -177 -428 -177q-250 0 -430 177q-177 180 -177 430zM113 580q0 -231 161 -392t392 -161q227 0 391 159q162 162 162 394q0 231 -162 393t-391 162q-230 0 -394 -164 q-159 -163 -159 -391zM319 213v29q62 0 76 26q15 18 15 82v475q0 56 -11 74q-16 23 -69 23v30h329q102 0 172 -43q82 -52 82 -147q0 -141 -188 -191l178 -256q49 -70 103 -73v-29h-156l-252 346h-66v-264q0 -53 101 -53v-29h-314zM532 596q244 0 244 156q0 71 -49 117 t-123 46q-34 0 -72 -14v-305z" />
<glyph unicode="&#xb2;" horiz-adv-x="487" d="M102 1040v19q0 52 41 96q42 45 101 45q55 0 98 -43t43 -104v-95q0 -33 -12 -55l-137 -239q-5 -5 -5 -11q0 -14 17 -14h119q18 0 18 -25v-51q0 -22 -20 -22h-240q-21 0 -21 26v49q0 16 21 60l145 250q15 24 15 59v64q0 49 -41 49q-43 0 -43 -49v-7q0 -22 -19 -22h-57 q-23 0 -23 20z" />
<glyph unicode="&#xb3;" horiz-adv-x="491" d="M102 686v6q0 25 27 25h47q27 0 27 -25v-10q0 -20 11.5 -31.5t29.5 -11.5q19 0 31 12t12 31v137q0 30 -20 49t-50 19h-8q-21 0 -21 20v29q0 12 13 31l59 98q4 6 4 16q0 15 -16 15h-121q-25 0 -25 24v51q0 12 7.5 19.5t19.5 7.5h233q12 0 19.5 -7.5t7.5 -19.5v-69 q0 -7 -3 -15.5t-10.5 -21.5t-13.5 -23t-19.5 -30.5t-20.5 -32.5q-5 -7 -5 -16t11 -15q26 -21 42.5 -53.5t16.5 -65.5v-149q0 -54 -39 -96q-42 -45 -104 -45q-60 0 -101 41q-41 44 -41 106z" />
<glyph unicode="&#xb4;" horiz-adv-x="583" d="M39 946l301 275q46 43 88 43q72 0 72 -60q0 -43 -66 -78l-313 -180h-82z" />
<glyph unicode="&#xb8;" horiz-adv-x="681" d="M186 -340q36 -4 50 -4q48 0 84 32.5t36 78.5q0 30 -23.5 51.5t-56.5 21.5q-16 0 -26 -2l110 178h62l-51 -79q125 -30 125 -146q0 -79 -63.5 -129.5t-151.5 -50.5q-37 0 -95 6v43z" />
<glyph unicode="&#xb9;" horiz-adv-x="425" d="M102 1034v66q0 8 21 35q23 30 33 53q7 10 18 10h66q22 0 22 -22v-615q0 -22 -22 -22h-54q-24 0 -24 22v434q0 23 -17 23q-2 0 -10.5 -3t-11.5 -3q-21 0 -21 22z" />
<glyph unicode="&#xba;" horiz-adv-x="634" d="M29 1075q0 137 80.5 223t214.5 86q124 0 204 -83.5t80 -208.5q0 -127 -88 -215q-91 -91 -211 -91q-121 0 -200 82q-80 83 -80 207zM170 1153q0 -157 70 -258q39 -57 102 -57q129 0 129 186q0 152 -72 256q-43 61 -102 61q-127 0 -127 -188z" />
<glyph unicode="&#xbb;" horiz-adv-x="1024" d="M63 -8l244 471l-244 471h60l393 -471l-393 -471h-60zM516 -8l244 471l-244 471h57l388 -471l-388 -471h-57z" />
<glyph unicode="&#xbc;" horiz-adv-x="1103" d="M102 1034v66q0 8 21 35q23 30 33 53q7 10 18 10h66q22 0 22 -22v-615q0 -22 -22 -22h-54q-24 0 -24 22v434q0 23 -17 23q-2 0 -10.5 -3t-11.5 -3q-21 0 -21 22zM246 35l366 1128q5 14 18.5 24.5t28.5 10.5h113q13 0 20.5 -10.5t4.5 -24.5l-367 -1128q-4 -13 -18.5 -24 t-28.5 -11h-113q-15 0 -22 10.5t-2 24.5zM719 121v76q0 4 4 24l72 414q6 24 28 24h51q24 0 21 -22l-72 -424q-3 -20 17 -20h8q18 0 18 16v53q0 27 25 27h43q18 0 24.5 -5t6.5 -22v-53q0 -16 16 -16q20 0 20 -23v-55q0 -17 -16 -17q-20 0 -20 -24v-54q0 -20 -23 -20h-53 q-23 0 -23 20v54q0 22 -18 22h-103q-26 0 -26 25z" />
<glyph unicode="&#xbd;" horiz-adv-x="1107" d="M102 1034v66q0 8 21 35q23 30 33 53q7 10 18 10h66q22 0 22 -22v-615q0 -22 -22 -22h-54q-24 0 -24 22v434q0 23 -17 23q-2 0 -10.5 -3t-11.5 -3q-21 0 -21 22zM246 35l366 1128q5 14 18.5 24.5t28.5 10.5h113q13 0 20.5 -10.5t4.5 -24.5l-367 -1128q-4 -13 -18.5 -24 t-28.5 -11h-113q-15 0 -22 10.5t-2 24.5zM723 500v18q0 52 41 96q42 45 100 45q56 0 99 -43t43 -104v-94q0 -33 -13 -56l-137 -239q-4 -4 -4 -10q0 -15 16 -15h119q19 0 19 -24v-51q0 -23 -21 -23h-240q-20 0 -20 27v49q0 17 20 59l146 250q14 22 14 59v64q0 49 -41 49 q-43 0 -43 -49v-6q0 -23 -18 -23h-58q-22 0 -22 21z" />
<glyph unicode="&#xbe;" horiz-adv-x="1173" d="M102 686v6q0 25 27 25h47q27 0 27 -25v-10q0 -20 11.5 -31.5t29.5 -11.5q19 0 31 12t12 31v137q0 30 -20 49t-50 19h-8q-21 0 -21 20v29q0 12 13 31l59 98q4 6 4 16q0 15 -16 15h-121q-25 0 -25 24v51q0 12 7.5 19.5t19.5 7.5h233q12 0 19.5 -7.5t7.5 -19.5v-69 q0 -7 -3 -15.5t-10.5 -21.5t-13.5 -23t-19.5 -30.5t-20.5 -32.5q-5 -7 -5 -16t11 -15q26 -21 42.5 -53.5t16.5 -65.5v-149q0 -54 -39 -96q-42 -45 -104 -45q-60 0 -101 41q-41 44 -41 106zM315 35l367 1128q5 14 18.5 24.5t28.5 10.5h113q13 0 20 -10.5t4 -24.5l-366 -1128 q-4 -13 -18.5 -24t-28.5 -11h-113q-15 0 -22.5 10.5t-2.5 24.5zM788 121v76q0 3 1 6.5t2 8.5t2 9l71 414q6 24 29 24h51q24 0 21 -22l-72 -424q-3 -20 16 -20h9q18 0 18 16v53q0 27 25 27h43q18 0 24 -5t6 -22v-53q0 -16 17 -16q20 0 20 -23v-55q0 -17 -16 -17 q-21 0 -21 -24v-54q0 -20 -22 -20h-54q-22 0 -22 20v54q0 22 -18 22h-103q-27 0 -27 25z" />
<glyph unicode="&#x2c6;" horiz-adv-x="681" d="M59 1055l191 329h182l191 -329h-31l-273 213l-229 -213h-31z" />
<glyph unicode="&#x2da;" horiz-adv-x="573" d="M86 1679q0 82 58.5 141.5t142.5 59.5q83 0 140.5 -58.5t57.5 -142.5q0 -83 -58 -140.5t-140 -57.5q-84 0 -142.5 58t-58.5 140zM197 1679q0 -38 26.5 -67t63.5 -29q38 0 65 28.5t27 67.5q0 38 -27.5 67.5t-64.5 29.5q-36 0 -63 -29t-27 -68z" />
<glyph unicode="&#x2dc;" horiz-adv-x="884" d="M45 1192q15 100 78.5 178t159.5 78q67 0 179.5 -42t145.5 -42q86 0 113 98h129q-20 -121 -78 -184q-61 -78 -174 -78q-50 0 -165.5 43t-162.5 43q-37 0 -65.5 -30t-28.5 -64h-131z" />
<glyph unicode="&#x591;" />
<glyph unicode="&#x592;" />
<glyph unicode="&#x593;" />
<glyph unicode="&#x594;" />
<glyph unicode="&#x595;" />
<glyph unicode="&#x596;" />
<glyph unicode="&#x597;" />
<glyph unicode="&#x598;" />
<glyph unicode="&#x599;" />
<glyph unicode="&#x59a;" />
<glyph unicode="&#x59b;" />
<glyph unicode="&#x59c;" />
<glyph unicode="&#x59d;" />
<glyph unicode="&#x59e;" />
<glyph unicode="&#x59f;" />
<glyph unicode="&#x5a0;" />
<glyph unicode="&#x5a1;" />
<glyph unicode="&#x5a3;" />
<glyph unicode="&#x5a4;" />
<glyph unicode="&#x5a5;" />
<glyph unicode="&#x5a6;" />
<glyph unicode="&#x5a7;" />
<glyph unicode="&#x5a8;" />
<glyph unicode="&#x5a9;" />
<glyph unicode="&#x5aa;" />
<glyph unicode="&#x5ab;" />
<glyph unicode="&#x5ac;" />
<glyph unicode="&#x5ad;" />
<glyph unicode="&#x5ae;" />
<glyph unicode="&#x5af;" />
<glyph unicode="&#x5b0;" d="M-82 -233q0 35 23 60.5t59 25.5t59 -25.5t23 -60.5q0 -37 -23 -63t-59 -26t-59 26t-23 63zM-82 -479q0 35 23 60.5t59 25.5t59 -25.5t23 -60.5q0 -37 -23 -62.5t-59 -25.5t-59 25.5t-23 62.5z" />
<glyph unicode="&#x5b1;" d="M-326 -238q0 35 23 60.5t59 25.5t59 -25.5t23 -60.5q0 -37 -23 -62.5t-59 -25.5t-59 25.5t-23 62.5zM-209 -492q0 35 23 60.5t59 25.5t59 -25.5t23 -60.5q0 -37 -23 -62.5t-59 -25.5t-59 25.5t-23 62.5zM-82 -238q0 35 23 60.5t59 25.5t59 -25.5t23 -60.5 q0 -37 -23 -62.5t-59 -25.5t-59 25.5t-23 62.5zM162 -238q0 35 23 60.5t59 25.5t59 -25.5t23 -60.5q0 -37 -23 -62.5t-59 -25.5t-59 25.5t-23 62.5zM162 -492q0 35 23 60.5t59 25.5t59 -25.5t23 -60.5q0 -37 -23 -62.5t-59 -25.5t-59 25.5t-23 62.5z" />
<glyph unicode="&#x5b2;" d="M-377 -172h492v-107h-492v107zM215 -233q0 35 23 60.5t59 25.5t59 -25.5t23 -60.5q0 -37 -23 -63t-59 -26t-59 26t-23 63zM215 -500q0 35 23 60.5t59 25.5t59 -25.5t23 -60.5q0 -37 -23 -62.5t-59 -25.5t-59 25.5t-23 62.5z" />
<glyph unicode="&#x5b3;" d="M-344 -172h471v-107h-178v-262h-113v262h-180v107zM182 -227q0 37 22.5 62.5t57.5 25.5q36 0 60 -27t24 -63q0 -37 -23.5 -60.5t-60.5 -23.5q-35 0 -57.5 25t-22.5 61zM182 -483q0 37 22.5 62.5t57.5 25.5q36 0 60 -27t24 -63q0 -37 -23.5 -60.5t-60.5 -23.5 q-35 0 -57.5 25t-22.5 61z" />
<glyph unicode="&#x5b4;" d="M-84 -238q0 36 23 61t59 25q35 0 58.5 -26.5t23.5 -63.5q0 -35 -23.5 -59.5t-58.5 -24.5q-36 0 -59 25.5t-23 62.5z" />
<glyph unicode="&#x5b5;" d="M-236 -217q0 35 23 60.5t59 25.5t59 -25.5t23 -60.5q0 -37 -23 -62.5t-59 -25.5t-59 25.5t-23 62.5zM74 -217q0 35 23 60.5t59 25.5t59 -25.5t23 -60.5q0 -37 -23 -62.5t-59 -25.5t-59 25.5t-23 62.5z" />
<glyph unicode="&#x5b6;" d="M-231 -233q0 35 22.5 60.5t58.5 25.5t59 -25.5t23 -60.5q0 -37 -23 -63t-59 -26t-58.5 25.5t-22.5 63.5zM-82 -473q0 35 23 60.5t59 25.5t59 -25.5t23 -60.5q0 -37 -23 -62.5t-59 -25.5t-59 25.5t-23 62.5zM68 -233q0 35 23 60.5t59 25.5t58.5 -25.5t22.5 -60.5 q0 -38 -22.5 -63.5t-58.5 -25.5t-59 26t-23 63z" />
<glyph unicode="&#x5b7;" d="M-246 -172h492v-107h-492v107z" />
<glyph unicode="&#x5b8;" d="M-236 -172h472v-107h-179v-262h-112v262h-181v107z" />
<glyph unicode="&#x5b9;" d="M-96 1389q0 38 28 66t66 28t66 -28t28 -66t-28 -66.5t-66 -28.5t-66 28.5t-28 66.5z" />
<glyph unicode="&#x5bb;" d="M-293 -233q0 36 22.5 61t57.5 25q36 0 60 -26.5t24 -62.5q0 -37 -23.5 -61.5t-60.5 -24.5q-35 0 -57.5 26t-22.5 63zM-80 -371q0 36 22.5 61t57.5 25q36 0 60 -26t24 -62q0 -37 -23.5 -61.5t-60.5 -24.5q-35 0 -57.5 25.5t-22.5 62.5zM133 -506q0 36 22.5 61t57.5 25 q36 0 60 -26t24 -62q0 -37 -23.5 -61.5t-60.5 -24.5q-35 0 -57.5 25.5t-22.5 62.5z" />
<glyph unicode="&#x5bc;" d="M-96 600q0 41 27 71.5t69 30.5t69 -30.5t27 -71.5q0 -43 -27 -72.5t-69 -29.5t-69 29.5t-27 72.5z" />
<glyph unicode="&#x5bd;" d="M-43 -156h84v-424h-84v424z" />
<glyph unicode="&#x5be;" horiz-adv-x="808" d="M61 608v115q0 12 8.5 21.5t20.5 9.5h627q13 0 22 -9.5t9 -21.5v-115q0 -30 -31 -30h-627q-29 0 -29 30z" />
<glyph unicode="&#x5bf;" d="M61 1044v123q0 13 8 22t21 9h342q13 0 22 -9.5t9 -21.5v-123q0 -30 -31 -30h-342q-29 0 -29 30z" />
<glyph unicode="&#x5c0;" horiz-adv-x="507" d="M164 31v1249q0 14 9 22.5t20 8.5h120q13 0 22 -8.5t9 -22.5v-1249q0 -14 -9 -22.5t-22 -8.5h-120q-11 0 -20 8.5t-9 22.5z" />
<glyph unicode="&#x5c1;" d="M-96 1389q0 38 28 66t66 28t66 -28t28 -66t-28 -66.5t-66 -28.5t-66 28.5t-28 66.5z" />
<glyph unicode="&#x5c2;" d="M-96 1389q0 38 28 66t66 28t66 -28t28 -66t-28 -66.5t-66 -28.5t-66 28.5t-28 66.5z" />
<glyph unicode="&#x5c3;" horiz-adv-x="382" d="M61 37v139q0 35 37 35h140q34 0 34 -35v-139q0 -37 -34 -37h-140q-37 0 -37 37zM61 649v139q0 35 37 35h140q34 0 34 -35v-139q0 -37 -34 -37h-140q-37 0 -37 37z" />
<glyph unicode="&#x5c4;" d="M-96 1389q0 38 28 66t66 28t66 -28t28 -66t-28 -66.5t-66 -28.5t-66 28.5t-28 66.5z" />
<glyph unicode="&#x5d0;" horiz-adv-x="716" d="M75.5 1178.5q12.5 19.5 43.5 19.5h100q19 0 28.5 -10t20.5 -39l84 -188q14 -32 40 -31.5t32 31.5l39 204q6 33 33 33h110q23 0 33 -12t4 -49l-68 -387q-5 -31 -17 -57t-20.5 -38.5t-12.5 -41.5t7 -66l115 -479q17 -68 -43 -68h-104q-19 0 -27 10t-14 39l-90 373 q-5 21 -23.5 28.5t-36 -2t-18.5 -32.5l-23 -383q-3 -33 -32 -33h-109q-22 0 -34 10.5t-11 30.5l37 655q2 33 17 65.5t28 51.5t18 52t-14 67l-92 198q-13 29 -0.5 48.5z" />
<glyph unicode="&#x5d1;" horiz-adv-x="614" d="M61 39v102q0 43 41 43h189q37 0 37 33v764q0 33 -37 33h-189q-41 0 -41 37v104q0 43 41 43h373q41 0 41 -39v-946q0 -28 25 -31q32 -6 32 -43v-100q0 -39 -38 -39h-433q-41 0 -41 39z" />
<glyph unicode="&#x5d2;" horiz-adv-x="530" d="M29 68l94 251q12 32 31 54t36.5 33.5t32.5 24t22 32.5t3 51l-29 406q-1 12 1.5 27t5 26t3 21t-5.5 15t-20 5h-25q-39 0 -39 37v104q0 43 39 43h191q41 0 41 -39v-250q0 -45 8 -151t14 -156l66 -555q6 -47 -37 -47h-109q-19 0 -26.5 9.5t-10.5 33.5l-10 70q-3 25 -29.5 26 t-37.5 -26l-25 -64q-11 -29 -20.5 -39t-28.5 -10h-92q-31 0 -42.5 18.5t-0.5 49.5z" />
<glyph unicode="&#x5d3;" horiz-adv-x="622" d="M49 1051v104q0 43 41 43h430q41 0 41 -39v-100q0 -37 -35 -43q-22 -3 -22 -31v-944q0 -41 -39 -41h-107q-43 0 -43 41v940q0 33 -36 33h-189q-41 0 -41 37z" />
<glyph unicode="&#x5d4;" horiz-adv-x="679" d="M78 41v666q0 38 43 38h104q37 0 37 -38v-666q0 -41 -37 -41h-104q-43 0 -43 41zM78 1051v104q0 43 41 43h438q41 0 41 -39v-1118q0 -41 -39 -41h-100q-43 0 -43 41v940q0 33 -37 33h-260q-41 0 -41 37z" />
<glyph unicode="&#x5d5;" horiz-adv-x="413" d="M61 1051v104q0 43 41 43h189q41 0 41 -39v-1118q0 -41 -39 -41h-109q-43 0 -43 41v879q0 11 3 26.5t5.5 26t2.5 21t-6.5 15.5t-20.5 5h-23q-41 0 -41 37z" />
<glyph unicode="&#x5d6;" horiz-adv-x="557" d="M61 1051v104q0 43 41 43h361q39 0 39 -43v-104q0 -37 -39 -37h-86q-46 0 -39 -53l129 -914q6 -47 -39 -47h-104q-39 0 -45 35l-127 893q-2 13 4 38.5t0.5 36.5t-33.5 11h-21q-41 0 -41 37z" />
<glyph unicode="&#x5d7;" horiz-adv-x="702" d="M61 1051v104q0 43 41 43h326q79 0 138 -59.5t59 -141.5v-956q0 -41 -43 -41h-97q-36 0 -36 41v940q0 33 -37 33h-88q-37 0 -37 -33v-940q0 -41 -39 -41h-94q-43 0 -43 41v879q0 12 3 27.5t6 26t4 20.5t-4.5 15t-17.5 5q-41 0 -41 37z" />
<glyph unicode="&#x5d8;" horiz-adv-x="655" d="M82 39v1120q0 39 43 39h88q39 0 39 -39v-61q0 -10 4.5 -15t12 -1t14.5 18l24 55q13 28 25 35.5t35 7.5h170q41 0 41 -39v-964q0 -82 -57 -138.5t-140 -56.5h-258q-41 0 -41 39zM252 217q0 -33 37 -33h88q37 0 37 33v606q0 12 -8 18.5t-18.5 3t-16.5 -17.5l-41 -94 q-16 -38 -51 -35q-20 1 -23.5 -2.5t-3.5 -21.5v-457z" />
<glyph unicode="&#x5d9;" horiz-adv-x="395" d="M72 1051v104q0 43 41 43h163q41 0 41 -39v-541q0 -40 -38 -40h-109q-43 0 -43 40v300q0 12 3.5 27.5t6 26t2.5 20.5t-6 15t-20 5q-41 0 -41 39z" />
<glyph unicode="&#x5da;" horiz-adv-x="620" d="M41 1051v104q0 43 41 43h260q83 0 140 -56t57 -138v-1086q0 -41 -39 -41h-107q-43 0 -43 41v1065q0 31 -33 31h-235q-41 0 -41 37z" />
<glyph unicode="&#x5db;" horiz-adv-x="612" d="M57 39v102q0 43 41 43h211q37 0 37 33v764q0 33 -37 33h-211q-41 0 -41 37v104q0 43 41 43h240q84 0 140.5 -56t56.5 -138v-809q0 -82 -56.5 -138.5t-140.5 -56.5h-240q-41 0 -41 39z" />
<glyph unicode="&#x5dc;" horiz-adv-x="628" d="M61 1053v250q0 38 43 38h105q37 0 37 -38v-74q0 -31 33 -31h217q30 0 50.5 -22t18.5 -50l-80 -874q-11 -111 -83.5 -181.5t-176.5 -70.5h-47q-41 0 -41 39v102q0 43 41 43h47q27 0 47 21.5t23 48.5l67 729q3 31 -30 31h-230q-41 0 -41 39z" />
<glyph unicode="&#x5dd;" horiz-adv-x="704" d="M59 1051v104q0 43 41 43h326q79 0 138 -59.5t59 -141.5v-958q0 -39 -41 -39h-432q-41 0 -41 39v881q0 12 3 27.5t6 26t4 20.5t-4.5 15t-17.5 5q-41 0 -41 37zM285 217q0 -33 37 -33h88q36 0 36 33v764q0 33 -36 33h-88q-37 0 -37 -33v-764z" />
<glyph unicode="&#x5de;" horiz-adv-x="692" d="M35 41l141 899q1 8 5 20t6 20.5t2.5 16.5t-6 12.5t-19.5 4.5h-41q-39 0 -39 37v104q0 43 39 43h293q81 0 137.5 -58.5t56.5 -142.5v-958q0 -39 -41 -39h-219q-37 0 -37 39v111q0 34 37 34h39q37 0 37 33v746q0 15 -8.5 25.5t-20.5 10.5q-25 0 -30 -34l-140 -932 q-6 -33 -37 -33h-114q-47 0 -41 41z" />
<glyph unicode="&#x5df;" horiz-adv-x="413" d="M57 1051v102q0 45 41 45h189q41 0 41 -39v-1239q0 -41 -39 -41h-109q-43 0 -43 41v998q0 12 3 27.5t5.5 26t2.5 20.5t-6.5 15t-20.5 5h-23q-41 0 -41 39z" />
<glyph unicode="&#x5e0;" horiz-adv-x="442" d="M31 39v102q0 43 41 43h71q11 0 19 8t8 17l2 711q0 11 3 26.5t5.5 26t2.5 21t-6.5 15.5t-20.5 5h-25q-39 0 -39 37v104q0 43 39 43h188q41 0 41 -39v-964q0 -82 -55.5 -138.5t-138.5 -56.5h-94q-41 0 -41 39z" />
<glyph unicode="&#x5e1;" horiz-adv-x="702" d="M61 1051v104q0 43 41 43h326q79 0 138 -59.5t59 -141.5v-743q0 -87 -62 -164q-78 -90 -194 -90q-109 0 -185 76q-73 76 -73 176v668q0 12 3 27.5t6 26t4 20.5t-4.5 15t-17.5 5q-41 0 -41 37zM287 254q0 -27 23.5 -51.5t58.5 -24.5q33 0 56.5 24.5t23.5 51.5v727 q0 33 -37 33h-88q-37 0 -37 -33v-727z" />
<glyph unicode="&#x5e2;" horiz-adv-x="696" d="M35 35v115q0 13 11 23.5t22 10.5h32q11 0 16.5 4t5.5 12.5t-1.5 17.5t-3.5 23.5t-2 26.5v893q0 14 9 25.5t23 11.5h109q15 0 25 -11.5t10 -25.5v-944q0 -33 37 -33h75q37 0 37 33v944q0 14 10.5 25.5t26.5 11.5h105q16 0 24 -11t8 -26v-966q0 -82 -56 -138.5t-140 -56.5 h-350q-12 0 -22.5 9t-10.5 26z" />
<glyph unicode="&#x5e3;" horiz-adv-x="704" d="M55 1051v102q0 45 41 45h482q40 0 40 -39v-1239q0 -41 -38 -41h-101q-43 0 -43 41v1061q0 33 -37 33h-82q-36 0 -36 -33v-190q0 -28 24 -31q33 -6 33 -43v-101q0 -38 -39 -38h-154q-41 0 -41 38v302q0 16 7.5 43t5.5 39t-21 12q-41 0 -41 39z" />
<glyph unicode="&#x5e4;" horiz-adv-x="694" d="M61 1051v104q0 43 41 43h469q41 0 41 -39v-907q0 -104 -75 -178t-181 -74h-196q-41 0 -41 39v102q0 43 41 43h200q26 0 48 22t22 48v727q0 19 -4 26t-20 7h-82q-37 0 -37 -33v-190q0 -28 24 -31q33 -3 33 -43v-101q0 -38 -39 -38h-153q-41 0 -41 38v304q0 12 3 27.5t6 26 t4 20.5t-4.5 15t-17.5 5q-41 0 -41 37z" />
<glyph unicode="&#x5e5;" horiz-adv-x="684" d="M63 1137q-18 61 46 61h114q19 0 27 -9.5t18 -39.5l64 -197q8 -26 31 -25t28 25l41 213q6 33 33 33h125q54 0 37 -61l-78 -369q-7 -31 -21 -56.5t-27 -39.5t-25 -34.5t-13 -40t8 -58.5l94 -320q19 -55 19 -117v-182q0 -41 -39 -41h-109q-43 0 -43 41v154q0 32 -4 52.5 t-14 45.5t-13 37z" />
<glyph unicode="&#x5e6;" horiz-adv-x="704" d="M59 1137q-18 61 45 61h115q19 0 27 -9.5t18 -39.5l64 -197q8 -26 31 -25t28 25l41 213q6 33 33 33h125q54 0 37 -61l-78 -369q-8 -37 -27.5 -67.5t-33.5 -45.5t-22.5 -46.5t5.5 -69.5l86 -310q18 -59 18 -104v-86q0 -39 -41 -39h-378q-39 0 -39 39v102q0 43 39 43h190 q10 0 14.5 8t1.5 19z" />
<glyph unicode="&#x5e7;" horiz-adv-x="694" d="M86 -82v789q0 38 43 38h104q37 0 37 -38v-510q0 -11 15 -11q22 0 45.5 19.5t27.5 50.5l66 727q3 31 -31 31h-266q-41 0 -41 37v104q0 43 41 43h434q32 0 52.5 -22t17.5 -50l-82 -870q-7 -86 -65 -153t-136 -95q-9 -4 -33.5 -6.5t-34.5 -12t-10 -36.5v-35q0 -41 -37 -41 h-104q-43 0 -43 41z" />
<glyph unicode="&#x5e8;" horiz-adv-x="636" d="M61 1051v104q0 43 41 43h260q83 0 140 -56t57 -138v-963q0 -41 -39 -41h-106q-43 0 -43 41v940q0 33 -37 33h-232q-41 0 -41 37z" />
<glyph unicode="&#x5e9;" horiz-adv-x="837" d="M82 195v964q0 39 43 39h98q37 0 37 -39v-944q0 -31 33 -31h24q35 0 19 62q-6 21 -6 39v874q0 39 43 39h98q37 0 37 -39v-874q0 -18 -6 -39q-16 -62 18 -62h25q33 0 33 31v944q0 39 43 39h96q39 0 39 -39v-964q0 -82 -59 -138.5t-144 -56.5h-270q-83 0 -142 56.5 t-59 138.5z" />
<glyph unicode="&#x5ea;" horiz-adv-x="718" d="M41 39v100q0 43 33 43h22q25 0 25 31v707q0 16 7.5 43t5 39t-22.5 12q-39 0 -39 37v104q0 43 39 43h481q41 0 41 -39v-1124q0 -17 -10 -26t-23 -9h-100q-41 0 -41 35v946q0 33 -37 33h-88q-37 0 -37 -33v-889q0 -38 -27 -65t-65 -27h-123q-41 0 -41 39z" />
<glyph unicode="&#x5f4;" horiz-adv-x="542" d="M33 1044l37 379q3 29 32 29h385q12 0 19 -9t4 -20l-90 -383q-5 -26 -37 -26h-74q-16 0 -24.5 8t-5.5 22l30 254q2 20 -10.5 29.5t-28 2t-22.5 -31.5l-74 -258q-8 -26 -37 -26h-74q-33 0 -30 30z" />
<glyph unicode="&#x2000;" horiz-adv-x="940" />
<glyph unicode="&#x2001;" horiz-adv-x="1880" />
<glyph unicode="&#x2002;" horiz-adv-x="940" />
<glyph unicode="&#x2003;" horiz-adv-x="1880" />
<glyph unicode="&#x2004;" horiz-adv-x="626" />
<glyph unicode="&#x2005;" horiz-adv-x="470" />
<glyph unicode="&#x2006;" horiz-adv-x="313" />
<glyph unicode="&#x2007;" horiz-adv-x="313" />
<glyph unicode="&#x2008;" horiz-adv-x="235" />
<glyph unicode="&#x2009;" horiz-adv-x="376" />
<glyph unicode="&#x200a;" horiz-adv-x="104" />
<glyph unicode="&#x2010;" horiz-adv-x="661" d="M61 608v115q0 13 8 22t21 9h479q13 0 22 -9.5t9 -21.5v-115q0 -30 -31 -30h-479q-29 0 -29 30z" />
<glyph unicode="&#x2011;" horiz-adv-x="661" d="M61 608v115q0 13 8 22t21 9h479q13 0 22 -9.5t9 -21.5v-115q0 -30 -31 -30h-479q-29 0 -29 30z" />
<glyph unicode="&#x2012;" horiz-adv-x="661" d="M61 608v115q0 13 8 22t21 9h479q13 0 22 -9.5t9 -21.5v-115q0 -30 -31 -30h-479q-29 0 -29 30z" />
<glyph unicode="&#x2013;" horiz-adv-x="524" d="M61 1044v123q0 13 8 22t21 9h342q13 0 22 -9.5t9 -21.5v-123q0 -30 -31 -30h-342q-29 0 -29 30z" />
<glyph unicode="&#x2014;" horiz-adv-x="808" d="M61 608v115q0 12 8.5 21.5t20.5 9.5h627q13 0 22 -9.5t9 -21.5v-115q0 -30 -31 -30h-627q-29 0 -29 30z" />
<glyph unicode="&#x2018;" horiz-adv-x="296" d="M33 1044l37 379q3 29 32 29h140q11 0 17.5 -9t4.5 -20l-90 -383q-5 -26 -37 -26h-74q-33 0 -30 30z" />
<glyph unicode="&#x2019;" horiz-adv-x="296" d="M33 1044l37 379q3 29 32 29h140q11 0 17.5 -9t4.5 -20l-90 -383q-5 -26 -37 -26h-74q-33 0 -30 30z" />
<glyph unicode="&#x201a;" horiz-adv-x="499" d="M125 -242l88 430h162l-166 -430h-84z" />
<glyph unicode="&#x201c;" horiz-adv-x="542" d="M33 1044l37 379q3 29 32 29h385q12 0 19 -9t4 -20l-90 -383q-5 -26 -37 -26h-74q-16 0 -24.5 8t-5.5 22l30 254q2 20 -10.5 29.5t-28 2t-22.5 -31.5l-74 -258q-8 -26 -37 -26h-74q-33 0 -30 30z" />
<glyph unicode="&#x201d;" horiz-adv-x="542" d="M33 1044l37 379q3 29 32 29h385q12 0 19 -9t4 -20l-90 -383q-5 -26 -37 -26h-74q-16 0 -24.5 8t-5.5 22l30 254q2 20 -10.5 29.5t-28 2t-22.5 -31.5l-74 -258q-8 -26 -37 -26h-74q-33 0 -30 30z" />
<glyph unicode="&#x201e;" horiz-adv-x="792" d="M82 559q0 10 22 84l80 260q27 84 97 84q79 0 79 -67q0 -24 -30 -82l-160 -228q-47 -71 -72 -71q-16 0 -16 20zM387 559q0 7 25 84l82 260q24 84 94 84q80 0 80 -67q0 -22 -31 -82l-160 -228q-50 -71 -69 -71q-21 0 -21 20z" />
<glyph unicode="&#x2026;" horiz-adv-x="1179" d="M41 37v139q0 35 37 35h139q35 0 35 -35v-139q0 -37 -35 -37h-139q-37 0 -37 37zM451 37v139q0 35 36 35h140q35 0 35 -35v-139q0 -37 -35 -37h-140q-36 0 -36 37zM866 37v139q0 35 37 35h139q35 0 35 -35v-139q0 -37 -35 -37h-139q-37 0 -37 37z" />
<glyph unicode="&#x202f;" horiz-adv-x="376" />
<glyph unicode="&#x2039;" horiz-adv-x="681" d="M119 465l387 469h55l-244 -469l244 -473h-55z" />
<glyph unicode="&#x203a;" horiz-adv-x="681" d="M115 -8l241 471l-241 471h55l395 -471l-395 -471h-55z" />
<glyph unicode="&#x205f;" horiz-adv-x="470" />
<glyph unicode="&#x20ac;" horiz-adv-x="1024" d="M-23 575l23 78h76v17q0 42 2 67h-101l23 78h86q34 239 164 393q144 176 375 176q171 0 340 -88v-299h-39q-27 322 -301 322q-167 0 -258 -180q-68 -127 -86 -324h589l-20 -78h-578q-2 -29 -2 -84h551l-20 -78h-529q9 -195 72 -329q88 -187 254 -187q133 0 221 70 q51 37 137 156l31 -21q-83 -132 -156 -192q-117 -97 -276 -97q-228 0 -354 193q-106 158 -121 407h-103z" />
<glyph unicode="&#x2122;" horiz-adv-x="2048" d="M225 1346v120h666v-120h-266v-695h-136v695h-264zM981 651v815h201l207 -651l198 651h197v-815h-125v684l-209 -684h-125l-217 695v-695h-127z" />
<glyph unicode="&#x25fc;" horiz-adv-x="911" d="M0 0v911h911v-911h-911z" />
<glyph unicode="&#xfb01;" horiz-adv-x="1138" d="M18 14q3 16 17 19q132 15 155 45q23 38 23 108v613h-82q-71 0 -111 43q-6 6 -2 16q3 10 13 10h182q0 122 27 183q35 87 133 149q109 68 245 68q151 0 234 -86q55 -58 55 -95q0 -35 -26 -57t-64 -22q-30 0 -49 14.5t-47 64.5q-47 121 -141 121q-75 0 -131 -59 q-62 -65 -62 -166v-115h213q96 2 213 2q135 0 135 -145v-569q0 -46 8 -54q11 -20 54 -20q32 0 53 12q8 8 22 8q17 0 17 -16q0 -14 -15 -29q-23 -29 -55 -49q-58 -37 -135 -37q-125 0 -125 158v563q0 107 -127 107h-256v-613q0 -99 37 -120q20 -16 143 -31q21 -3 21 -19 t-21 -16h-534q-17 0 -17 14z" />
<glyph unicode="&#xfb02;" horiz-adv-x="974" d="M-2 858q3 10 12 10h164q0 138 27 203q77 197 297 197q121 0 184 -84q70 55 125 55v-1083q0 -46 8 -54q11 -20 53 -20q36 0 54 12q8 8 22 8q17 0 17 -16q0 -14 -15 -29q-23 -29 -55 -49q-58 -37 -135 -37q-125 0 -125 158v670h-281v-613q0 -99 35 -120q23 -16 135 -31 q19 -3 19 -19t-19 -16h-495q-17 0 -17 14q3 16 17 19q95 12 122 42t27 111v613h-61q-73 0 -113 43q-4 11 -2 16zM348 868h283v146q-41 21 -62 73q-7 20 -14 39.5t-10 27.5t-4 9q-26 45 -82 45q-41 0 -76 -59q-35 -65 -35 -166v-115z" />
</font>
</defs>
</svg>
