<?xml version="1.0" encoding="UTF-8"?>
<svg width="32px" height="19px" viewBox="0 0 32 19" version="1.1" xmlns="http://www.w3.org/2000/svg" xmlns:xlink="http://www.w3.org/1999/xlink">
    <!-- Generator: Sketch 48.1 (47250) - http://www.bohemiancoding.com/sketch -->
    <title>payment</title>
    <desc>Created with Sketch.</desc>
    <defs></defs>
    <g id="Page-1" stroke="none" stroke-width="1" fill="none" fill-rule="evenodd">
        <g id="arrow" fill="#58595B" fill-rule="nonzero">
            <path d="M20.7753846,7.08782609 C22.2523077,7.08782609 22.4984615,6.09652174 21.7107692,5.35304348 L16.7876923,0.892173913 C16.2461538,0.396521739 16.5415385,0 17.0338462,0 L21.4646154,0 C21.9569231,0 22.3507692,0.446086957 22.8430769,0.892173913 L31.6061538,8.72347826 C31.7711202,8.86628802 31.8660136,9.07443598 31.8660136,9.29347826 C31.8660136,9.51252054 31.7711202,9.7206685 31.6061538,9.86347826 L22.8430769,17.6452174 C22.3507692,18.0417391 21.9569231,18.4713043 21.4646154,18.4713043 L17.0338462,18.4713043 C16.5415385,18.4713043 16.2133333,18.0252174 16.7876923,17.6452174 L21.7107692,13.233913 C22.5312821,12.4904348 22.4,11.5817391 20.8902564,11.5817391 L1.03384615,11.5817391 C0.493014725,11.5271909 0.0628259251,11.1009545 2.9559688e-15,10.5573913 L2.9559688e-15,8.02956522 C-0.00491007485,7.52653514 0.38698221,7.11006084 0.886153846,7.08782609 L20.7753846,7.08782609 Z" id="payment"></path>
        </g>
    </g>
</svg>