<svg width="1075" height="622" viewBox="0 0 1075 622" xmlns="http://www.w3.org/2000/svg">
    <title>Japo Site</title>
    <g fill="none">
        <path d="M298.89 92.87l23.73-23.73c.872-.872 1.212-2.142.893-3.333-.319-1.191-1.249-2.121-2.44-2.44-1.191-.319-2.461.021-3.333.893l-23.74 23.74c-.872.872-1.212 2.142-.893 3.333.319 1.191 1.249 2.121 2.44 2.44 1.191.319 2.461-.021 3.333-.893l.01-.01zM351 37.52l13.8-13.79c.872-.872 1.212-2.142.893-3.333-.319-1.191-1.249-2.121-2.44-2.44-1.191-.319-2.461.021-3.333.893l-13.78 13.79c-1.212 1.363-1.153 3.434.134 4.726 1.287 1.292 3.358 1.36 4.726.154zM327.35 31.2l6.89-6.89c1.348-1.348 1.348-3.532 0-4.88-1.348-1.348-3.532-1.348-4.88 0l-6.89 6.9c-1.348 1.348-1.348 3.532 0 4.88 1.348 1.348 3.532 1.348 4.88 0v-.01zM302.84 62.34l6.89-6.89c.872-.872 1.212-2.142.893-3.333-.319-1.191-1.249-2.121-2.44-2.44-1.191-.319-2.461.021-3.333.893l-6.85 6.89c-1.348 1.348-1.348 3.532 0 4.88 1.348 1.348 3.532 1.348 4.88 0h-.04zM340.85 73.24l9.63-9.63c.872-.872 1.212-2.142.893-3.333-.319-1.191-1.249-2.121-2.44-2.44-1.191-.319-2.461.021-3.333.893l-9.6 9.63c-.872.872-1.212 2.142-.893 3.333.319 1.191 1.249 2.121 2.44 2.44 1.191.319 2.461-.021 3.333-.893h-.03zM328.19 62c1.911 0 3.46-1.549 3.46-3.46-.006-1.903-1.551-3.442-3.453-3.44-1.903.002-3.445 1.544-3.447 3.447-.002 1.903 1.537 3.448 3.44 3.453zM380.23 93l20 20 5.25 5.25c.647.647 1.011 1.525 1.011 2.44s-.364 1.793-1.011 2.44l-7.48 7.62c-.647.647-1.525 1.011-2.44 1.011s-1.793-.364-2.44-1.011l-7.12-7.11-17.78-17.74c-10.11 7-25.27 13.91-37.08 14.82-16.19 1.25-31-3.92-41.59-14.54-16.83-16.83-19.49-44.14-6.64-68 3.29-6.86 5.89-14.55-1.3-26.56-.847-1.422-.568-3.244.665-4.348 1.233-1.104 3.075-1.18 4.395-.182 11.84 7.53 18.21 4.72 26.2 1.1 23.89-12.89 51.23-10.24 68.07 6.6 10.63 10.62 15.79 25.4 14.54 41.58-.85 11.12-3.75 22.66-11 31.66-.81.97-4.25 4.97-4.25 4.97zm-6.38 18.55l3.63 3.63-3.63-3.63zm24.36 9.19l-2.71 2.71-22.1-22.13c.46-.44.91-.88 1.37-1.33.46-.45.9-.91 1.33-1.37l22.11 22.12z"
              id="Shape" fill="#F9F6EF" fill-rule="nonzero"/>
        <path d="M289.07 41.3l.15-.32c3.2-6.72 5.49-14.21 2.52-23.74 10.2 3.47 17.49.17 24.09-2.81l.23-.11c21.2-11.49 45.32-9.34 60 5.36 2.892 2.887 5.344 6.182 7.28 9.78l-19 19c-.872.872-1.212 2.142-.893 3.333.319 1.191 1.249 2.121 2.44 2.44 1.191.319 2.461-.021 3.333-.893l17-17c6.26 18.64.49 41.94-16.42 58.84-7.893 7.982-17.724 13.778-28.53 16.82l14.43-14.48c1.348-1.348 1.348-3.532 0-4.88-1.348-1.348-3.532-1.348-4.88 0l-21.2 21.21c-13.19.76-25.89-3.36-35.14-12.6-14.69-14.69-16.84-38.8-5.37-60l-.04.05z"
              id="Shape" fill="#37b678" fill-rule="nonzero"/>
        <path d="M41.5 72.54c-10.267 17.502-15.677 37.428-15.67 57.72.006 2.919 2.371 5.284 5.29 5.29h5.32c1.969 6.778 7.513 11.918 14.42 13.37 1.766 8.932 9.596 15.372 18.7 15.38.59 0 1.18 0 1.76-.08.964 2.164 2.32 4.13 4 5.8l-42.48 63.06c-1.635 2.427-.992 5.72 1.435 7.355 2.427 1.635 5.72.992 7.355-1.435l42.91-63.76c1.4.327 2.833.492 4.27.49 1.561-.002 3.116-.197 4.63-.58.805 1.154 1.737 2.215 2.78 3.16l-31.71 73.3c-1.163 2.684.071 5.802 2.755 6.965 2.684 1.163 5.802-.071 6.965-2.755l31.51-72.82c3.645.644 7.399.21 10.8-1.25 6.118 6.296 15.743 7.604 23.32 3.17 7.574 4.433 17.195 3.124 23.31-3.17 8.286 3.55 17.925.814 23.11-6.56 1.513.384 3.069.579 4.63.58 7.59-.042 14.442-4.554 17.48-11.51.58.05 1.17.08 1.76.08 9.104-.008 16.934-6.448 18.7-15.38 6.906-1.454 12.449-6.594 14.42-13.37h5.32c1.405.003 2.753-.554 3.747-1.546.994-.992 1.553-2.339 1.553-3.744.042-34.519-15.588-67.191-42.49-88.82h19.9c2.927 0 5.3-2.373 5.3-5.3v-1.51c-.022-15.729-12.771-28.473-28.5-28.49h-136.47c-15.729.017-28.478 12.761-28.5 28.49v1.51c-.003 1.405.554 2.753 1.546 3.747.992.994 2.339 1.553 3.744 1.553h19.9c-10.735 8.656-19.821 19.178-26.82 31.06zm183.5 66.19h-.69c-1.558-.128-3.093.44-4.193 1.551-1.1 1.111-1.651 2.652-1.507 4.209v.79c-.006 4.676-3.794 8.464-8.47 8.47-1.171.001-2.33-.244-3.4-.72-1.564-.687-3.364-.577-4.832.296s-2.425 2.402-2.568 4.104c-.247 2.917-1.987 5.499-4.599 6.823-2.611 1.324-5.722 1.202-8.221-.323-1.384-.844-3.079-1.006-4.599-.441-1.519.566-2.696 1.797-3.191 3.341-1.12 3.504-4.381 5.879-8.06 5.87-2.011.016-3.961-.694-5.49-2-1.235-1.048-2.881-1.474-4.469-1.157-1.588.318-2.944 1.344-3.681 2.787-1.217 2.408-3.511 4.09-6.174 4.527-2.663.437-5.374-.424-7.296-2.317-2.059-2.025-5.361-2.025-7.42 0-1.925 1.893-4.637 2.754-7.301 2.317-2.664-.437-4.96-2.119-6.179-4.527-.736-1.444-2.093-2.471-3.682-2.787-1.589-.316-3.236.114-4.468 1.167-1.218 1.037-2.706 1.707-4.29 1.93l6.34-14.64c1.034-2.656-.217-5.654-2.832-6.786-2.615-1.133-5.658.005-6.888 2.576l-5.77 13.35-.11-.28c-.496-1.544-1.672-2.775-3.191-3.341-1.519-.566-3.214-.403-4.599.441-.478.293-.984.537-1.51.73l9.5-14.11c1.632-2.427.987-5.718-1.44-7.35-2.427-1.632-5.718-.987-7.35 1.44l-10.91 16.17c-.607-1.054-.975-2.228-1.08-3.44-.15-1.695-1.104-3.215-2.565-4.086-1.461-.871-3.252-.988-4.815-.314-1.067.475-2.222.721-3.39.72-4.676-.006-8.464-3.794-8.47-8.47v-.79c.144-1.557-.408-3.097-1.507-4.209-1.1-1.111-2.635-1.679-4.193-1.551h-.69c-2.569-.002-4.998-1.172-6.6-3.18h183.43c-1.602 2.008-4.031 3.178-6.6 3.18l.02.03zm-170.87-107.84c1.794-8.232 9.075-14.107 17.5-14.12h136.46c8.425.013 15.706 5.888 17.5 14.12h-171.46z"
              id="Shape" fill="#F9F6EF" fill-rule="nonzero"/>
        <path id="Rectangle-path" fill="#37b678" fill-rule="nonzero" d="M0 134.89h279.49v130.56h-279.49z"/>
        <path d="M470.91 78.56c0-3.314 2.686-6 6-6s6 2.686 6 6v18c0 3.314-2.686 6-6 6s-6-2.686-6-6v-18z" id="Shape"
              stroke="#F9F6EF" stroke-width="2" stroke-linecap="round" stroke-linejoin="round"/>
        <path d="M440.51 48.29c0-3.314 2.686-6 6-6s6 2.686 6 6v18c0 3.314-2.686 6-6 6s-6-2.686-6-6v-18z" id="Shape"
              fill="#F9F6EF" fill-rule="nonzero"/>
        <path d="M470.91 133.32c0-3.314 2.686-6 6-6s6 2.686 6 6v18c0 3.314-2.686 6-6 6s-6-2.686-6-6v-18z" id="Shape"
              stroke="#F9F6EF" stroke-width="2" stroke-linecap="round" stroke-linejoin="round"/>
        <path d="M441.05 110.26c0-3.314 2.686-6 6-6s6 2.686 6 6v18c0 3.314-2.686 6-6 6s-6-2.686-6-6v-18zM503 48.29c0-3.314 2.686-6 6-6s6 2.686 6 6v18c0 3.314-2.686 6-6 6s-6-2.686-6-6v-18zM503.49 110.26c0-3.314 2.686-6 6-6s6 2.686 6 6v18c0 3.314-2.686 6-6 6s-6-2.686-6-6v-18z"
              id="Shape" fill="#F9F6EF" fill-rule="nonzero"/>
        <path d="M470.91 20.86c0-3.314 2.686-6 6-6s6 2.686 6 6v18c0 3.314-2.686 6-6 6s-6-2.686-6-6v-18z" id="Shape"
              stroke="#F9F6EF" stroke-width="2" stroke-linecap="round" stroke-linejoin="round"/>
        <path d="M141.66 522h9.47l-8.57 8.59c-1.036 1.038-1.033 2.719.005 3.755 1.038 1.036 2.719 1.033 3.755-.005l8.59-8.57v9.47c0 1.458 1.182 2.64 2.64 2.64 1.458 0 2.64-1.182 2.64-2.64v-10.6c2.64 1.83 6.81 2.78 10.41 2.77 5.605.016 10.984-2.209 14.94-6.18 5-5 12.62-15.18 20-26.21 7.38-11.03 14.23-22.75 17.52-30.87.391-.952.588-1.971.58-3 .006-2.633-1.301-5.095-3.486-6.565-2.184-1.47-4.958-1.753-7.394-.755-8.12 3.3-19.84 10.2-30.87 17.52-11.03 7.32-21.21 15-26.21 20-3.966 3.951-6.191 9.322-6.18 14.92 0 3.6.94 7.77 2.77 10.42h-10.61c-1.458 0-2.64 1.182-2.64 2.64 0 1.458 1.182 2.64 2.64 2.64v.03z"
              id="Shape" stroke="#F9F6EF" stroke-width="3" fill="#F9F6EF" fill-rule="nonzero" stroke-linecap="round"
              stroke-linejoin="round"/>
        <path d="M262.44 493.11c-2.28 2.46-4.44 4.77-6.39 7.09-6.75 8-9.68 16.65-8 23.84.843 4.259 3.682 7.853 7.63 9.66 5.88 2.63 12.28 1.33 17.82-3.42.7 2.302 1.727 4.491 3.05 6.5 2.812 4.549 7.778 7.317 13.125 7.317s10.313-2.769 13.125-7.317c1.327-2.012 2.357-4.204 3.06-6.51 5.54 4.76 12 6.06 17.81 3.43 3.948-1.807 6.787-5.401 7.63-9.66 1.63-7.18-1.3-15.87-8-23.84-2-2.32-4.11-4.63-6.4-7.09-7.06-7.58-15-16.08-21.83-29.33-.14-.53-.27-1-.39-1.55 16.121-2.472 28.031-16.33 28.05-32.64 0-16.1-13.46-27.21-22.37-34.56-3-2.52-7.66-6.33-7.82-7.69v-15.09c0-1.563-1.267-2.83-2.83-2.83-1.563 0-2.83 1.267-2.83 2.83v15.08c-.17 1.38-4.77 5.18-7.81 7.7-8.91 7.35-22.37 18.46-22.37 34.56.024 16.311 11.937 30.169 28.06 32.64l-.39 1.55c-6.86 13.25-14.78 21.75-21.84 29.33h-.09z"
              id="Shape" fill="#F9F6EF" fill-rule="nonzero"/>
        <path d="M299.69 449.7c.944 0 1.71-.766 1.71-1.71s-.766-1.71-1.71-1.71-1.71.766-1.71 1.71.766 1.71 1.71 1.71zM293.25 446.52c.32.581.947.925 1.608.882.662-.043 1.239-.464 1.482-1.081.242-.617.106-1.319-.35-1.801-1.393-1.872-1.104-4.501.662-6.026 1.766-1.524 4.41-1.426 6.058.226 1.541 1.531 1.744 3.953.48 5.72-.357.498-.422 1.15-.169 1.708.253.559.785.94 1.395 1 .61.06 1.206-.21 1.564-.708 2.336-3.282 1.815-7.799-1.206-10.464s-7.567-2.619-10.533.108c-2.966 2.727-3.394 7.253-.992 10.487v-.05z"
              id="Shape" stroke="#F9F6EF" stroke-width="3" fill="#fff" fill-rule="nonzero" stroke-linecap="round"
              stroke-linejoin="round"/>
        <path d="M162.59 359.93c.84 2.32 5.84 13.9 21.88 13.9 8.17 0 13.05-3.81 15.72-7 1.556-1.875 2.775-4.007 3.6-6.3l.89-.53c2.59-1.527 4.92-3.458 6.9-5.72.382-.477.481-1.122.259-1.691-.222-.57-.731-.977-1.335-1.07-.604-.093-1.212.144-1.594.621-1.781 1.98-3.864 3.668-6.17 5-3.35-3.34-10-5.66-16.24-5.66-.825.001-1.649.044-2.47.13-3.646.529-7.183 1.636-10.48 3.28-3.17 1.39-6.16 2.71-9.36 2.71-.559-.005-1.085.265-1.406.722-.322.457-.398 1.044-.204 1.568l.01.04zm12.34-1.87c2.977-1.488 6.169-2.501 9.46-3 5.7-.61 11.93 1.34 15.1 3.82-4.596 2.048-9.616 2.967-14.64 2.68-.944-.047-1.748.681-1.795 1.625-.047.944.681 1.748 1.625 1.795 4.827.259 9.656-.473 14.19-2.15-.428.673-.899 1.318-1.41 1.93-3.18 3.76-7.55 5.66-13 5.66-10.88 0-15.78-6.05-17.7-9.56 2.831-.577 5.577-1.514 8.17-2.79v-.01zM193.51 412.51c.504 5.445 3.232 10.442 7.54 13.81 3.514 2.949 7.843 4.759 12.41 5.19 3 .47 5.64.88 8.83 3.38.501.397 1.183.482 1.766.219s.971-.83 1.004-1.469c0-.78 1-19.36-8.48-27.06-3.008-2.476-6.408-4.433-10.06-5.79-2.74-1.1-4.29-1.74-5.63-4.19-.493-3.216-.527-6.485-.1-9.71.054-.448-.073-.899-.353-1.254-.28-.355-.689-.583-1.137-.636h-.23c-.857.003-1.58.64-1.69 1.49-.457 3.358-.457 6.762 0 10.12-3.036 4.732-4.415 10.339-3.92 15.94l.05-.04zm5-10.76c.681 2.412 1.585 4.756 2.7 7 1.495 3.087 3.421 5.945 5.72 8.49.667.621 1.703.61 2.357-.025.653-.635.695-1.67.093-2.355-2.072-2.331-3.809-4.939-5.16-7.75-.705-1.413-1.319-2.869-1.84-4.36.89.47 1.84.85 2.83 1.25 3.335 1.234 6.441 3.015 9.19 5.27 6 4.91 7.09 15.81 7.23 21.15-2.394-1.212-4.991-1.975-7.66-2.25-3.36-.52-6.54-1-10.77-4.46-3.589-2.801-5.864-6.958-6.29-11.49-.313-3.552.24-7.128 1.61-10.42l-.01-.05zM151.81 416.68c2.39 3.08 5.28 5.737 8.55 7.86 2.41 1.67 3.78 2.62 4.56 5.28-.205 3.26-.879 6.473-2 9.54-.242.581-.145 1.248.252 1.736s1.03.719 1.648.601c.618-.118 1.121-.566 1.31-1.166 1.168-3.18 1.898-6.503 2.17-9.88 3.998-3.952 6.573-9.118 7.32-14.69.703-5.42-.86-10.89-4.32-15.12-2.792-3.652-6.628-6.369-11-7.79-2.85-1.12-5.31-2.09-7.87-5.23-.325-.401-.814-.633-1.33-.63h-.34c-.625.129-1.127.596-1.3 1.21-.21.76-5.2 18.67 2.33 28.26l.02.02zm.28-24.33c2.077 1.707 4.45 3.019 7 3.87 3.17 1.25 6.15 2.42 9.53 6.72 2.889 3.523 4.198 8.081 3.62 12.6-.476 3.534-1.8 6.899-3.86 9.81-.138-2.489-.506-4.959-1.1-7.38-.782-3.34-2.035-6.552-3.72-9.54-.31-.509-.864-.82-1.46-.82-.314-.002-.623.085-.89.25-.806.492-1.061 1.544-.57 2.35 2.247 4.13 3.657 8.664 4.15 13.34-.788-.651-1.609-1.262-2.46-1.83-2.979-1.938-5.615-4.357-7.8-7.16-4.8-6.11-3.44-17-2.41-22.22l-.03.01z"
              id="Shape" fill="#F9F6EF" fill-rule="nonzero"/>
        <circle id="Oval" stroke="#37b678" cx="439.24" cy="444.91" r="85.57"/>
        <g id="Group" fill="#F9F6EF" fill-rule="nonzero">
            <path d="M447.76 518.39c.499-.501 1.178-.783 1.885-.783.707 0 1.386.282 1.885.783l6.13 6.13c1.039 1.042 1.039 2.728 0 3.77-1.042 1.039-2.728 1.039-3.77 0l-6.12-6.12c-1.039-1.042-1.039-2.728 0-3.77l-.01-.01zM425.85 496.48c.499-.501 1.178-.783 1.885-.783.707 0 1.386.282 1.885.783l6.13 6.13c1.039 1.042 1.039 2.728 0 3.77-1.042 1.039-2.728 1.039-3.77 0l-6.13-6.12c-1.039-1.042-1.039-2.728 0-3.77v-.01zM403.94 474.57c1.042-1.039 2.728-1.039 3.77 0l6.13 6.13c1.039 1.042 1.039 2.728 0 3.77-.499.501-1.178.783-1.885.783-.707 0-1.386-.282-1.885-.783l-6.13-6.13c-.501-.499-.783-1.178-.783-1.885 0-.707.282-1.386.783-1.885zM382 452.65c1.042-1.039 2.728-1.039 3.77 0l6.13 6.13c.501.499.783 1.178.783 1.885 0 .707-.282 1.386-.783 1.885-1.042 1.039-2.728 1.039-3.77 0l-6.13-6.13c-1.033-1.044-1.033-2.726 0-3.77zM360.11 430.74c.499-.501 1.178-.783 1.885-.783.707 0 1.386.282 1.885.783l6.13 6.12c.501.499.783 1.178.783 1.885 0 .707-.282 1.386-.783 1.885-.499.501-1.178.783-1.885.783-.707 0-1.386-.282-1.885-.783l-6.13-6.12c-.501-.499-.783-1.178-.783-1.885 0-.707.282-1.386.783-1.885zM425.14 520.28c1.042-1.039 2.728-1.039 3.77 0l6.13 6.13c1.039 1.042 1.039 2.728 0 3.77-1.042 1.039-2.728 1.039-3.77 0l-6.13-6.18c-.501-.499-.783-1.178-.783-1.885 0-.707.282-1.386.783-1.885v.05zM403.23 498.37c1.042-1.039 2.728-1.039 3.77 0l6.13 6.13c.501.499.783 1.178.783 1.885 0 .707-.282 1.386-.783 1.885-1.042 1.039-2.728 1.039-3.77 0l-6.13-6.13c-1.039-1.042-1.039-2.728 0-3.77zM381.32 476.45c.499-.501 1.178-.783 1.885-.783.707 0 1.386.282 1.885.783l6.13 6.13c1.039 1.042 1.039 2.728 0 3.77-1.042 1.039-2.728 1.039-3.77 0l-6.12-6.13c-1.039-1.042-1.039-2.728 0-3.77h-.01zM359.4 454.54c1.042-1.039 2.728-1.039 3.77 0l6.13 6.13c1.033 1.044 1.033 2.726 0 3.77-1.042 1.039-2.728 1.039-3.77 0l-6.13-6.13c-1.039-1.042-1.039-2.728 0-3.77zM471.8 494.36c1.042-1.039 2.728-1.039 3.77 0l6.13 6.13c.501.499.783 1.178.783 1.885 0 .707-.282 1.386-.783 1.885-1.042 1.039-2.728 1.039-3.77 0l-6.12-6.13c-1.039-1.042-1.039-2.728 0-3.77h-.01zM449.88 472.45c1.042-1.039 2.728-1.039 3.77 0l6.13 6.13c.501.499.783 1.178.783 1.885 0 .707-.282 1.386-.783 1.885-1.042 1.039-2.728 1.039-3.77 0l-6.13-6.12c-1.039-1.042-1.039-2.728 0-3.77v-.01zM428 450.53c1.042-1.039 2.728-1.039 3.77 0l6.13 6.13c.501.499.783 1.178.783 1.885 0 .707-.282 1.386-.783 1.885-.499.501-1.178.783-1.885.783-.707 0-1.386-.282-1.885-.783l-6.13-6.13c-1.039-1.042-1.039-2.728 0-3.77zM406.06 428.62c.499-.501 1.178-.783 1.885-.783.707 0 1.386.282 1.885.783l6.13 6.13c.501.499.783 1.178.783 1.885 0 .707-.282 1.386-.783 1.885-.499.501-1.178.783-1.885.783-.707 0-1.386-.282-1.885-.783l-6.12-6.13c-.501-.499-.783-1.178-.783-1.885 0-.707.282-1.386.783-1.885h-.01zM384.14 406.7c1.042-1.039 2.728-1.039 3.77 0l6.12 6.12c1.039 1.042 1.039 2.728 0 3.77-.499.501-1.178.783-1.885.783-.707 0-1.386-.282-1.885-.783l-6.12-6.13c-1.039-1.042-1.039-2.728 0-3.77v.01zM449.18 496.24c.499-.501 1.178-.783 1.885-.783.707 0 1.386.282 1.885.783l6.13 6.13c.501.499.783 1.178.783 1.885 0 .707-.282 1.386-.783 1.885-.499.501-1.178.783-1.885.783-.707 0-1.386-.282-1.885-.783l-6.13-6.14c-1.039-1.042-1.039-2.728 0-3.77v.01zM427.27 474.33c.499-.501 1.178-.783 1.885-.783.707 0 1.386.282 1.885.783l6.12 6.12c.501.499.783 1.178.783 1.885 0 .707-.282 1.386-.783 1.885-.499.501-1.178.783-1.885.783-.707 0-1.386-.282-1.885-.783l-6.12-6.13c-.501-.499-.783-1.178-.783-1.885 0-.707.282-1.386.783-1.885v.01zM405.35 452.42c1.042-1.039 2.728-1.039 3.77 0l6.12 6.13c.501.499.783 1.178.783 1.885 0 .707-.282 1.386-.783 1.885-.499.501-1.178.783-1.885.783-.707 0-1.386-.282-1.885-.783l-6.13-6.12c-1.039-1.042-1.039-2.728 0-3.77l.01-.01zM383.43 430.5c1.042-1.039 2.728-1.039 3.77 0l6.13 6.13c1.039 1.042 1.039 2.728 0 3.77-.499.501-1.178.783-1.885.783-.707 0-1.386-.282-1.885-.783l-6.13-6.13c-1.039-1.042-1.039-2.728 0-3.77zM361.52 408.59c1.042-1.039 2.728-1.039 3.77 0l6.12 6.12c1.039 1.042 1.039 2.728 0 3.77-.499.501-1.178.783-1.885.783-.707 0-1.386-.282-1.885-.783l-6.13-6.13c-.501-.499-.783-1.178-.783-1.885 0-.707.282-1.386.783-1.885l.01.01zM495.83 470.32c1.042-1.039 2.728-1.039 3.77 0l6.12 6.13c1.039 1.042 1.039 2.728 0 3.77-1.042 1.039-2.728 1.039-3.77 0l-6.13-6.13c-.501-.499-.783-1.178-.783-1.885 0-.707.282-1.386.783-1.885h.01zM473.92 448.41c1.042-1.039 2.728-1.039 3.77 0l6.13 6.12c1.039 1.042 1.039 2.728 0 3.77-1.042 1.039-2.728 1.039-3.77 0l-6.13-6.13c-.501-.499-.783-1.178-.783-1.885 0-.707.282-1.386.783-1.885v.01zM452 426.5c.499-.501 1.178-.783 1.885-.783.707 0 1.386.282 1.885.783l6.13 6.12c1.039 1.042 1.039 2.728 0 3.77-.499.501-1.178.783-1.885.783-.707 0-1.386-.282-1.885-.783l-6.13-6.12c-.504-.498-.787-1.177-.787-1.885s.284-1.387.787-1.885zM430.09 404.58c1.042-1.039 2.728-1.039 3.77 0l6.12 6.13c1.039 1.042 1.039 2.728 0 3.77-.499.501-1.178.783-1.885.783-.707 0-1.386-.282-1.885-.783l-6.13-6.13c-1.039-1.042-1.039-2.728 0-3.77h.01zM408.18 382.67c.499-.501 1.178-.783 1.885-.783.707 0 1.386.282 1.885.783l6.13 6.13c1.039 1.042 1.039 2.728 0 3.77-1.042 1.039-2.728 1.039-3.77 0l-6.12-6.13c-1.039-1.042-1.039-2.728 0-3.77h-.01zM495.12 494.13c1.042-1.039 2.728-1.039 3.77 0l6.13 6.13c.501.499.783 1.178.783 1.885 0 .707-.282 1.386-.783 1.885-.499.501-1.178.783-1.885.783-.707 0-1.386-.282-1.885-.783l-6.13-6.12c-1.039-1.042-1.039-2.728 0-3.77v-.01zM473.21 472.21c1.042-1.039 2.728-1.039 3.77 0l6.13 6.13c1.039 1.042 1.039 2.728 0 3.77-.499.501-1.178.783-1.885.783-.707 0-1.386-.282-1.885-.783l-6.13-6.11c-1.039-1.042-1.039-2.728 0-3.77v-.02zM451.3 450.3c1.042-1.039 2.728-1.039 3.77 0l6.13 6.13c1.039 1.042 1.039 2.728 0 3.77-1.042 1.039-2.728 1.039-3.77 0l-6.13-6.13c-.501-.499-.783-1.178-.783-1.885 0-.707.282-1.386.783-1.885zM429.38 428.38c1.042-1.039 2.728-1.039 3.77 0l6.13 6.13c.501.499.783 1.178.783 1.885 0 .707-.282 1.386-.783 1.885-.499.501-1.178.783-1.885.783-.707 0-1.386-.282-1.885-.783l-6.13-6.12c-.501-.499-.783-1.178-.783-1.885 0-.707.282-1.386.783-1.885v-.01zM407.47 406.47c.499-.501 1.178-.783 1.885-.783.707 0 1.386.282 1.885.783l6.13 6.13c.501.499.783 1.178.783 1.885 0 .707-.282 1.386-.783 1.885-.499.501-1.178.783-1.885.783-.707 0-1.386-.282-1.885-.783l-6.12-6.12c-.501-.499-.783-1.178-.783-1.885 0-.707.282-1.386.783-1.885l-.01-.01zM385.56 384.55c1.042-1.039 2.728-1.039 3.77 0l6.13 6.13c1.039 1.042 1.039 2.728 0 3.77-1.042 1.039-2.728 1.039-3.77 0l-6.13-6.13c-1.039-1.042-1.039-2.728 0-3.77zM498 424.37c1.042-1.039 2.728-1.039 3.77 0l6.13 6.13c1.039 1.042 1.039 2.728 0 3.77-1.042 1.039-2.728 1.039-3.77 0l-6.13-6.12c-1.039-1.042-1.039-2.728 0-3.77v-.01zM476 402.46c1.042-1.039 2.728-1.039 3.77 0l6.13 6.13c.501.499.783 1.178.783 1.885 0 .707-.282 1.386-.783 1.885-1.042 1.039-2.728 1.039-3.77 0l-6.13-6.13c-1.039-1.042-1.039-2.728 0-3.77zM454.13 380.55c1.042-1.039 2.728-1.039 3.77 0l6.13 6.13c.501.499.783 1.178.783 1.885 0 .707-.282 1.386-.783 1.885-.499.501-1.178.783-1.885.783-.707 0-1.386-.282-1.885-.783l-6.13-6.12c-.501-.499-.783-1.178-.783-1.885 0-.707.282-1.386.783-1.885v-.01zM432.21 358.63c.499-.501 1.178-.783 1.885-.783.707 0 1.386.282 1.885.783l6.13 6.13c1.039 1.042 1.039 2.728 0 3.77-.499.501-1.178.783-1.885.783-.707 0-1.386-.282-1.885-.783l-6.13-6.13c-1.039-1.042-1.039-2.728 0-3.77zM497.25 448.18c1.042-1.039 2.728-1.039 3.77 0l6.13 6.13c1.039 1.042 1.039 2.728 0 3.77-1.042 1.039-2.728 1.039-3.77 0l-6.13-6.13c-1.039-1.042-1.039-2.728 0-3.77zM475.34 426.26c1.042-1.039 2.728-1.039 3.77 0l6.12 6.13c.501.499.783 1.178.783 1.885 0 .707-.282 1.386-.783 1.885-.499.501-1.178.783-1.885.783-.707 0-1.386-.282-1.885-.783l-6.12-6.16c-.501-.499-.783-1.178-.783-1.885 0-.707.282-1.386.783-1.885v.03zM453.42 404.35c.499-.501 1.178-.783 1.885-.783.707 0 1.386.282 1.885.783l6.13 6.12c.501.499.783 1.178.783 1.885 0 .707-.282 1.386-.783 1.885-1.042 1.039-2.728 1.039-3.77 0l-6.13-6.12c-1.039-1.042-1.039-2.728 0-3.77zM431.5 382.44c1.042-1.039 2.728-1.039 3.77 0l6.12 6.12c1.039 1.042 1.039 2.728 0 3.77-.499.501-1.178.783-1.885.783-.707 0-1.386-.282-1.885-.783l-6.13-6.12c-1.039-1.042-1.039-2.728 0-3.77h.01zM409.59 360.52c1.042-1.039 2.728-1.039 3.77 0l6.13 6.13c1.039 1.042 1.039 2.728 0 3.77-1.042 1.039-2.728 1.039-3.77 0l-6.12-6.13c-.501-.499-.783-1.178-.783-1.885 0-.707.282-1.386.783-1.885h-.01z"
                  id="Shape"/>
        </g>
        <circle id="Oval" stroke="#F9F6EF" stroke-width="8" stroke-linecap="round" stroke-linejoin="round" cx="439.24"
                cy="444.91" r="85.57"/>
        <path d="M513.34 295.69c-30.27-19-78.34-31.33-132.47-31.33-51.52 0-97.56 14.11-128 31.6v.46c30.42 17.5 76.46 30.44 128 30.44 54.12 0 102.2-12.31 132.47-31.34"
              id="Shape" stroke="#37b678" stroke-linecap="round" stroke-linejoin="round"/>
        <path id="Shape" stroke="#F9F6EF" stroke-width="8" stroke-linecap="round" stroke-linejoin="round"
              d="M253.69 296.56l-15.38 8.88-15.37 8.87v-35.5l15.37 8.88zM483.53 210.2l15.37-8.88 15.37-8.87v35.5l-15.37-8.88zM513.34 295.69c-30.27-19-78.34-31.33-132.47-31.33-51.52 0-97.56 14.11-128 31.6v.46c30.42 17.5 76.46 30.44 128 30.44 54.12 0 102.2-12.31 132.47-31.34"/>
        <g id="Group" stroke="#F9F6EF" stroke-linecap="round" stroke-linejoin="round" stroke-width="5">
            <path d="M470 276.229v38.478M460 274.719v42.785M451 270.92v47.67M441 268v55M432 268v55M422 268v55M413 268v55M403 268v55M394 268v55M384 268v55M375 268v55M365 268v55M356 268v55M346 268v55M337 268v55M327 268v55M317.5 271.184v48.532M308 272.969v44.258M299 276.114v37.762M289 279.808v32.171M279.5 284.199v21.189M270 286.5v18.5M261 290.808v8.821"
                  id="Shape"/>
        </g>
        <path d="M222.94 210.9c30.27-19 78.35-31.33 132.47-31.33 51.53 0 97.56 14.11 128 31.6v.46c-30.42 17.49-76.45 30.44-128 30.44-54.12 0-102.2-12.3-132.47-31.34"
              id="Shape" stroke="#37b678" stroke-linecap="round" stroke-linejoin="round"/>
        <g id="Group" stroke="#F9F6EF" stroke-linecap="round" stroke-linejoin="round" stroke-width="8">
            <path d="M483.39 211.63s-112.29 34.37-225.19 7.47M483.39 209.2s-112.29-34.41-225.19-7.48M258.59 209.99h224.62"
                  id="Shape"/>
        </g>
        <path d="M222.94 210.9c30.27-19 78.35-31.33 132.47-31.33 51.53 0 97.56 14.11 128 31.6v.46c-30.42 17.49-76.45 30.44-128 30.44-54.12 0-102.2-12.3-132.47-31.34"
              id="Shape" stroke="#F9F6EF" stroke-width="8" stroke-linecap="round" stroke-linejoin="round"/>
        <path d="M250.4 211.37c0-2.3-.8-4.16-1.78-4.16s-1.79 1.86-1.79 4.16.8 4.16 1.79 4.16 1.78-1.87 1.78-4.16zM484.09 295.44c0-2.29-.8-4.16-1.78-4.16s-1.78 1.86-1.78 4.16.8 4.16 1.78 4.16 1.78-1.86 1.78-4.16z"
              id="Shape" fill="#F9F6EF" fill-rule="nonzero"/>
        <circle id="Oval" fill="#F9F6EF" fill-rule="nonzero" cx="71.59" cy="358.93" r="50.14"/>
        <path d="M71.59 325.66c13.105 0 24.919 7.897 29.929 20.006 5.01 12.109 2.23 26.045-7.044 35.304-9.274 9.26-23.214 12.018-35.315 6.989-12.102-5.029-19.98-16.855-19.96-29.96.028-17.869 14.521-32.34 32.39-32.34zM57.83 358.1h-12c1.69 6.32 12 0 12 0zM45.85 358h12s-10.33-6.33-12 0zM62 348.57l-8.55-8.39c-3.19 5.68 8.55 8.39 8.55 8.39zM53.57 340.11l8.55 8.39s-2.93-11.74-8.55-8.39zM71.73 344.73l-.22-12c-6.29 1.8.22 12 .22 12zM71.61 332.75l.22 12s6.17-10.45-.22-12zM81.33 348.77l8.23-8.7c-5.73-3.14-8.23 8.7-8.23 8.7zM89.63 340.14l-8.23 8.7s11.68-3.15 8.23-8.7zM85.34 358.37l12-.44c-1.92-6.26-12 .44-12 .44zM97.32 358l-12 .44s10.57 5.98 12-.44zM81.49 368l8.86 8.07c3.02-5.74-8.86-8.07-8.86-8.07zM90.27 376.19l-8.85-8.07s3.36 11.63 8.85 8.07zM72 372.25l.66 12c6.18-2.05-.66-12-.66-12zM72.52 384.21l-.66-12s-5.75 10.69.66 12zM62.22 368.56l-7.91 9c5.84 2.93 7.91-9 7.91-9zM54.23 377.49l7.91-9s-11.56 3.58-7.91 9z"
              id="Shape" fill="#37b678" fill-rule="nonzero"/>
        <circle id="Oval" fill="#F9F6EF" fill-rule="nonzero" cx="71.59" cy="481.9" r="50.14"/>
        <path d="M71.59 448.62c13.101 0 24.913 7.893 29.925 19.997 5.013 12.105 2.24 26.037-7.026 35.3-9.266 9.263-23.199 12.031-35.302 7.015-12.103-5.017-19.992-16.83-19.988-29.932.006-17.885 14.505-32.38 32.39-32.38zM57.83 481.06h-12c1.69 6.32 12 0 12 0zM45.85 481h12s-10.33-6.37-12 0zM62 471.53l-8.55-8.39c-3.19 5.68 8.55 8.39 8.55 8.39zM53.57 463.07l8.55 8.39s-2.93-11.74-8.55-8.39zM71.73 467.69l-.22-12c-6.29 1.81.22 12 .22 12zM71.61 455.71l.22 12s6.17-10.45-.22-12zM81.33 471.73l8.23-8.7c-5.73-3.14-8.23 8.7-8.23 8.7zM89.63 463.1l-8.23 8.7s11.68-3.15 8.23-8.7zM85.34 481.33l12-.44c-1.92-6.25-12 .44-12 .44zM97.32 481l-12 .44s10.57 5.94 12-.44zM81.49 491l8.86 8.07c3.02-5.78-8.86-8.07-8.86-8.07zM90.27 499.16l-8.85-8.07s3.36 11.62 8.85 8.07zM72 495.21l.66 12c6.18-2.05-.66-12-.66-12zM72.52 507.17l-.66-12s-5.75 10.69.66 12zM62.22 491.52l-7.91 9c5.84 2.93 7.91-9 7.91-9zM54.23 500.46l7.91-9s-11.56 3.54-7.91 9z"
              id="Shape" fill="#37b678" fill-rule="nonzero"/>
        <circle id="Oval" fill="#F9F6EF" fill-rule="nonzero" cx="71.59" cy="237.07" r="50.14"/>
        <path d="M71.59 203.79c17.889 0 32.39 14.501 32.39 32.39 0 17.889-14.501 32.39-32.39 32.39-17.889 0-32.39-14.501-32.39-32.39 0-8.59 3.413-16.829 9.487-22.903 6.074-6.074 14.313-9.487 22.903-9.487zM57.83 236.24h-12c1.69 6.32 12 0 12 0zM45.85 236.13h12s-10.33-6.32-12 0zM62 226.71l-8.55-8.39c-3.19 5.68 8.55 8.39 8.55 8.39zM53.57 218.25l8.55 8.39s-2.93-11.74-8.55-8.39zM71.73 222.87l-.22-12c-6.29 1.8.22 12 .22 12zM71.61 210.89l.22 12s6.17-10.45-.22-12zM81.33 226.91l8.23-8.7c-5.73-3.14-8.23 8.7-8.23 8.7zM89.63 218.27l-8.23 8.73s11.68-3.17 8.23-8.73zM85.34 236.51l12-.44c-1.92-6.26-12 .44-12 .44zM97.32 236.17l-12 .44s10.57 5.95 12-.44zM81.49 246.19l8.86 8.07c3.02-5.8-8.86-8.07-8.86-8.07zM90.27 254.33l-8.85-8.07s3.36 11.62 8.85 8.07zM72 250.38l.66 12c6.18-2.05-.66-12-.66-12zM72.52 262.35l-.66-12s-5.75 10.65.66 12zM62.22 246.7l-7.91 9c5.84 2.92 7.91-9 7.91-9zM54.23 255.63l7.91-9s-11.56 3.58-7.91 9z"
              id="Shape" fill="#37b678" fill-rule="nonzero"/>
        <path d="M178.07 320.15c0-12.89 8.17-12.89 8.17-25.77l-8.17-25.76c0-12.88 8.17-12.89 8.17-25.78s-8.17-12.9-8.17-25.8l8.17-25.8M149.3 320.15c0-12.89 8.17-12.89 8.17-25.77l-8.17-25.76c0-12.88 8.17-12.89 8.17-25.78s-8.17-12.9-8.17-25.8l8.17-25.8"
              id="Shape" stroke="#F9F6EF" stroke-width="6" stroke-linecap="round" stroke-linejoin="round"/>
        <path d="M197.47 477.68l-11.59-14.38M187.48 487.66l-11.58-14.37M177.49 497.66l-11.58-14.38" id="Shape"
              stroke="#F9F6EF" stroke-width=".5" stroke-linecap="round" stroke-linejoin="round"/>
        <path d="M256.54 226.13v-30.72" id="Shape" stroke="#F9F6EF" stroke-width="3" stroke-linecap="round"
              stroke-linejoin="round"/>
        <path id="Shape" fill="#F9F6EF" fill-rule="nonzero" d="M518.76 568.97l1.05 8.44-501.48 39.06v-12.66z"/>
        <path d="M96.38 584.8l6.33 35.9M74.29 584.8l6.33 35.9" id="Shape" stroke="#37b678" stroke-width="8"/>
        <path id="Shape" fill="#F9F6EF" fill-rule="nonzero" d="M518.76 603.82l1.05-8.45-501.48-39.06v12.67z"/>
        <path d="M96.38 587.98l6.33-35.89M74.29 587.98l6.33-35.89" id="Shape" stroke="#37b678" stroke-width="8"/>
        <path d="M58.91 479.91h-11c1.51 5.82 11 0 11 0zM47.89 479.82h11s-9.47-5.82-11 0zM62.79 471.14l-7.87-7.72c-2.98 5.23 7.87 7.72 7.87 7.72zM55 463.35l7.87 7.73s-2.71-10.81-7.87-7.73zM71.7 467.61l-.2-11c-5.79 1.61.2 11 .2 11zM71.59 456.58l.21 11s5.64-9.58-.21-11zM80.54 471.32l7.58-8c-5.28-2.9-7.58 8-7.58 8zM88.19 463.38l-7.58 8s10.75-2.88 7.58-8zM84.24 480.17l11-.4c-1.73-5.77-11 .4-11 .4zM95.26 479.86l-11 .41s9.69 5.46 11-.41zM80.69 489.07l8.15 7.43c2.79-5.33-8.15-7.43-8.15-7.43zM88.77 496.57l-8.15-7.43s3.1 10.7 8.15 7.43zM71.91 492.94l.61 11c5.73-1.84-.61-11-.61-11zM72.43 504l-.61-11s-5.29 9.74.61 11zM62.94 489.55l-7.28 8.28c5.34 2.69 7.28-8.28 7.28-8.28zM55.59 497.77l7.28-8.28s-10.64 3.29-7.28 8.28zM58.91 357.34h-11c1.51 5.82 11 0 11 0zM47.89 357.24h11s-9.47-5.81-11 0zM62.79 348.57l-7.87-7.73c-2.98 5.24 7.87 7.73 7.87 7.73zM55 340.78l7.87 7.73s-2.71-10.81-7.87-7.73zM71.7 345l-.2-11c-5.79 1.65.2 11 .2 11zM71.59 334l.21 11s5.64-9.57-.21-11zM80.54 348.75l7.58-8c-5.28-2.9-7.58 8-7.58 8zM88.19 340.81l-7.58 8s10.75-2.89 7.58-8zM84.24 357.6l11-.4c-1.73-5.77-11 .4-11 .4zM95.26 357.28l-11 .41s9.69 5.47 11-.41zM80.69 366.5l8.15 7.43c2.79-5.33-8.15-7.43-8.15-7.43zM88.77 374l-8.15-7.43s3.1 10.7 8.15 7.43zM71.91 370.37l.61 11c5.73-1.85-.61-11-.61-11zM72.43 381.38l-.61-11s-5.29 9.79.61 11zM62.94 367l-7.28 8.28c5.34 2.72 7.28-8.28 7.28-8.28zM55.59 375.2l7.28-8.28s-10.64 3.29-7.28 8.28zM58.91 234.77h-11c1.51 5.82 11 0 11 0zM47.89 234.67h11s-9.47-5.81-11 0zM62.79 226l-7.87-7.73c-2.98 5.23 7.87 7.73 7.87 7.73zM55 218.21l7.87 7.73s-2.71-10.81-7.87-7.73zM71.7 222.46l-.2-11c-5.79 1.62.2 11 .2 11zM71.59 211.43l.21 11s5.64-9.57-.21-11zM80.54 226.18l7.58-8c-5.28-2.9-7.58 8-7.58 8zM88.19 218.23l-7.58 8s10.75-2.88 7.58-8zM84.24 235l11-.4c-1.73-5.74-11 .4-11 .4zM95.26 234.71l-11 .41s9.69 5.47 11-.41zM80.69 243.93l8.15 7.43c2.79-5.36-8.15-7.43-8.15-7.43zM88.77 251.43l-8.15-7.43s3.1 10.7 8.15 7.43zM71.91 247.79l.61 11c5.73-1.79-.61-11-.61-11zM72.43 258.81l-.61-11s-5.29 9.79.61 11zM62.94 244.4l-7.28 8.28c5.34 2.7 7.28-8.28 7.28-8.28zM55.59 252.62l7.28-8.28s-10.64 3.29-7.28 8.28zM775.84 528.52l-23.73 23.73c-.872.872-1.212 2.142-.893 3.333.319 1.191 1.249 2.121 2.44 2.44 1.191.319 2.461-.021 3.333-.893l23.73-23.73c1.348-1.348 1.348-3.532 0-4.88-1.348-1.348-3.532-1.348-4.88 0zM723.71 583.87l-13.78 13.79c-1.348 1.348-1.348 3.532 0 4.88 1.348 1.348 3.532 1.348 4.88 0l13.78-13.79c.872-.872 1.212-2.142.893-3.333-.319-1.191-1.249-2.121-2.44-2.44-1.191-.319-2.461.021-3.333.893zM747.38 590.19l-6.89 6.89c-1.348 1.348-1.348 3.532 0 4.88 1.348 1.348 3.532 1.348 4.88 0l6.89-6.89c1.348-1.348 1.348-3.532 0-4.88-1.348-1.348-3.532-1.348-4.88 0zM771.9 559.05l-6.9 6.89c-1.348 1.348-1.348 3.532 0 4.88 1.348 1.348 3.532 1.348 4.88 0l6.89-6.89c.872-.872 1.212-2.142.893-3.333-.319-1.191-1.249-2.121-2.44-2.44-1.191-.319-2.461.021-3.333.893h.01zM733.88 548.15l-9.62 9.63c-1.348 1.348-1.348 3.532 0 4.88 1.348 1.348 3.532 1.348 4.88 0l9.63-9.62c.872-.872 1.212-2.142.893-3.333-.319-1.191-1.249-2.121-2.44-2.44-1.191-.319-2.461.021-3.333.893l-.01-.01zM746.54 559.39c-1.907 0-3.454 1.543-3.46 3.45.099 1.836 1.616 3.274 3.455 3.274s3.356-1.438 3.455-3.274c-.006-1.907-1.553-3.45-3.46-3.45h.01zM694.5 528.41l-20-20-5.25-5.25c-.647-.647-1.011-1.525-1.011-2.44s.364-1.793 1.011-2.44l7.59-7.58c.647-.647 1.525-1.011 2.44-1.011s1.793.364 2.44 1.011l7.12 7.12 17.72 17.74c10.11-7 25.27-13.91 37.08-14.82 16.19-1.25 31 3.91 41.59 14.54 16.83 16.83 19.49 44.13 6.64 68-3.28 6.86-5.89 14.55 1.31 26.56.847 1.422.568 3.244-.665 4.348-1.233 1.104-3.075 1.18-4.395.182-11.84-7.53-18.21-4.72-26.2-1.1-23.89 12.89-51.23 10.24-68.07-6.6-10.7-10.67-15.85-25.45-14.61-41.67.85-11.12 3.75-22.66 11-31.66.82-.99 4.26-4.93 4.26-4.93zm6.38-18.55l-3.63-3.63 3.63 3.63zm-24.36-9.19l2.71-2.71 22.11 22.12c-.46.44-.92.88-1.37 1.33-.45.45-.9.91-1.33 1.37l-22.12-22.11z"
              id="Shape" fill="#F9F6EF" fill-rule="nonzero"/>
        <path d="M785.66 580.1l-.15.32c-3.2 6.72-5.49 14.21-2.52 23.75-10.2-3.47-17.49-.17-24.09 2.81l-.23.11c-21.2 11.49-45.32 9.34-60-5.35-2.892-2.886-5.345-6.181-7.28-9.78l19-19c.872-.872 1.212-2.142.893-3.333-.319-1.191-1.249-2.121-2.44-2.44-1.191-.319-2.461.021-3.333.893l-17 17c-6.27-18.64-.49-41.94 16.41-58.84 7.912-8.005 17.772-13.813 28.61-16.85l-14.53 14.49c-1.348 1.348-1.348 3.532 0 4.88 1.348 1.348 3.532 1.348 4.88 0l21.2-21.21c13.19-.76 25.9 3.36 35.13 12.59 14.69 14.69 16.84 38.8 5.37 60l.08-.04z"
              id="Shape" fill="#37b678" fill-rule="nonzero"/>
        <path d="M1033.23 548.86c10.271-17.501 15.681-37.428 15.67-57.72-.005-2.919-2.371-5.284-5.29-5.29h-5.32c-1.971-6.776-7.514-11.916-14.42-13.37-1.766-8.932-9.596-15.372-18.7-15.38-.59 0-1.18 0-1.76.08-.963-2.164-2.319-4.131-4-5.8l42.44-63.06c1.632-2.425.99-5.713-1.435-7.345-2.425-1.632-5.713-.99-7.345 1.435l-42.91 63.76c-1.4-.327-2.833-.491-4.27-.49-1.561.003-3.116.198-4.63.58-.806-1.154-1.738-2.214-2.78-3.16l31.71-73.3c1.16-2.684-.076-5.8-2.76-6.96-2.684-1.16-5.8.076-6.96 2.76l-31.47 72.83c-1.086-.193-2.187-.29-3.29-.29-2.582-.001-5.137.523-7.51 1.54-6.119-6.296-15.746-7.6-23.32-3.16-7.571-4.439-17.194-3.134-23.31 3.16-8.286-3.55-17.925-.814-23.11 6.56-1.513-.384-3.069-.579-4.63-.58-7.59.042-14.442 4.554-17.48 11.51-.58-.05-1.17-.08-1.76-.08-9.104.008-16.934 6.448-18.7 15.38-6.906 1.454-12.449 6.594-14.42 13.37h-5.32c-2.919.006-5.284 2.371-5.29 5.29-.028 34.505 15.6 67.159 42.49 88.78h-19.9c-2.927 0-5.3 2.373-5.3 5.3v1.51c.017 15.733 12.767 28.483 28.5 28.5h136.45c15.733-.017 28.483-12.767 28.5-28.5v-1.51c.003-1.405-.554-2.753-1.546-3.747-.992-.994-2.339-1.553-3.744-1.553h-19.89c10.737-8.655 19.823-19.177 26.82-31.06l-.01.01zm-183.47-66.19h.69c1.559.131 3.096-.435 4.197-1.547 1.101-1.112 1.651-2.655 1.503-4.213v-.79c.006-4.676 3.794-8.464 8.47-8.47 1.171-.003 2.33.243 3.4.72 1.567.687 3.369.576 4.839-.299 1.47-.875 2.428-2.406 2.571-4.111.242-2.92 1.981-5.506 4.594-6.831 2.613-1.325 5.727-1.2 8.226.331 1.384.844 3.079 1.006 4.599.441 1.519-.566 2.696-1.797 3.191-3.341 1.119-3.501 4.375-5.875 8.05-5.87 2.008-.015 3.954.695 5.48 2 1.234 1.053 2.882 1.483 4.472 1.167 1.591-.316 2.95-1.343 3.688-2.787 1.217-2.408 3.511-4.09 6.174-4.527 2.663-.437 5.374.424 7.296 2.317 2.059 2.025 5.361 2.025 7.42 0 1.925-1.893 4.637-2.754 7.301-2.317 2.664.437 4.96 2.119 6.179 4.527.736 1.444 2.093 2.471 3.682 2.787 1.589.316 3.236-.114 4.468-1.167 1.218-1.037 2.706-1.707 4.29-1.93l-6.34 14.65c-1.034 2.656.217 5.654 2.832 6.786 2.615 1.133 5.658-.005 6.888-2.576l5.77-13.35.1.28c.496 1.544 1.672 2.775 3.191 3.341 1.519.566 3.214.403 4.599-.441.478-.293.984-.537 1.51-.73l-9.5 14.12c-1.056 1.57-1.194 3.584-.362 5.284.832 1.699 2.507 2.826 4.395 2.955 1.888.129 3.701-.759 4.757-2.329l10.93-16.24c.609 1.054.981 2.228 1.09 3.44.146 1.703 1.105 3.231 2.575 4.104 1.47.873 3.27.983 4.835.296 1.07-.477 2.229-.722 3.4-.72 4.676.006 8.464 3.794 8.47 8.47v.79c-.144 1.557.408 3.097 1.507 4.209 1.1 1.111 2.635 1.679 4.193 1.551h.69c2.569.002 4.998 1.172 6.6 3.18h-183.51c1.602-2.008 4.031-3.178 6.6-3.18v.02zm170.85 107.83c-1.795 8.236-9.081 14.111-17.51 14.12h-136.46c-8.429-.009-15.715-5.884-17.51-14.12h171.48z"
              id="Shape" fill="#F9F6EF" fill-rule="nonzero"/>
        <path fill="#37b678" fill-rule="nonzero" d="M795.24 355.94h279.5v130.56h-279.5z"/>
        <path d="M603.82 542.83c0 3.314-2.686 6-6 6s-6-2.686-6-6v-18c0-3.314 2.686-6 6-6s6 2.686 6 6v18z" id="Shape"
              stroke="#F9F6EF" stroke-width="2" stroke-linecap="round" stroke-linejoin="round"/>
        <path d="M634.22 573.1c0 3.314-2.686 6-6 6s-6-2.686-6-6v-18c0-3.314 2.686-6 6-6s6 2.686 6 6v18z" id="Shape"
              fill="#F9F6EF" fill-rule="nonzero"/>
        <path d="M603.82 488.08c0 3.314-2.686 6-6 6s-6-2.686-6-6v-18c0-3.314 2.686-6 6-6s6 2.686 6 6v18z" id="Shape"
              stroke="#F9F6EF" stroke-width="2" stroke-linecap="round" stroke-linejoin="round"/>
        <path d="M633.68 511.14c0 3.314-2.686 6-6 6s-6-2.686-6-6v-18c0-3.314 2.686-6 6-6s6 2.686 6 6v18zM571.78 573.1c0 3.314-2.686 6-6 6s-6-2.686-6-6v-18c0-3.314 2.686-6 6-6s6 2.686 6 6v18zM571.24 511.14c0 3.314-2.686 6-6 6s-6-2.686-6-6v-18c0-3.314 2.686-6 6-6s6 2.686 6 6v18z"
              id="Shape" fill="#F9F6EF" fill-rule="nonzero"/>
        <path d="M603.82 600.53c0 3.314-2.686 6-6 6s-6-2.686-6-6v-18c0-3.314 2.686-6 6-6s6 2.686 6 6v18z" id="Shape"
              stroke="#F9F6EF" stroke-width="2" stroke-linecap="round" stroke-linejoin="round"/>
        <path d="M933.07 99.43h-9.47l8.57-8.59c.932-1.054.882-2.652-.115-3.645-.996-.994-2.594-1.039-3.645-.105l-8.59 8.57v-9.48c0-1.461-1.184-2.645-2.645-2.645s-2.645 1.184-2.645 2.645v10.57c-2.63-1.83-6.8-2.75-10.41-2.75-5.604-.011-10.981 2.213-14.94 6.18-5 5-12.62 15.18-20 26.21-7.38 11.03-14.18 22.74-17.47 30.86-.389.952-.586 1.972-.58 3 .005 2.625 1.315 5.075 3.495 6.537 2.18 1.462 4.944 1.744 7.375.753 8.12-3.3 19.84-10.21 30.87-17.52 11.03-7.31 21.21-15 26.21-20 3.966-3.951 6.191-9.322 6.18-14.92 0-3.6-.94-7.77-2.77-10.42h10.57c1.458 0 2.64-1.182 2.64-2.64 0-1.458-1.182-2.64-2.64-2.64l.01.03z"
              id="Shape" stroke="#F9F6EF" stroke-width="3" fill="#F9F6EF" fill-rule="nonzero" stroke-linecap="round"
              stroke-linejoin="round"/>
        <path d="M812.3 128.28c2.28-2.46 4.44-4.77 6.39-7.08 6.75-8 9.67-16.65 8-23.84-.842-4.26-3.681-7.854-7.63-9.66-5.87-2.63-12.28-1.33-17.82 3.43-.699-2.302-1.726-4.491-3.05-6.5-2.812-4.549-7.778-7.317-13.125-7.317s-10.313 2.769-13.125 7.317c-1.326 2.013-2.356 4.205-3.06 6.51-5.54-4.76-12-6.06-17.81-3.43-3.949 1.806-6.788 5.4-7.63 9.66-1.63 7.18 1.29 15.87 8 23.84 2 2.31 4.12 4.63 6.4 7.08 7.06 7.58 15 16.08 21.84 29.33.14.53.27 1 .4 1.56-16.086 2.501-27.957 16.341-27.98 32.62 0 16.1 13.46 27.21 22.37 34.57 3.05 2.52 7.66 6.33 7.82 7.69v15.09c0 1.011.539 1.945 1.415 2.451s1.954.506 2.83 0c.876-.506 1.415-1.44 1.415-2.451v-15.09c.16-1.38 4.77-5.18 7.81-7.7 8.91-7.35 22.37-18.46 22.37-34.57-.024-16.306-11.933-30.159-28.05-32.63l.4-1.56c6.86-13.25 14.78-21.75 21.84-29.33l-.02.01z"
              id="Shape" fill="#F9F6EF" fill-rule="nonzero"/>
        <path d="M775 171.7c-.944 0-1.71.766-1.71 1.71s.766 1.71 1.71 1.71 1.71-.766 1.71-1.71-.766-1.71-1.71-1.71zM781.48 174.87c-.32-.581-.947-.925-1.608-.882-.662.043-1.239.464-1.482 1.081-.242.617-.106 1.319.35 1.801 1.393 1.872 1.104 4.501-.662 6.026-1.766 1.524-4.41 1.426-6.058-.226-1.541-1.531-1.744-3.953-.48-5.72.357-.498.422-1.15.169-1.708-.253-.559-.785-.94-1.395-1-.61-.06-1.206.21-1.564.708-2.336 3.282-1.815 7.799 1.206 10.464s7.567 2.619 10.533-.108c2.966-2.727 3.394-7.253.992-10.487v.05z"
              id="Shape" stroke="#F9F6EF" stroke-width="3" fill="#fff" fill-rule="nonzero" stroke-linecap="round"
              stroke-linejoin="round"/>
        <path d="M912.14 261.46c-.84-2.32-5.83-13.89-21.87-13.89-8.18 0-13.06 3.81-15.72 7-1.556 1.875-2.775 4.007-3.6 6.3l-.89.53c-2.587 1.528-4.913 3.459-6.89 5.72-.382.477-.481 1.122-.259 1.691.222.57.731.977 1.335 1.07.604.093 1.212-.144 1.594-.621 1.78-1.982 3.862-3.669 6.17-5 3.35 3.34 10 5.66 16.24 5.66.825 0 1.649-.044 2.47-.13 3.646-.532 7.184-1.643 10.48-3.29 3.17-1.39 6.16-2.71 9.36-2.71.555-.003 1.075-.275 1.393-.731.318-.455.395-1.037.207-1.559l-.02-.04zm-12.34 1.87c-2.977 1.489-6.169 2.501-9.46 3-5.7.61-11.93-1.34-15.1-3.82 4.6-2.049 9.623-2.967 14.65-2.68.944.044 1.746-.686 1.79-1.63.044-.944-.686-1.746-1.63-1.79-4.827-.259-9.656.472-14.19 2.15.427-.674.898-1.318 1.41-1.93 3.18-3.76 7.55-5.66 13-5.66 10.88 0 15.78 6.05 17.7 9.55-2.831.578-5.577 1.515-8.17 2.79v.02zM881.22 208.88c-.505-5.445-3.233-10.441-7.54-13.81-3.515-2.948-7.843-4.758-12.41-5.19-3-.47-5.64-.88-8.83-3.38-.501-.397-1.183-.482-1.766-.219s-.971.83-1.004 1.469c0 .78-1 19.36 8.48 27.06 3.008 2.476 6.408 4.433 10.06 5.79 2.74 1.1 4.29 1.74 5.63 4.19.494 3.215.528 6.485.1 9.71-.124.936.534 1.796 1.47 1.92h.22c.854-.002 1.575-.634 1.69-1.48.457-3.358.457-6.762 0-10.12 3.036-4.733 4.414-10.339 3.92-15.94h-.02zm-5 10.76c-.681-2.412-1.585-4.755-2.7-7-1.493-3.085-3.416-5.944-5.71-8.49-.657-.679-1.741-.697-2.42-.04-.679.657-.697 1.741-.04 2.42 2.072 2.331 3.808 4.939 5.16 7.75.706 1.413 1.32 2.869 1.84 4.36-.89-.47-1.84-.85-2.83-1.25-3.335-1.234-6.441-3.015-9.19-5.27-6-4.91-7.09-15.81-7.23-21.15 2.394 1.213 4.99 1.976 7.66 2.25 3.36.52 6.54 1 10.77 4.46 3.589 2.801 5.864 6.958 6.29 11.49.311 3.552-.242 7.127-1.61 10.42l.01.05zM922.92 204.72c-2.392-3.078-5.282-5.734-8.55-7.86-2.41-1.67-3.78-2.62-4.56-5.27.207-3.259.88-6.472 2-9.54.242-.581.145-1.248-.252-1.736s-1.03-.719-1.648-.601c-.618.118-1.121.566-1.31 1.166-1.168 3.18-1.898 6.504-2.17 9.88-3.998 3.952-6.573 9.118-7.32 14.69-.702 5.42.861 10.889 4.32 15.12 2.793 3.65 6.629 6.367 11 7.79 2.85 1.12 5.31 2.09 7.87 5.23.326.4.814.631 1.33.63h.34c.625-.129 1.127-.596 1.3-1.21.21-.76 5.2-18.67-2.33-28.26l-.02-.03zm-.27 24.28c-2.077-1.707-4.45-3.019-7-3.87-3.17-1.25-6.15-2.42-9.53-6.72-2.889-3.523-4.198-8.081-3.62-12.6.476-3.534 1.8-6.899 3.86-9.81.137 2.489.505 4.959 1.1 7.38.78 3.369 2.039 6.609 3.74 9.62.514.756 1.532.974 2.31.495.779-.479 1.043-1.486.6-2.285-2.238-4.142-3.635-8.686-4.11-13.37.792.652 1.616 1.263 2.47 1.83 2.979 1.938 5.615 4.358 7.8 7.16 4.8 6.11 3.44 17 2.41 22.22l-.03-.05z"
              id="Shape" fill="#F9F6EF" fill-rule="nonzero"/>
        <g id="Group" fill="#F9F6EF" fill-rule="nonzero">
            <path d="M627 103c-1.042 1.039-2.728 1.039-3.77 0l-6.12-6.12c-1.039-1.042-1.039-2.728 0-3.77 1.042-1.039 2.728-1.039 3.77 0l6.12 6.12c1.039 1.042 1.039 2.728 0 3.77zM648.88 124.91c-.499.501-1.178.783-1.885.783-.707 0-1.386-.282-1.885-.783l-6.11-6.12c-1.039-1.042-1.039-2.728 0-3.77 1.042-1.039 2.728-1.039 3.77 0l6.13 6.12c1.039 1.042 1.039 2.728 0 3.77h-.02zM670.8 146.83c-1.042 1.039-2.728 1.039-3.77 0l-6.12-6.13c-.501-.499-.783-1.178-.783-1.885 0-.707.282-1.386.783-1.885.499-.501 1.178-.783 1.885-.783.707 0 1.386.282 1.885.783l6.13 6.13c1.039 1.042 1.039 2.728 0 3.77h-.01zM692.71 168.74c-.499.501-1.178.783-1.885.783-.707 0-1.386-.282-1.885-.783l-6.13-6.13c-1.039-1.042-1.039-2.728 0-3.77 1.042-1.039 2.728-1.039 3.77 0l6.13 6.13c1.039 1.042 1.039 2.728 0 3.77zM714.62 190.65c-.499.501-1.178.783-1.885.783-.707 0-1.386-.282-1.885-.783l-6.13-6.12c-.501-.499-.783-1.178-.783-1.885 0-.707.282-1.386.783-1.885.499-.501 1.178-.783 1.885-.783.707 0 1.386.282 1.885.783l6.13 6.12c.501.499.783 1.178.783 1.885 0 .707-.282 1.386-.783 1.885zM649.59 101.11c-1.042 1.039-2.728 1.039-3.77 0l-6.13-6.11c-1.039-1.042-1.039-2.728 0-3.77 1.042-1.039 2.728-1.039 3.77 0l6.13 6.13c.501.499.783 1.178.783 1.885 0 .707-.282 1.386-.783 1.885v-.02zM671.5 123c-.499.501-1.178.783-1.885.783-.707 0-1.386-.282-1.885-.783l-6.13-6.12c-.501-.499-.783-1.178-.783-1.885 0-.707.282-1.386.783-1.885 1.042-1.039 2.728-1.039 3.77 0l6.12 6.13c.501.499.783 1.178.783 1.885 0 .707-.282 1.386-.783 1.885l.01-.01zM693.41 144.94c-.499.501-1.178.783-1.885.783-.707 0-1.386-.282-1.885-.783l-6.13-6.13c-1.039-1.042-1.039-2.728 0-3.77 1.042-1.039 2.728-1.039 3.77 0l6.12 6.13c1.039 1.042 1.039 2.728 0 3.77h.01zM715.33 166.86c-.499.501-1.178.783-1.885.783-.707 0-1.386-.282-1.885-.783l-6.13-6.13c-1.039-1.042-1.039-2.728 0-3.77 1.042-1.039 2.728-1.039 3.77 0l6.13 6.13c1.039 1.042 1.039 2.728 0 3.77zM602.93 127c-1.042 1.039-2.728 1.039-3.77 0l-6.16-6.09c-.501-.499-.783-1.178-.783-1.885 0-.707.282-1.386.783-1.885 1.042-1.039 2.728-1.039 3.77 0l6.12 6.13c1.039 1.042 1.039 2.728 0 3.77l.04-.04zM624.85 148.95c-1.042 1.039-2.728 1.039-3.77 0l-6.13-6.13c-1.039-1.042-1.039-2.728 0-3.77 1.042-1.039 2.728-1.039 3.77 0l6.12 6.12c1.039 1.042 1.039 2.728 0 3.77l.01.01zM646.76 170.86c-1.042 1.039-2.728 1.039-3.77 0l-6.13-6.13c-1.039-1.042-1.039-2.728 0-3.77.499-.501 1.178-.783 1.885-.783.707 0 1.386.282 1.885.783l6.13 6.12c1.039 1.042 1.039 2.728 0 3.77v.01zM668.67 192.78c-.499.501-1.178.783-1.885.783-.707 0-1.386-.282-1.885-.783l-6.13-6.13c-1.039-1.042-1.039-2.728 0-3.77 1.042-1.039 2.728-1.039 3.77 0l6.13 6.13c1.039 1.042 1.039 2.728 0 3.77zM690.59 214.69c-1.042 1.039-2.728 1.039-3.77 0l-6.12-6.12c-1.039-1.042-1.039-2.728 0-3.77.499-.501 1.178-.783 1.885-.783.707 0 1.386.282 1.885.783l6.13 6.13c1.039 1.042 1.039 2.728 0 3.77l-.01-.01zM625.55 125.15c-.499.501-1.178.783-1.885.783-.707 0-1.386-.282-1.885-.783l-6.12-6.15c-1.039-1.042-1.039-2.728 0-3.77 1.042-1.039 2.728-1.039 3.77 0l6.12 6.13c1.039 1.042 1.039 2.728 0 3.77v.02zM647.47 147.06c-.499.501-1.178.783-1.885.783-.707 0-1.386-.282-1.885-.783l-6.12-6.12c-.501-.499-.783-1.178-.783-1.885 0-.707.282-1.386.783-1.885.499-.501 1.178-.783 1.885-.783.707 0 1.386.282 1.885.783l6.12 6.13c.501.499.783 1.178.783 1.885 0 .707-.282 1.386-.783 1.885v-.01zM669.38 169c-1.042 1.039-2.728 1.039-3.77 0l-6.12-6.13c-.501-.499-.783-1.178-.783-1.885 0-.707.282-1.386.783-1.885 1.042-1.039 2.728-1.039 3.77 0l6.13 6.12c1.039 1.042 1.039 2.728 0 3.77l-.01.01zM691.3 190.89c-1.042 1.039-2.728 1.039-3.77 0l-6.13-6.13c-1.039-1.042-1.039-2.728 0-3.77 1.042-1.039 2.728-1.039 3.77 0l6.13 6.13c1.039 1.042 1.039 2.728 0 3.77zM713.21 212.8c-1.042 1.039-2.728 1.039-3.77 0l-6.12-6.12c-1.039-1.042-1.039-2.728 0-3.77.499-.501 1.178-.783 1.885-.783.707 0 1.386.282 1.885.783l6.13 6.13c.501.499.783 1.178.783 1.885 0 .707-.282 1.386-.783 1.885l-.01-.01zM578.9 151.07c-1.042 1.039-2.728 1.039-3.77 0l-6.13-6.13c-1.039-1.042-1.039-2.728 0-3.77 1.042-1.039 2.728-1.039 3.77 0l6.13 6.13c.501.499.783 1.178.783 1.885 0 .707-.282 1.386-.783 1.885zM600.81 173c-1.042 1.039-2.728 1.039-3.77 0l-6.13-6.12c-.501-.499-.783-1.178-.783-1.885 0-.707.282-1.386.783-1.885.499-.501 1.178-.783 1.885-.783.707 0 1.386.282 1.885.783l6.13 6.13c.501.499.783 1.178.783 1.885 0 .707-.282 1.386-.783 1.885v-.01zM622.73 194.89c-.499.501-1.178.783-1.885.783-.707 0-1.386-.282-1.885-.783l-6.13-6.12c-1.039-1.042-1.039-2.728 0-3.77 1.042-1.039 2.728-1.039 3.77 0l6.13 6.13c.501.499.783 1.178.783 1.885 0 .707-.282 1.386-.783 1.885v-.01zM644.64 216.81c-.499.501-1.178.783-1.885.783-.707 0-1.386-.282-1.885-.783l-6.12-6.13c-1.039-1.042-1.039-2.728 0-3.77.499-.501 1.178-.783 1.885-.783.707 0 1.386.282 1.885.783l6.13 6.13c1.039 1.042 1.039 2.728 0 3.77h-.01zM666.55 238.73c-1.042 1.039-2.728 1.039-3.77 0l-6.13-6.13c-1.039-1.042-1.039-2.728 0-3.77 1.042-1.039 2.728-1.039 3.77 0l6.13 6.13c1.039 1.042 1.039 2.728 0 3.77zM579.61 127.27c-1.042 1.039-2.728 1.039-3.77 0l-6.13-6.13c-.501-.499-.783-1.178-.783-1.885 0-.707.282-1.386.783-1.885 1.042-1.039 2.728-1.039 3.77 0l6.13 6.12c1.039 1.042 1.039 2.728 0 3.77v.01zM601.52 149.18c-1.042 1.039-2.728 1.039-3.77 0l-6.12-6.13c-1.039-1.042-1.039-2.728 0-3.77.499-.501 1.178-.783 1.885-.783.707 0 1.386.282 1.885.783l6.13 6.13c.501.499.783 1.178.783 1.885 0 .707-.282 1.386-.783 1.885h-.01zM623.43 171.1c-1.042 1.039-2.728 1.039-3.77 0l-6.12-6.1c-1.039-1.042-1.039-2.728 0-3.77 1.042-1.039 2.728-1.039 3.77 0l6.12 6.13c.501.499.783 1.178.783 1.885 0 .707-.282 1.386-.783 1.885v-.03zM645.35 193c-1.042 1.039-2.728 1.039-3.77 0l-6.12-6.12c-.501-.499-.783-1.178-.783-1.885 0-.707.282-1.386.783-1.885.499-.501 1.178-.783 1.885-.783.707 0 1.386.282 1.885.783l6.13 6.12c1.039 1.042 1.039 2.728 0 3.77h-.01zM667.26 214.92c-.499.501-1.178.783-1.885.783-.707 0-1.386-.282-1.885-.783l-6.13-6.13c-.501-.499-.783-1.178-.783-1.885 0-.707.282-1.386.783-1.885 1.042-1.039 2.728-1.039 3.77 0l6.13 6.13c1.039 1.042 1.039 2.728 0 3.77zM689.18 236.84c-1.042 1.039-2.728 1.039-3.77 0l-6.13-6.13c-1.039-1.042-1.039-2.728 0-3.77 1.042-1.039 2.728-1.039 3.77 0l6.13 6.13c1.039 1.042 1.039 2.728 0 3.77zM576.78 197c-1.042 1.039-2.728 1.039-3.77 0l-6.13-6.13c-1.039-1.042-1.039-2.728 0-3.77 1.042-1.039 2.728-1.039 3.77 0l6.13 6.13c1.039 1.042 1.039 2.728 0 3.77zM598.69 218.93c-1.042 1.039-2.728 1.039-3.77 0l-6.12-6.13c-.501-.499-.783-1.178-.783-1.885 0-.707.282-1.386.783-1.885 1.042-1.039 2.728-1.039 3.77 0l6.13 6.12c.501.499.783 1.178.783 1.885 0 .707-.282 1.386-.783 1.885l-.01.01zM620.6 240.84c-.499.501-1.178.783-1.885.783-.707 0-1.386-.282-1.885-.783l-6.13-6.13c-.501-.499-.783-1.178-.783-1.885 0-.707.282-1.386.783-1.885.499-.501 1.178-.783 1.885-.783.707 0 1.386.282 1.885.783l6.13 6.13c.501.499.783 1.178.783 1.885 0 .707-.282 1.386-.783 1.885zM642.52 262.76c-.499.501-1.178.783-1.885.783-.707 0-1.386-.282-1.885-.783l-6.12-6.13c-1.039-1.042-1.039-2.728 0-3.77.499-.501 1.178-.783 1.885-.783.707 0 1.386.282 1.885.783l6.13 6.13c.501.499.783 1.178.783 1.885 0 .707-.282 1.386-.783 1.885h-.01zM577.49 173.22c-1.042 1.039-2.728 1.039-3.77 0l-6.13-6.13c-1.039-1.042-1.039-2.728 0-3.77 1.042-1.039 2.728-1.039 3.77 0l6.13 6.13c1.039 1.042 1.039 2.728 0 3.77zM599.4 195.13c-.499.501-1.178.783-1.885.783-.707 0-1.386-.282-1.885-.783l-6.13-6.13c-.501-.499-.783-1.178-.783-1.885 0-.707.282-1.386.783-1.885 1.042-1.039 2.728-1.039 3.77 0l6.12 6.13c.501.499.783 1.178.783 1.885 0 .707-.282 1.386-.783 1.885h.01zM621.32 217c-1.042 1.039-2.728 1.039-3.77 0l-6.13-6.12c-1.039-1.042-1.039-2.728 0-3.77 1.042-1.039 2.728-1.039 3.77 0l6.13 6.12c1.039 1.042 1.039 2.728 0 3.77zM643.23 239c-.499.501-1.178.783-1.885.783-.707 0-1.386-.282-1.885-.783l-6.12-6.12c-1.039-1.042-1.039-2.728 0-3.77 1.042-1.039 2.728-1.039 3.77 0l6.13 6.12c1.039 1.042 1.039 2.728 0 3.77h-.01zM665.14 260.87c-.499.501-1.178.783-1.885.783-.707 0-1.386-.282-1.885-.783l-6.13-6.13c-1.039-1.042-1.039-2.728 0-3.77 1.042-1.039 2.728-1.039 3.77 0l6.12 6.13c1.039 1.042 1.039 2.728 0 3.77h.01z"
                  id="Shape"/>
        </g>
        <circle id="Oval" stroke="#F9F6EF" stroke-width="8" stroke-linecap="round" stroke-linejoin="round" cx="635.49"
                cy="176.49" r="85.57"/>
        <path d="M561.39 325.7c30.27 19 78.34 31.33 132.46 31.33 51.53 0 97.56-14.11 128-31.6v-.43c-30.42-17.49-76.46-30.44-128-30.44-54.12 0-102.2 12.31-132.46 31.34"
              id="Shape" stroke="#37b678" stroke-linecap="round" stroke-linejoin="round"/>
        <path id="Shape" stroke="#F9F6EF" stroke-width="8" stroke-linecap="round" stroke-linejoin="round"
              d="M821.04 324.83l15.38-8.87 15.37-8.88v35.5l-15.37-8.88zM591.2 411.19l-15.37 8.88-15.37 8.88v-35.510000000000005l15.37 8.88z"/>
        <g id="Group" stroke="#F9F6EF" stroke-linecap="round" stroke-linejoin="round" stroke-width="5">
            <path d="M606 306.229v38.478M616 304.719v42.785M625 300.92v47.67M635 298v55M644 298v55M654 298v55M663 298v55M673 298v55M682 298v55M692 298v55M701 298v55M711 298v55M720 298v55M730 298v55M739 298v55M749 298v55M758.5 301.184v48.532M768 302.969v44.258M777 306.114v37.762M787 309.808v32.171M796.5 314.199v21.189M806 316.5v18.5M815 320.808v8.821"
                  id="Shape"/>
        </g>
        <path d="M561.39 325.7c30.27 19 78.34 31.33 132.46 31.33 51.53 0 97.56-14.11 128-31.6v-.43c-30.42-17.49-76.46-30.44-128-30.44-54.12 0-102.2 12.31-132.46 31.34"
              id="Shape" stroke="#F9F6EF" stroke-width="8" stroke-linecap="round" stroke-linejoin="round"/>
        <path d="M851.79 410.49c-30.27 19-78.34 31.34-132.47 31.34-51.52 0-97.56-14.11-128-31.6v-.46c30.42-17.49 76.46-30.44 128-30.44 54.13 0 102.2 12.3 132.47 31.34"
              id="Shape" stroke="#37b678" stroke-linecap="round" stroke-linejoin="round"/>
        <g stroke="#F9F6EF" stroke-linecap="round" stroke-linejoin="round" stroke-width="8">
            <path d="M591.34 409.77s112.29-34.41 225.19-7.47M591.34 412.19s112.29 34.41 225.19 7.47M816.14 411.4h-224.62"
                  id="Shape"/>
        </g>
        <path d="M851.79 410.49c-30.27 19-78.34 31.34-132.47 31.34-51.52 0-97.56-14.11-128-31.6v-.46c30.42-17.49 76.46-30.44 128-30.44 54.13 0 102.2 12.3 132.47 31.34"
              id="Shape" stroke="#F9F6EF" stroke-width="8" stroke-linecap="round" stroke-linejoin="round"/>
        <path d="M824.33 410c0 2.3.8 4.16 1.78 4.16s1.79-1.86 1.79-4.16-.8-4.16-1.79-4.16-1.78 1.89-1.78 4.16zM590.65 326c0 2.29.8 4.16 1.78 4.16s1.78-1.86 1.78-4.16-.8-4.16-1.78-4.16-1.78 1.81-1.78 4.16z"
              id="Shape" fill="#F9F6EF" fill-rule="nonzero"/>
        <circle id="Oval" fill="#F9F6EF" fill-rule="nonzero" cx="1003.14" cy="262.46" r="50.14"/>
        <circle id="Oval" fill="#37b678" fill-rule="nonzero" cx="1003.14" cy="263.35" r="32.39"/>
        <path d="M1016.9 263.29h12c-1.69-6.29-12 0-12 0zM1028.88 263.4h-12s10.33 6.32 12 0zM1012.68 272.82l8.54 8.39c3.25-5.67-8.54-8.39-8.54-8.39zM1021.16 281.28l-8.55-8.39s2.94 11.74 8.55 8.39zM1003 276.66l.22 12c6.3-1.8-.22-12-.22-12zM1003.12 288.64l-.22-12s-6.13 10.45.22 12zM993.4 272.62l-8.23 8.7c5.74 3.14 8.23-8.7 8.23-8.7zM985.1 281.26l8.23-8.7s-11.68 3.14-8.23 8.7zM989.39 263l-12 .44c1.92 6.28 12-.44 12-.44zM977.41 263.36l12-.44s-10.57-5.92-12 .44zM993.25 253.35l-8.86-8.07c-3.03 5.79 8.86 8.07 8.86 8.07zM984.46 245.2l8.85 8.07s-3.31-11.63-8.85-8.07zM1002.78 249.15l-.66-12c-6.23 2.05.66 12 .66 12zM1002.22 237.18l.66 12s5.74-10.69-.66-12zM1012.52 252.83l7.91-9c-5.85-2.92-7.91 9-7.91 9zM1020.5 243.9l-7.91 9s11.56-3.58 7.91-9z"
              id="Shape" fill="#37b678" fill-rule="nonzero"/>
        <path d="M1003.14 189.64c-27.692 0-50.14-22.448-50.14-50.14s22.448-50.14 50.14-50.14 50.14 22.448 50.14 50.14c0 13.298-5.283 26.051-14.686 35.454-9.403 9.403-22.156 14.686-35.454 14.686z"
              id="Shape" fill="#F9F6EF" fill-rule="nonzero"/>
        <circle id="Oval" fill="#37b678" fill-rule="nonzero" cx="1003.14" cy="140.39" r="32.39"/>
        <path d="M1016.9 140.33h12c-1.69-6.33-12 0-12 0zM1028.88 140.44h-12s10.33 6.32 12 0zM1012.68 149.86l8.54 8.39c3.25-5.67-8.54-8.39-8.54-8.39zM1021.16 158.32l-8.55-8.39s2.94 11.74 8.55 8.39zM1003 153.7l.22 12c6.3-1.8-.22-12-.22-12zM1003.12 165.68l-.22-12s-6.13 10.45.22 12zM993.4 149.66l-8.23 8.7c5.74 3.14 8.23-8.7 8.23-8.7zM985.1 158.29l8.23-8.7s-11.68 3.15-8.23 8.7zM989.39 140.06l-12 .44c1.92 6.26 12-.44 12-.44zM977.41 140.4l12-.44s-10.57-5.96-12 .44zM993.25 130.38l-8.86-8.07c-3.03 5.79 8.86 8.07 8.86 8.07zM984.46 122.24l8.85 8.07s-3.31-11.63-8.85-8.07zM1002.78 126.18l-.66-12c-6.23 2.06.66 12 .66 12zM1002.22 114.22l.66 12s5.74-10.69-.66-12zM1012.52 129.87l7.91-9c-5.85-2.92-7.91 9-7.91 9zM1020.5 120.94l-7.91 9s11.56-3.58 7.91-9z"
              id="Shape" fill="#37b678" fill-rule="nonzero"/>
        <circle id="Oval" fill="#F9F6EF" fill-rule="nonzero" cx="1003.14" cy="384.32" r="50.14"/>
        <circle fill="#37b678" fill-rule="nonzero" cx="1003.14" cy="385.21" r="32.39"/>
        <path d="M1016.9 385.16h12c-1.69-6.33-12 0-12 0zM1028.88 385.26h-12s10.33 6.32 12 0zM1012.68 394.68l8.54 8.39c3.25-5.67-8.54-8.39-8.54-8.39zM1021.16 403.15l-8.55-8.39s2.94 11.73 8.55 8.39zM1003 398.52l.22 12c6.3-1.8-.22-12-.22-12zM1003.12 410.5l-.22-12s-6.13 10.5.22 12zM993.4 394.49l-8.23 8.7c5.74 3.14 8.23-8.7 8.23-8.7zM985.1 403.12l8.23-8.7s-11.68 3.14-8.23 8.7zM989.39 384.88l-12 .44c1.92 6.26 12-.44 12-.44zM977.41 385.22l12-.44s-10.57-5.94-12 .44zM993.25 375.21l-8.86-8.07c-3.03 5.79 8.86 8.07 8.86 8.07zM984.46 367.06l8.85 8.07s-3.31-11.62-8.85-8.07zM1002.78 371l-.66-12c-6.23 2.06.66 12 .66 12zM1002.22 359l.66 12s5.74-10.64-.66-12zM1012.52 374.69l7.91-9c-5.85-2.92-7.91 9-7.91 9zM1020.5 365.76l-7.91 9s11.56-3.58 7.91-9z"
              id="Shape" fill="#37b678" fill-rule="nonzero"/>
        <path d="M896.67 301.24c0 12.89-8.17 12.89-8.17 25.77l8.17 25.76c0 12.88-8.17 12.89-8.17 25.78s8.17 12.9 8.17 25.8-8.17 12.9-8.17 25.79M925.43 301.24c0 12.89-8.17 12.89-8.17 25.77l8.17 25.76c0 12.88-8.17 12.89-8.17 25.78s8.17 12.9 8.17 25.8-8.17 12.9-8.17 25.79"
              id="Shape" stroke="#F9F6EF" stroke-width="6" stroke-linecap="round" stroke-linejoin="round"/>
        <path d="M877.26 143.71l11.59 14.38M887.25 133.73l11.58 14.38M897.24 123.74l11.58 14.38" id="Shape"
              stroke="#F9F6EF" stroke-width=".5" stroke-linecap="round" stroke-linejoin="round"/>
        <path d="M818.19 395.27v30.72" id="Shape" stroke="#F9F6EF" stroke-width="3" stroke-linecap="round"
              stroke-linejoin="round"/>
        <path id="Shape" fill="#F9F6EF" fill-rule="nonzero" d="M555.97 52.42l-1.05-8.44 501.48-39.06v12.66z"/>
        <path d="M978.36 36.59l-6.34-35.89M1000.44 36.59l-6.33-35.89" id="Shape" stroke="#37b678" stroke-width="8"/>
        <path id="Shape" fill="#F9F6EF" fill-rule="nonzero" d="M555.97 17.58l-1.05 8.44 501.48 39.06v-12.66z"/>
        <path d="M978.36 33.41l-6.34 35.9M1000.44 33.41l-6.33 35.9" id="Shape" stroke="#37b678" stroke-width="8"/>
        <path d="M991.59 139h-11c1.5 5.83 11 0 11 0zM980.56 138.91h11s-9.47-5.81-11 0zM995.47 130.24l-7.87-7.72c-2.99 5.22 7.87 7.72 7.87 7.72zM987.66 122.45l7.87 7.73s-2.69-10.81-7.87-7.73zM1004.37 126.71l-.2-11c-5.79 1.61.2 11 .2 11zM1004.27 115.67l.2 11s5.64-9.57-.2-11zM1013.22 130.42l7.58-8c-5.29-2.9-7.58 8-7.58 8zM1020.86 122.48l-7.58 8s10.72-2.89 7.58-8zM1016.91 139.27l11-.4c-1.72-5.77-11 .4-11 .4zM1027.94 139l-11 .41s9.68 5.42 11-.41zM1013.36 148.17l8.15 7.43c2.79-5.33-8.15-7.43-8.15-7.43zM1021.45 155.67l-8.15-7.43s3.09 10.7 8.15 7.43zM1004.59 152l.61 11c5.72-1.81-.61-11-.61-11zM1005.1 163.05l-.61-11s-5.28 9.79.61 11zM995.62 148.64l-7.28 8.28c5.38 2.7 7.28-8.28 7.28-8.28zM988.27 156.87l7.28-8.28s-10.64 3.28-7.28 8.28zM991.59 263.4h-11c1.5 5.82 11 0 11 0zM980.56 263.3h11s-9.47-5.81-11 0zM995.47 254.63l-7.87-7.72c-2.99 5.22 7.87 7.72 7.87 7.72zM987.66 246.84l7.87 7.73s-2.69-10.81-7.87-7.73zM1004.37 251.09l-.2-11c-5.79 1.62.2 11 .2 11zM1004.27 240.06l.2 11s5.64-9.57-.2-11zM1013.22 254.81l7.58-8c-5.29-2.9-7.58 8-7.58 8zM1020.86 246.86l-7.58 8s10.72-2.86 7.58-8zM1016.91 263.65l11-.4c-1.72-5.76-11 .4-11 .4zM1027.94 263.34l-11 .41s9.68 5.47 11-.41zM1013.36 272.56l8.15 7.43c2.79-5.33-8.15-7.43-8.15-7.43zM1021.45 280.06l-8.15-7.43s3.09 10.7 8.15 7.43zM1004.59 276.42l.61 11c5.72-1.84-.61-11-.61-11zM1005.1 287.44l-.61-11s-5.28 9.79.61 11zM995.62 273l-7.28 8.28c5.38 2.72 7.28-8.28 7.28-8.28zM988.27 281.25l7.28-8.28s-10.64 3.29-7.28 8.28zM991.59 386.8h-11c1.5 5.82 11 0 11 0zM980.56 386.7h11s-9.47-5.81-11 0zM995.47 378l-7.87-7.72c-2.99 5.26 7.87 7.72 7.87 7.72zM987.66 370.24l7.87 7.73s-2.69-10.81-7.87-7.73zM1004.37 374.49l-.2-11c-5.79 1.62.2 11 .2 11zM1004.27 363.46l.2 11s5.64-9.57-.2-11zM1013.22 378.21l7.58-8c-5.29-2.9-7.58 8-7.58 8zM1020.86 370.26l-7.58 8s10.72-2.88 7.58-8zM1016.91 387.06l11-.41c-1.72-5.76-11 .41-11 .41zM1027.94 386.74l-11 .41s9.68 5.47 11-.41zM1013.36 396l8.15 7.43c2.79-5.37-8.15-7.43-8.15-7.43zM1021.45 403.46l-8.15-7.46s3.09 10.73 8.15 7.46zM1004.59 399.83l.61 11c5.72-1.83-.61-11-.61-11zM1005.1 410.84l-.61-11s-5.28 9.79.61 11zM995.62 396.43l-7.28 8.28c5.38 2.7 7.28-8.28 7.28-8.28zM988.27 404.66l7.28-8.28s-10.64 3.28-7.28 8.28z"
              fill="#F9F6EF" fill-rule="nonzero"/>
    </g>
</svg>