<svg width="30" height="30" viewBox="0 0 30 30" xmlns="http://www.w3.org/2000/svg">
    <title>Japo Phone Number</title>
    <path d="M29.63 23.435c-.056.398-.105.795-.174 1.193-.228 1.432-1.096 2.683-2.358 3.398-1.043.626-2.181 1.076-3.37 1.333-.776.153-1.575.153-2.351 0-2.01-.38-3.96-1.028-5.798-1.926-2.622-1.247-5.023-2.913-7.109-4.933-1.784-1.748-3.39-3.669-4.793-5.735-1.641-2.416-2.786-5.134-3.37-7.995-.02-.15-.055-.297-.105-.44-.11-.388-.155-.791-.133-1.193-.03-.767.101-1.533.384-2.247.312-.867.705-1.703 1.172-2.498.636-1.13 1.744-1.916 3.021-2.142.509-.105 1.033-.147 1.549-.216.225-.036.454.033.621.188.19.154.357.335.495.537.453.76.872 1.549 1.319 2.309.565.963 1.144 1.912 1.716 2.867.146.239.275.488.384.747.149.33.1.715-.126.998-.184.252-.392.486-.621.698-.74.656-1.5 1.298-2.24 1.947-.15.133-.29.278-.419.433-.27.289-.344.711-.188 1.074.175.42.373.83.593 1.228 1.026 1.867 2.313 3.577 3.823 5.079 1.706 1.697 3.673 3.11 5.826 4.186l.307.133c.439.221.971.124 1.305-.237.321-.328.621-.698.928-1.019.544-.614 1.074-1.235 1.626-1.849.196-.235.459-.406.753-.488.349-.066.711.01 1.005.209.781.44 1.549.893 2.33 1.34.928.537 1.856 1.06 2.791 1.612.398.237.767.537 1.144.809l.056.126v.523l.007-.049z"
          fill="#F9F6EF"/>
</svg>