<svg width="30" height="30" viewBox="0 0 30 30" xmlns="http://www.w3.org/2000/svg">
    <title>Japo Facebook</title>
    <path d="M.29 24.789v-19.251c.065-.376.151-.748.256-1.115.54-1.763 1.953-3.121 3.735-3.591.301-.089.613-.134.914-.212h19.199c.323.078.647.123.97.223 1.82.493 3.242 1.916 3.735 3.736.089.301.145.613.223.915v19.295c-.078.301-.134.613-.223.915-.494 1.81-1.905 3.225-3.713 3.725-.301.1-.624.156-.937.223h-19.411c-2.158-.285-3.939-1.829-4.527-3.926l-.223-.937zm13.825-11.923v3.234c0 .134.067.156.178.156h1.594v10.038h4.538v-10.038h2.497c.145 0 .212 0 .234-.201.078-.814.167-1.617.268-2.42 0-.257 0-.502.067-.781h-3.055v-2.231c0-.725.312-.981 1.048-1.026h2.23v-3.346h-3.312c-.516.008-1.03.057-1.539.145-.844.121-1.609.56-2.141 1.227-.49.643-.771 1.422-.803 2.231l-.056 2.621v.435l-1.75-.045z"
          fill="#58595B" fill-rule="nonzero"/>
</svg>