<svg width="30" height="30" viewBox="0 0 30 30" xmlns="http://www.w3.org/2000/svg">
    <title>Japo Instagram</title>
    <g fill="#58595B" fill-rule="nonzero">
        <path d="M14.837 29.507h-5.897c-3.823.078-7.249-2.271-8.435-5.786-.297-.89-.45-1.819-.454-2.754v-11.614c-.046-4.012 2.836-7.501 6.894-8.346.66-.134 1.332-.198 2.006-.193h11.893c4.166-.052 7.79 2.747 8.656 6.686.139.638.206 1.288.2 1.939v11.496c.073 4.029-2.809 7.547-6.883 8.4-.674.137-1.361.206-2.05.204-1.962-.011-3.946-.032-5.93-.032zm0-2.604h5.897c.505.013 1.011-.026 1.507-.118 2.826-.558 4.835-2.988 4.777-5.775v-11.657c.003-.435-.042-.87-.133-1.296-.581-2.729-3.092-4.67-5.974-4.618h-12.059c-.451-.004-.9.039-1.341.129-2.823.562-4.831 2.989-4.777 5.775v11.657c-.004.435.041.87.133 1.296.578 2.713 3.065 4.649 5.93 4.618 2.017 0 4.046-.021 6.074-.011h-.033zM14.758 7.329c4.417-.006 8.003 3.569 8.011 7.985.008 4.417-3.565 8.004-7.982 8.015-4.417.01-8.006-3.561-8.018-7.978.006-4.415 3.574-7.998 7.989-8.022zm0 2.659c-2.941-.006-5.33 2.371-5.341 5.311-.01 2.941 2.364 5.334 5.304 5.348 2.941.014 5.337-2.356 5.355-5.297.012-1.416-.542-2.779-1.538-3.785-.996-1.007-2.353-1.574-3.769-1.577h-.011zM24.059 7.436c.004.478-.29.911-.745 1.096-.455.186-.981.088-1.332-.249-.351-.336-.457-.844-.269-1.286.188-.442.633-.73 1.127-.73.669 0 1.213.521 1.219 1.168z"/>
    </g>
</svg>