<svg xmlns="http://www.w3.org/2000/svg" viewBox="0 0 25.41 34.55"><defs><style>.cls-1{fill:#f9f6ef;}</style></defs><title>icon-basket</title><path class="cls-1" d="M10 30.53a.92.92 0 0 0 .9-.94l-.37-20.9a.92.92 0 1 0-1.84 0l.37 20.9a.92.92 0 0 0 .94.94zm5.38 0a.92.92 0 0 0 .92-.9l.37-20.9a.92.92 0 1 0-1.84 0l-.37 20.9a.92.92 0 0 0 .9.94zm7.26-22.74a.92.92 0 0 0-1 .89l-.13 4.06a.92.92 0 0 0 .89.95.92.92 0 0 0 .92-.89l.13-4.06a.92.92 0 0 0-.81-.95zm-.25 7.64a.93.93 0 0 0-.95.89l-.44 15.26a1.13 1.13 0 0 1-1.13 1.13h-14.27a1.14 1.14 0 0 1-1.13-1.16l-.74-22.87a.92.92 0 1 0-1.84.06l.74 22.84a3 3 0 0 0 3 3h14.19a3 3 0 0 0 3-2.94l.49-15.23a.92.92 0 0 0-.92-.98zm2.1-11.32h-23.57a.92.92 0 1 0 0 1.84h23.57a.92.92 0 1 0 0-1.84zm-17.49-.8a.92.92 0 0 0 .92-.92.55.55 0 0 1 .55-.55h8.53a.55.55 0 0 1 .55.55.92.92 0 0 0 1.84 0 2.39 2.39 0 0 0-2.39-2.39h-8.54a2.39 2.39 0 0 0-2.39 2.39.92.92 0 0 0 .93.92z" id="delivery"/></svg>