<?xml version="1.0" encoding="utf-8"?>
<!-- Generator: Adobe Illustrator 21.0.0, SVG Export Plug-In . SVG Version: 6.00 Build 0)  -->
<svg version="1.1" id="Layer_1" xmlns="http://www.w3.org/2000/svg" xmlns:xlink="http://www.w3.org/1999/xlink" x="0px" y="0px"
	 viewBox="0 0 175 55" style="enable-background:new 0 0 175 55;" xml:space="preserve">
<style type="text/css">
	.st0{fill:#37B578;}
	.st1{fill:#4A4948;}
</style>
<title>Japo Logo</title>
<g>
	<path class="st0" d="M145.1,2.9h-33.9c-4.7,0-8.5,3.7-8.5,8.4v33.5c0,4.6,3.8,8.4,8.5,8.4h33.9c4.7,0,8.5-3.7,8.5-8.4V11.3
		C153.5,6.7,149.7,2.9,145.1,2.9 M128.1,41C120.9,41,115,35.2,115,28c0-7.1,5.9-12.9,13.1-12.9c7.2,0,13.1,5.8,13.1,12.9
		C141.2,35.2,135.3,41,128.1,41"/>
	<g>
		<path class="st1" d="M44.3,4h3.6c0.5,0,0.9,0.3,1.1,0.9l3.4,15.9c2.3,10.5,3.4,15.8,3.4,15.9v0.2c0,0.5-0.3,0.8-0.9,1.1
			c-0.1,0.1-0.4,0.1-0.6,0.1h-3c-0.8,0-1.2-0.3-1.4-1c0-0.1-0.3-1.3-0.8-3.7H43c-0.5,2.5-0.8,3.8-0.9,4c-0.3,0.5-0.7,0.8-1.4,0.8h-3
			c-0.7,0-1.2-0.3-1.4-0.9c-0.1-0.2-0.1-0.4-0.1-0.5c0-0.3,1.6-7.3,4.6-21.2c0-0.1,0.8-3.7,2.3-10.8C43.5,4.3,43.9,4,44.3,4
			 M46.1,19.2c0,0-0.6,2.8-1.8,8.4h3.7C46.7,22.1,46.1,19.3,46.1,19.2L46.1,19.2z"/>
		<path class="st1" d="M61.2,4H68c1.2,0,2.4,0.4,3.8,1.2c1.4,0.8,2.4,2.1,3.1,3.7c0.4,1,0.5,1.8,0.5,2.6c0,0.3,0,0.6,0,0.7v6.6
			c0,0.2,0,0.5,0,0.8c0,1.2-0.3,2.4-1,3.6c-0.2,0.4-0.7,1-1.4,1.8c-1,0.9-2.2,1.5-3.7,1.9c-0.6,0.1-1.2,0.2-1.5,0.2
			c-0.3,0-0.5,0-0.7,0h-1.2c0,0,0,0,0,0v9.3c0,0.1,0,0.3,0,0.5c0,0.4-0.2,0.7-0.6,1c-0.2,0.2-0.5,0.2-0.8,0.2h-2.7
			c-0.7,0-1.1-0.2-1.3-0.5c-0.2-0.2-0.3-0.5-0.3-0.8V31c0-3,0-5.2,0-6.6c0-1.8,0-4.2,0-7v-3.6c0-2.1,0-5,0-8.5
			c0-0.5,0.3-0.9,0.9-1.2C61,4,61.1,4,61.2,4 M65.8,9.8v11.5c0,0,0,0,0,0h1c1,0,1.4,0,1.4-0.1c0.4-0.1,0.7-0.4,1-0.8
			c0.2-0.3,0.2-0.7,0.2-1.5v-6.5c0-1,0-1.4-0.1-1.4c-0.1-0.4-0.4-0.7-0.8-1c-0.3-0.2-0.7-0.2-1.5-0.2L65.8,9.8
			C65.9,9.8,65.8,9.8,65.8,9.8"/>
		<path class="st1" d="M32.1,30.5c0-8.2,0-16.3,0-24.5c0-0.7-0.1-1.6-0.8-1.9C31.1,4,30.8,4,30.5,4c-0.8,0-1.6,0-2.4,0
			c-0.2,0-0.4,0-0.7,0.1c-0.6,0.1-1.1,0.3-1.2,0.9c-0.1,0.5,0,1.2,0,1.7c0,0.6,0,1.1,0,1.7c0,2.4,0,4.7,0,7.1c0,5.2,0,10.4,0,15.5
			c0,0.3,0,0.7-0.1,1c-0.2,0.5-0.3,1.2-3.6,1.2c0,0,0,0,0,0h-2.6c-0.4,0-0.8,0.4-0.8,0.8c0,0.9,0,2.4,0,3.4c0,0.4,0.4,0.8,0.8,0.8h5
			c0.1,0,0.3,0,0.6,0c0.1,0,0.2,0,0.3,0c0.9,0,1.8-0.1,2.6-0.5c1.6-0.7,2.9-2.1,3.4-3.8C32.1,32.8,32.1,31.6,32.1,30.5z"/>
		<path class="st1" d="M86.6,4h0.7c1.2,0,2.4,0.4,3.7,1.1c1.5,1,2.6,2.3,3.2,4c0.3,0.8,0.4,1.5,0.4,2.1v19.6c0,1.2-0.4,2.5-1.3,3.9
			c-0.3,0.4-0.7,0.9-1.3,1.4c-1.5,1.3-3.3,1.9-5.1,1.9c-2,0-3.8-0.7-5.4-2.2c-0.7-0.8-1.2-1.4-1.4-1.9c-0.3-0.5-0.5-1-0.6-1.7
			c-0.1-0.3-0.2-0.9-0.3-1.7V11.5c0-1.3,0.4-2.7,1.2-4.1c1-1.5,2.3-2.5,4.2-3.1C85.4,4.1,86,4,86.6,4 M85,12.4v17.3
			c0,1,0,1.4,0.1,1.4c0.1,0.4,0.4,0.7,0.8,1c0.3,0.1,0.6,0.2,0.8,0.2H87c0.7,0,1.3-0.4,1.7-1.2c0.1-0.2,0.1-0.4,0.1-0.6V11.5
			c0-0.7-0.4-1.2-1.2-1.6c-0.2-0.1-0.4-0.1-0.6-0.1h-0.2c-0.7,0-1.2,0.3-1.6,1C85.1,10.9,85,11.5,85,12.4"/>
		<path class="st1" d="M20.9,45.5c0.2,0,0.2,0.1,0.2,0.2v3.1c0,0.2-0.1,0.2-0.2,0.2h-0.6c-0.2,0-0.3-0.1-0.3-0.2v-1.7
			c0-0.3,0.2-0.5-0.1-0.5c-0.2,0-0.2-0.1-0.2-0.2v-0.6c0-0.2,0.1-0.2,0.2-0.2H20.9z M26,47c0-0.2,0.2-0.4-0.1-0.4h-0.2
			c-0.1,0-0.2-0.1-0.2-0.2v-0.6c0-0.2,0.1-0.2,0.2-0.2h1.7c0.6,0,1.1,0.5,1.1,1.2v5.6c0,0.2-0.1,0.2-0.2,0.2H27
			c-0.1,0-0.2-0.1-0.2-0.2v-0.6c0-0.1,0.1-0.2,0.2-0.2h0.2c0.1,0,0.2-0.1,0.2-0.2v-4.3c0-0.1-0.1-0.2-0.2-0.2s-0.2,0.1-0.2,0.2
			l-0.8,5.4c0,0.1-0.1,0.2-0.2,0.2h-0.7c-0.2,0-0.3-0.1-0.2-0.2L26,47z M34.1,45.5c0.2,0,0.2,0.1,0.2,0.2v6.5c0,0.2-0.1,0.2-0.2,0.2
			h-0.6c-0.2,0-0.3-0.1-0.3-0.2v-5.1c0-0.3,0.2-0.5-0.1-0.5H33c-0.2,0-0.2-0.1-0.2-0.2v-0.6c0-0.2,0.1-0.2,0.2-0.2H34.1z M39.8,52.9
			c0,0.2-0.1,0.2-0.2,0.2H39c-0.2,0-0.3-0.1-0.3-0.2v-4.6c0-0.1,0.1-0.2,0.3-0.2h0.6c0.1,0,0.2,0.1,0.2,0.2v3c0,0.1,0,0.1,0.1,0.1
			c0.1,0,0.4-0.1,0.4-0.4l0.4-4.2c0-0.1-0.1-0.2-0.2-0.2H39c-0.2,0-0.2-0.1-0.2-0.2v-0.6c0-0.2,0.1-0.2,0.2-0.2h2.6
			c0.3,0,0.4,0.2,0.4,0.4L41.5,51c-0.1,0.7-0.6,1.2-1.2,1.4c-0.2,0.1-0.5,0-0.5,0.3V52.9z M46.7,47c0-0.2,0.2-0.4-0.1-0.4h-0.2
			c-0.1,0-0.2-0.1-0.2-0.2v-0.6c0-0.2,0.1-0.2,0.2-0.2h1.7c0.6,0,1.1,0.5,1.1,1.2v5.6c0,0.2-0.1,0.2-0.2,0.2h-1.3
			c-0.1,0-0.2-0.1-0.2-0.2v-0.6c0-0.1,0.1-0.2,0.2-0.2H48c0.1,0,0.2-0.1,0.2-0.2v-4.3c0-0.1-0.1-0.2-0.2-0.2s-0.2,0.1-0.2,0.2
			L47,52.3c0,0.1-0.1,0.2-0.2,0.2h-0.7c-0.2,0-0.3-0.1-0.2-0.2L46.7,47z M60.6,45.5c0.2,0,0.2,0.1,0.2,0.2v3.1
			c0,0.2-0.1,0.2-0.2,0.2H60c-0.2,0-0.3-0.1-0.3-0.2v-1.7c0-0.3,0.2-0.5-0.1-0.5c-0.2,0-0.2-0.1-0.2-0.2v-0.6c0-0.2,0.1-0.2,0.2-0.2
			H60.6z M65,51.6c0-0.1,0.1-0.2,0.2-0.2h0.1c0.1,0,0.1-0.1,0.1-0.2v-4.1c0-0.3,0.2-0.5-0.1-0.5c-0.1,0-0.2-0.1-0.2-0.2v-0.6
			c0-0.2,0.1-0.2,0.2-0.2h2.8c0.2,0,0.2,0.1,0.2,0.2v6.5c0,0.1-0.1,0.2-0.2,0.2h-0.6c-0.1,0-0.2-0.1-0.2-0.2v-5.5
			c0-0.1-0.1-0.2-0.2-0.2h-0.5c-0.1,0-0.2,0.1-0.2,0.2v5.2c0,0.3-0.2,0.5-0.5,0.5h-0.7c-0.2,0-0.2-0.1-0.2-0.2V51.6z M73.9,45.5
			c0.2,0,0.2,0.1,0.2,0.2v3.1c0,0.2-0.1,0.2-0.2,0.2h-0.6c-0.2,0-0.3-0.1-0.3-0.2v-1.7c0-0.3,0.2-0.5-0.1-0.5
			c-0.2,0-0.2-0.1-0.2-0.2v-0.6c0-0.2,0.1-0.2,0.2-0.2H73.9z M79.6,45.5c0.2,0,0.2,0.1,0.2,0.2v3.1c0,0.2-0.1,0.2-0.2,0.2H79
			c-0.2,0-0.3-0.1-0.3-0.2v-1.7c0-0.3,0.2-0.5-0.1-0.5c-0.2,0-0.2-0.1-0.2-0.2v-0.6c0-0.2,0.1-0.2,0.2-0.2H79.6z M87.4,51
			c0,0.3-0.1,0.7-0.4,1c-0.3,0.3-0.7,0.5-1.1,0.5c-0.4,0-0.8-0.1-1.1-0.4c-0.3-0.3-0.4-0.6-0.4-1v-3.9c0-0.3,0.2-0.5,0-0.5
			c-0.2,0-0.2-0.1-0.2-0.2v-0.6c0-0.2,0.1-0.2,0.2-0.2h1.9c0.6,0,1.2,0.5,1.2,1.2V51z M85.4,51c0,0.2,0.2,0.4,0.5,0.4
			c0.3,0,0.5-0.2,0.5-0.4v-4.2c0-0.1-0.1-0.2-0.2-0.2h-0.5c-0.1,0-0.2,0.1-0.2,0.2V51z M93.3,46.9c0.1,0.2,0.4,0.2,0.4,0l0.2-1.2
			c0-0.1,0.1-0.2,0.2-0.2h0.7c0.2,0,0.3,0,0.2,0.4l-0.4,2.2c-0.1,0.6-0.4,0.5-0.3,1.2L95,52c0.1,0.2,0,0.4-0.3,0.4h-0.6
			c-0.2,0-0.2-0.1-0.2-0.3L93.4,50c-0.1-0.2-0.4-0.2-0.5,0l-0.1,2.2c0,0.1-0.1,0.2-0.2,0.2H92c-0.2,0-0.3-0.1-0.3-0.2l0.2-3.8
			c0-0.6,0.6-0.7,0.3-1.4l-0.5-1.2c-0.1-0.2,0-0.4,0.3-0.4h0.6c0.2,0,0.2,0.1,0.3,0.3L93.3,46.9z"/>
	</g>
</g>
</svg>
