<svg width="175" height="55" viewBox="0 0 175 55" xmlns="http://www.w3.org/2000/svg">
    <title>Japo Logo</title>
    <g fill-rule="nonzero" fill="none">
        <g fill="#7AC482">
            <path d="M145.78 23.64c.179-.473.27-.974.27-1.48v-16.8c0-2.32-1.88-4.2-4.2-4.2h-16.85c-.506-.001-1.007.091-1.48.27l22.26 22.21zM121.12 3.88c-.178.473-.269.974-.27 1.48v16.8c0 1.114.442 2.182 1.23 2.97.788.788 1.856 1.23 2.97 1.23h16.8c.506 0 1.007-.091 1.48-.27l-22.21-22.21zM131.71 29.17h-6.71c-2.32 0-4.2 1.88-4.2 4.2v16.8c0 2.32 1.88 4.2 4.2 4.2h6.67l.04-25.2zM141.85 29.17h-6.67v25.21h6.67c2.32 0 4.2-1.88 4.2-4.2v-16.81c0-2.32-1.88-4.2-4.2-4.2"
                  id="Shape"/>
            <path d="M174.06 12v-6.64c0-2.32-1.88-4.2-4.2-4.2h-16.8c-2.32 0-4.2 1.88-4.2 4.2v6.64h25.2zM148.85 15.5v6.67c0 2.32 1.88 4.2 4.2 4.2h16.8c2.32 0 4.2-1.88 4.2-4.2v-6.67h-25.2zM169.86 29.17h-16.81c-2.32 0-4.2 1.88-4.2 4.2v16.8c0 2.32 1.88 4.2 4.2 4.2h16.81c1.114 0 2.182-.442 2.97-1.23.788-.788 1.23-1.856 1.23-2.97v-16.8c0-2.32-1.88-4.2-4.2-4.2m-8.4 19.09c-3.584 0-6.49-2.906-6.49-6.49s2.906-6.49 6.49-6.49 6.49 2.906 6.49 6.49c-.006 3.582-2.908 6.484-6.49 6.49"
                  id="Shape"/>
        </g>
        <path d="M.62 53.07c0-.18.07-.31.24-.31h.16c.13 0 .18-.09.18-.22v-5.12c0-.34.25-.68-.08-.68-.076.014-.154-.01-.209-.063-.055-.053-.082-.13-.071-.207v-.76c0-.21.1-.31.28-.31h3.48c.19 0 .3.07.3.28v8.14c.006.066-.017.132-.063.18-.046.048-.11.074-.177.07h-.72c-.18 0-.3-.08-.3-.25v-6.82c0-.16-.1-.24-.27-.24h-.64c-.16 0-.27.08-.27.24v6.43c.003.179-.067.351-.193.477s-.298.196-.477.193h-.89c-.19 0-.3-.08-.3-.28l.02-.75zM10.19 45.4c.19 0 .3.07.3.28v3.92c0 .19-.09.3-.28.3h-.79c-.084.013-.169-.014-.23-.073s-.091-.143-.08-.227v-2.17c0-.34.25-.68-.1-.68-.19 0-.3-.09-.3-.28v-.76c0-.21.1-.31.3-.31h1.18zM15.6 52.52c-.004.063.021.124.068.167.047.043.11.062.172.053h.18c.22 0 .19-.22.13-.44v-6.62c0-.18.1-.28.31-.28h.71c.075-.007.149.021.202.076.052.054.077.13.068.204v6.6000000000000005c-.06.22-.09.44.13.44h.18c.062.009.126-.01.172-.053.047-.043.071-.104.068-.167v-6.82c0-.18.11-.28.31-.28h.7c.077-.01.154.016.209.071.055.055.081.132.071.209v7c-.005.383-.164.748-.44 1.013-.276.265-.647.408-1.03.397h-2c-.381.008-.749-.136-1.024-.401-.274-.265-.431-.628-.436-1.009v-7c0-.18.11-.28.31-.28h.71c.075-.007.149.021.202.076.052.054.077.13.068.204l-.04 6.84zM24.45 45.4c.19 0 .29.07.29.28v3.92c0 .19-.09.3-.28.3h-.79c-.21 0-.31-.1-.31-.3v-2.17c0-.34.25-.68-.1-.68-.19 0-.3-.09-.3-.28v-.76c0-.21.1-.31.3-.31h1.19zM30.53 47.12c.13.31.46.3.52 0l.28-1.48c0-.16.1-.24.24-.24h.8c.19 0 .33.06.27.44l-.49 2.8c-.12.71-.5.65-.31 1.47l.83 3.47c.07.3 0 .49-.31.49h-.76c-.19 0-.24-.09-.29-.35l-.65-2.7c0-.155-.125-.28-.28-.28-.155 0-.28.125-.28.28l-.16 2.77c0 .16-.1.24-.24.24h-.79c-.21 0-.34-.1-.33-.3l.27-4.74c0-.76.71-.93.35-1.71l-.67-1.44c-.067-.105-.067-.239-.001-.344.066-.105.188-.162.311-.146h.72c.19 0 .25.1.36.36l.61 1.41zM45.64 45.4c.19 0 .3.07.3.28v8.09c.013.079-.012.16-.067.218-.055.059-.133.089-.213.082h-.72c-.21 0-.31-.1-.31-.3v-6.77c0-.16-.11-.24-.27-.24h-1.88c-.19 0-.3-.09-.3-.27v-.76c0-.21.1-.31.3-.31l3.16-.02zm-3.46 3.6c0-.18.1-.28.31-.28h.76c.18 0 .27.1.27.28v4.82c0 .19-.09.3-.27.3h-.76c-.084.013-.169-.014-.23-.073s-.091-.143-.08-.227v-4.82zM51.3 52.74c.16 0 .27-.07.27-.24v-5.5c0-.16-.1-.24-.27-.24h-1.36c-.19 0-.3-.09-.3-.27v-.76c-.013-.084.014-.169.073-.23s.143-.091.227-.08h2.7c.19 0 .3.07.3.28v6.85c0 .13.06.21.18.22.074.007.141.045.187.103.045.059.065.133.053.207v.73c.01.077-.016.154-.071.209-.055.055-.132.081-.209.071h-3.13c-.19 0-.3-.09-.3-.28v-.74c0-.21.1-.31.3-.31l1.35-.02zM58.55 52.74c.16 0 .27-.07.27-.24v-5.5c0-.16-.11-.24-.27-.24h-1.55c-.19 0-.29-.09-.29-.27v-.76c-.013-.082.013-.165.07-.225.057-.06.138-.092.22-.085h1.73c.377-.008.742.137 1.01.403s.416.629.41 1.007v5.85c.006.377-.143.741-.41 1.007-.268.266-.632.412-1.01.403h-1.73c-.19 0-.29-.09-.29-.28v-.74c0-.21.1-.31.29-.31l1.55-.02zM64.16 46.74c-.19 0-.3-.09-.3-.27v-.76c-.013-.084.014-.169.073-.23s.143-.091.227-.08h1.84c.376-.005.739.141 1.006.406s.416.627.414 1.004v7c.013.079-.012.16-.067.218-.055.059-.133.089-.213.082h-.77c-.21 0-.31-.1-.31-.3v-6.81c0-.16-.1-.24-.27-.24l-1.63-.02zM74.72 45.4c.19 0 .3.07.3.28v8.09c.013.079-.012.16-.067.218-.055.059-.133.089-.213.082h-.74c-.084.013-.169-.014-.23-.073s-.091-.143-.08-.227v-6.77c0-.16-.11-.24-.27-.24h-1.88c-.19 0-.3-.09-.3-.27v-.76c0-.21.1-.31.3-.31l3.18-.02zm-3.46 3.6c0-.18.1-.28.31-.28h.76c.075-.007.149.021.202.076.052.054.077.13.068.204v4.82c0 .19-.09.3-.27.3h-.76c-.084.013-.169-.014-.23-.073s-.091-.143-.08-.227v-4.82zM80.38 52.74c.16 0 .27-.07.27-.24v-5.5c0-.16-.11-.24-.27-.24h-1.38c-.19 0-.3-.09-.3-.27v-.76c-.013-.084.014-.169.073-.23s.143-.091.227-.08h2.7c.19 0 .3.07.3.28v6.85c0 .13.06.21.18.22.074.007.141.045.187.103.045.059.065.133.053.207v.73c.01.077-.016.154-.071.209-.055.055-.132.081-.209.071h-3.14c-.19 0-.3-.09-.3-.28v-.74c0-.21.1-.31.3-.31l1.38-.02zM93.18 45.4c.19 0 .3.07.3.28v3.92c0 .19-.09.3-.28.3h-.79c-.084.013-.169-.014-.23-.073s-.091-.143-.08-.227v-2.17c0-.34.25-.68-.1-.68-.19 0-.3-.09-.3-.28v-.76c0-.21.1-.31.3-.31h1.18zM99 45.4c.19 0 .3.07.3.28v7c.005.376-.141.737-.407 1.003-.266.266-.627.412-1.003.407h-.68c-.19 0-.3-.09-.3-.28v-.74c-.013-.084.014-.169.073-.23s.143-.091.227-.08h.52l.134-.049.056-.131v-5.14c0-.33.24-.68-.12-.68h-.18c-.075.009-.15-.016-.204-.068-.054-.052-.082-.127-.076-.202v-.76c0-.21.1-.31.28-.31l1.38-.02zM104.91 46.74c-.16 0-.27.08-.27.24v1.38l.044.148.136.072c.16 0 .24.12.24.31v.73c.006.076-.021.151-.075.205-.054.054-.129.081-.205.075h-1.11c-.19 0-.3-.07-.3-.28v-2.2c0-.34.25-.68-.06-.68s-.29-.09-.29-.27v-.76c0-.21.1-.31.29-.31h3.39c.19 0 .29.08.29.28v6.57c-.011 1.012-.838 1.826-1.85 1.82h-1.42c-.19 0-.3-.09-.3-.28v-.74c-.013-.084.014-.169.073-.23s.143-.091.227-.08h1.45c.268-.019.481-.232.5-.5v-5.24c0-.16 0-.24-.18-.24l-.58-.02zM112.27 45.4c.19 0 .3.07.3.28v3.92c0 .19-.09.3-.28.3h-.79c-.21 0-.31-.1-.31-.3v-2.17c0-.34.25-.68-.1-.68-.19 0-.29-.09-.29-.28v-.76c0-.21.1-.31.29-.31h1.18zM7.17 29.81l.28 1c.053.16.187.493.4 1 .35.29.63.36.86.19.4-.366.778-.757 1.13-1.17.652-1.817 1.115-3.697 1.38-5.61.51-3.643.697-7.324.56-11 0-.9-.08-1.79-.13-2.66-.05-.87-.1-1.77-.16-2.69-.06-.92-.09-1.87-.1-2.85l-.05-.16c-.032-1.643.921-3.147 2.42-3.82 1.384-.913 3.124-1.099 4.67-.5.758.304 1.409.826 1.87 1.5.56.871.858 1.884.86 2.92-.033 1.887-.033 3.87 0 5.95s.033 4.167 0 6.26c-.047 2.053-.198 4.102-.45 6.14-.221 1.886-.664 3.738-1.32 5.52-1.393 3.747-3.663 6.25-6.81 7.51-.278.149-.579.25-.89.3l-1.1.16c-.626.085-1.259.112-1.89.08-.797-.03-1.588-.147-2.36-.35-1.554-.264-2.945-1.12-3.88-2.39-.737-1.095-1.304-2.295-1.68-3.56-.138-.596-.175-1.211-.11-1.82.083-.502.203-.996.36-1.48.111-.487.4-.915.81-1.2.443-.338.961-.564 1.51-.66.574-.106 1.165-.069 1.72.11.576.18 1.067.564 1.38 1.08.127.3.263.68.41 1.14.15.46.25.83.31 1.1"
              id="Shape" fill="#58595B"/>
        <path d="M43.76 5.73c1.071.423 1.973 1.185 2.57 2.17.487 3.153 1.023 6.287 1.61 9.4.587 3.113 1.02 5.72 1.3 7.82.273 2.1.507 3.67.7 4.71.193 1.04.363 2.083.51 3.13v.89c0 .31.09.6.12.87s.07.56.12.87c-.575.923-1.604 1.462-2.69 1.41-1.34.067-2.667-.282-3.8-1-.751-.591-1.159-1.517-1.09-2.47-.054-.678-.181-1.349-.38-2-.227-.8-.4-1.467-.52-2v-.08c-.702.309-1.343.743-1.89 1.28l-1 1c-.163.154-.363.264-.58.32-.233.071-.47.128-.71.17-.355-.004-.703.097-1 .29-.667 2.967-1.593 4.633-2.78 5-.766.285-1.59.377-2.4.27-.953-.151-1.82-.641-2.44-1.38-1.187-.807-1.73-3.11-1.63-6.91.111-2.436.364-4.864.76-7.27.368-2.503.875-4.984 1.52-7.43 1.059-4.136 2.84-8.053 5.26-11.57.46-.24.953-.52 1.48-.84.509-.312 1.085-.5 1.68-.55.67-.046 1.344.004 2 .15.669.132 1.314.369 1.91.7 1.195.467 1.833 1.77 1.47 3l-.1.05zm-5.27 11.31c0 1.7-.073 3.267-.22 4.7-.147 1.433-.24 2.69-.28 3.77l3.31-.24c-.38-1.8-.713-3.587-1-5.36-.287-1.773-.62-3.547-1-5.32l-.81 2.45zm1.68 8.44c.389-.011.777-.051 1.16-.12l-1 .12c-.3 0-.35.05-.15 0h-.01zM77.46 25.62c-.85.832-1.875 1.464-3 1.85-1.152.386-2.378.496-3.58.32-1.322-.193-2.568-.735-3.61-1.57-.043 2.504.161 5.006.61 7.47.025.423-.054.845-.23 1.23-.03 1.448-1.046 2.687-2.46 3-1.59.48-3.298.392-4.83-.25-.779-.318-1.491-.779-2.1-1.36-.626-.592-1.082-1.342-1.32-2.17-.116-5.559.114-11.12.69-16.65.127-.907.227-1.643.3-2.21.07-.57.15-1 .23-1.44.08-.44.15-.74.22-1s.16-.63.28-1c.253-.847.543-1.847.87-3 .226-.885.538-1.745.93-2.57.278-.535.631-1.027 1.05-1.46.427-.432.892-.823 1.39-1.17.527-.367 1.193-.847 2-1.44.806-.601 1.76-.974 2.76-1.08 1.075-.123 2.163-.027 3.2.28 2.415.743 4.505 2.284 5.93 4.37 1.634 2.545 2.642 5.441 2.94 8.45.733 5.407-.013 9.213-2.24 11.42m-10-3.78c2.167-.507 3.33-2.02 3.49-4.54.049-2.509-.529-4.99-1.68-7.22-.328 1.128-.575 2.277-.74 3.44-.167 1.187-.323 2.25-.47 3.19-.307 2.093-.503 3.807-.59 5.14M89.46 6.59c.993-1.894 2.74-3.281 4.81-3.82 1.419-.367 2.914-.308 4.3.17.72-1.107 1.96-1.503 3.72-1.19 1.784.374 3.415 1.277 4.68 2.59.193.309.403.606.63.89.3.4.607.84.92 1.32 2.107 2.887 3.337 6.68 3.69 11.38.433 5.833-.403 10.773-2.51 14.82-.608 1.199-1.464 2.256-2.51 3.1-1.573 1.56-3.803 2.253-6.69 2.08-1.684-.06-3.331-.512-4.81-1.32-5.427-2.347-8.427-7.243-9-14.69-.46-6.113.467-11.223 2.78-15.33m7.23 22.55v.25l.22.47c.347.755.84 1.435 1.45 2 .364.35.778.644 1.23.87.213-.227.433-.44.66-.64.229-.202.416-.446.55-.72 1.325-2.927 1.915-6.133 1.72-9.34-.036-3.656-.713-7.278-2-10.7-.667 1.413-1.333 3.04-2 4.88-.576 1.543-1.07 3.115-1.48 4.71-.699 2.677-.822 5.472-.36 8.2M5.89 1.53s9.64-1.05 16.05-.54 4.08 4.59 4.08 4.59c-3.13 2.171-6.883 3.263-10.69 3.11-5.93-.45-9.38-.13-10.83-4.42-.35-1 1.39-2.74 1.39-2.74"
              fill="#58595B"/>
    </g>
</svg>